<svg width="83" height="83" viewBox="0 0 83 83" fill="none" xmlns="http://www.w3.org/2000/svg">
<rect width="83" height="83" rx="12" fill="white"/>
<path d="M19.6234 33.9377C26.3247 28.9249 35.4987 33.6362 35.1811 42.0217C35.0698 44.4938 33.9855 46.8217 32.1645 48.4973C25.8259 54.3835 15.7361 49.6703 16.0053 41.175C16.0372 40.1681 16.2237 39.2247 16.4848 38.2561C16.692 38.7912 16.9086 39.0927 17.2436 39.5578C17.1433 39.968 17.1103 40.4446 17.0736 40.8684C17.0455 41.2771 17.0606 41.5994 17.0727 42.0061L17.1713 43.2082C18.1634 43.175 19.4024 42.9218 20.5043 42.8567C20.2009 42.3438 19.6284 41.7355 19.2543 41.2336C18.2301 39.8594 16.5479 37.4301 16.0238 35.842C16.8274 35.7817 17.6269 35.6764 18.433 35.6535C18.8752 35.641 19.3175 35.6272 19.7592 35.6018C20.2937 35.5984 20.8283 35.6016 21.3627 35.6096C22.5366 35.7006 23.7333 35.6457 24.9135 35.8401C25.4444 35.9275 25.971 36.0097 26.4975 36.1262C28.388 36.4823 30.2276 37.0372 32.0092 37.7619C32.5299 37.9738 33.2228 38.2416 33.7221 38.5051L33.7094 38.4885C33.4203 38.1249 33.0549 37.211 32.6703 36.6438C31.2387 34.5563 28.9699 33.194 26.4545 32.9114C24.7827 32.7142 22.9363 33.1473 21.4701 33.9602C21.0101 34.2152 20.5617 34.5919 20.143 34.8274C19.7067 34.8321 18.9417 34.836 18.5238 34.9211C18.8757 34.5951 19.2409 34.224 19.6234 33.9377ZM33.4545 43.2532C31.867 43.2358 30.318 43.1083 28.7074 43.1819C27.4664 43.2416 26.2368 43.4076 24.9848 43.4114C24.2856 43.4134 23.508 43.5752 22.7982 43.5715C21.8897 43.6451 20.8316 43.7909 19.9281 43.9319C19.3362 44.0242 18.0299 44.1215 17.5336 44.2541L17.5131 44.2893C18.2267 46.4085 19.7535 48.157 21.7572 49.1496C22.8256 49.6795 24.948 50.2867 26.141 50.0744C26.5619 50.0224 28.3267 49.7317 28.6029 49.5373C28.6027 49.3756 28.1577 49.1735 28.0102 49.092C26.8095 48.4277 25.7424 47.4814 24.5678 46.7961C26.1589 45.8836 27.8268 45.1109 29.5522 44.4885C30.4448 44.162 31.3527 43.8911 32.2738 43.6545C32.7059 43.5435 33.0774 43.5204 33.4545 43.2532ZM33.557 44.4006C32.7355 44.6276 31.5906 44.8903 30.807 45.1496C30.2441 45.336 26.7798 46.6319 26.6225 46.9426C26.9579 47.2109 27.5479 47.5455 27.9389 47.8205C28.3809 48.0927 29.4971 48.6931 29.8441 48.9446C31.3402 47.9907 32.5041 46.8818 33.2816 45.2629C33.3858 45.046 33.5717 44.7042 33.6488 44.4865L33.6205 44.4172L33.557 44.4006ZM32.7484 39.2043C28.3369 37.1904 23.7897 36.4342 18.9574 36.6574C18.498 36.6769 18.0393 36.709 17.5814 36.7522C17.8922 37.2027 18.2683 37.9454 18.5668 38.426C19.1359 39.3422 21.1121 42.1205 21.8715 42.675C22.0071 42.6347 22.3142 42.5421 22.4457 42.5461C23.1306 42.5673 23.9867 42.3689 24.6391 42.3879C25.6477 42.4172 26.6338 42.215 27.6088 42.1887C29.257 42.1443 30.996 42.1098 32.641 42.1897C33.1795 42.228 33.6284 42.3244 34.141 42.3723C34.1642 41.6845 34.1849 40.6913 34.101 40.0002C33.7034 39.6034 33.2512 39.4338 32.7484 39.2043Z" fill="#98A1AE"/>
<path d="M59.457 35.6255C59.7698 35.6257 60.1145 35.6327 60.4219 35.6978C62.8991 36.2225 62.261 39.0424 62.3428 40.8902C62.3754 41.6733 62.1734 42.6174 61.5957 43.1802C60.7636 43.9799 59.6198 43.9329 58.5644 43.9263L54.7363 43.9322C54.7356 44.9554 54.7952 46.1156 54.6865 47.1206C54.6409 47.5355 52.4024 47.3572 52.0654 47.2437C52.0625 47.2289 52.0608 47.2136 52.0586 47.1988C52.0094 46.8846 52.0256 46.153 52.0264 45.8091L52.0283 43.4029V38.2124C52.0287 37.4761 52.038 36.7395 52.0225 36.0034C52.0156 35.6741 52.1591 35.6752 52.4189 35.6411C52.5653 35.6235 52.772 35.6245 52.9238 35.6245C55.1012 35.6251 57.2793 35.6247 59.457 35.6255ZM57.3418 37.9038L54.7363 37.9116L54.7412 41.5337L57.459 41.5386C57.9367 41.5391 58.738 41.562 59.1816 41.4849L59.4111 41.3013C59.4662 41.2274 59.5721 41.0807 59.5889 40.9947C59.69 40.4711 59.6937 39.1023 59.623 38.6148C59.6118 38.5383 59.5969 38.4621 59.5781 38.3872C59.3364 38.0977 59.1897 37.9373 58.7881 37.9165C58.3141 37.892 57.8169 37.9029 57.3418 37.9038Z" fill="#98A1AE"/>
<path d="M40.8917 35.6409C41.2313 35.6086 41.834 35.625 42.1903 35.6248L44.5345 35.6246L47.8171 35.625C48.4601 35.6245 49.5757 35.5781 50.169 35.7172C50.2009 36.3763 50.1849 37.1201 50.1722 37.7795C49.5909 37.9832 48.1542 37.9118 47.4761 37.9117L43.2153 37.9084L43.2178 40.1577C44.3338 40.2043 45.5555 40.137 46.6813 40.1622C47.2459 40.1748 47.7675 40.1401 48.3398 40.2039C48.4307 40.2846 48.5398 40.3442 48.6442 40.407C48.6645 41.0758 48.6533 41.7714 48.6478 42.4422C48.1593 42.5864 46.8603 42.5426 46.2869 42.542C45.3 42.5431 44.3135 42.5388 43.3269 42.529L43.2501 42.54C43.1769 42.6964 43.216 44.7417 43.2175 45.0543C44.0572 45.0566 49.9425 44.9749 50.2357 45.1321C50.2683 45.1496 50.2904 45.2352 50.2987 45.2719C50.3632 45.5469 50.3698 47.0527 50.2375 47.2693C50.1233 47.3275 49.7797 47.3485 49.6438 47.3499C47.1126 47.3754 44.5802 47.3553 42.049 47.3604C41.5655 47.3613 41.0265 47.3799 40.5572 47.2735C40.4702 46.5565 40.5242 35.8403 40.5655 35.7259C40.6478 35.6439 40.7728 35.6506 40.8917 35.6409Z" fill="#98A1AE"/>
<path d="M64.7048 35.6397C65.1358 35.6135 66.5543 35.595 66.9588 35.6744C67.0063 35.992 66.9903 36.6996 66.9907 37.0446L66.9918 39.4211C66.9922 40.1699 67.0313 47.0591 66.9414 47.2463C66.8497 47.3272 66.7928 47.3219 66.6736 47.3326C66.5946 47.3388 66.5155 47.3433 66.4365 47.3462C66.0364 47.3612 64.6131 47.4414 64.3609 47.208C64.2684 46.6969 64.288 35.9195 64.3554 35.7231C64.4446 35.6609 64.591 35.6546 64.7048 35.6397Z" fill="#98A1AE"/>
</svg>
