<svg width="86" height="86" viewBox="0 0 86 86" fill="none" xmlns="http://www.w3.org/2000/svg">
<rect width="86" height="86" rx="12" fill="#4780CF"/>
<path d="M19.6234 35.4373C26.3248 30.4245 35.4989 35.1366 35.1811 43.5223C35.0697 45.9943 33.9854 48.3223 32.1645 49.9979C25.8259 55.8839 15.7361 51.1698 16.0053 42.6746C16.0372 41.6679 16.2237 40.7251 16.4848 39.7567C16.692 40.2917 16.9076 40.5933 17.2426 41.0584C17.1425 41.4684 17.1103 41.9444 17.0736 42.368C17.0456 42.7766 17.0606 43.0991 17.0727 43.5057L17.1713 44.7088C18.1635 44.6755 19.4024 44.4214 20.5043 44.3563C20.2008 43.8434 19.6284 43.2351 19.2543 42.7332C18.2301 41.3591 16.548 38.9307 16.0238 37.3426C16.8274 37.2823 17.6269 37.176 18.433 37.1532C18.8752 37.1406 19.3175 37.1278 19.7592 37.1024C20.2936 37.099 20.8283 37.1012 21.3627 37.1092C22.5365 37.2002 23.7334 37.1463 24.9135 37.3407C25.4444 37.4281 25.9711 37.5093 26.4975 37.6258C28.3881 37.9819 30.2275 38.5378 32.0092 39.2625C32.5299 39.4744 33.2228 39.7412 33.7221 40.0047L33.7094 39.9891C33.4202 39.6255 33.0541 38.7106 32.6693 38.1434C31.2377 36.0561 28.9697 34.6936 26.4545 34.411C24.7826 34.2138 22.9363 34.6479 21.4701 35.4608C21.0102 35.7158 20.5617 36.0925 20.143 36.328C19.7067 36.3327 18.9418 36.3366 18.5238 36.4217C18.8758 36.0956 19.2408 35.7236 19.6234 35.4373ZM33.4535 44.7528C31.8662 44.7354 30.3179 44.6089 28.7074 44.6824C27.4665 44.7422 26.2367 44.9072 24.9848 44.911C24.2856 44.913 23.5079 45.0747 22.7982 45.0711C21.8897 45.1447 20.8316 45.2905 19.9281 45.4315C19.3363 45.5238 18.03 45.6221 17.5336 45.7547L17.5131 45.7899C18.2268 47.909 19.7535 49.6577 21.7572 50.6502C22.8256 51.1801 24.9481 51.7873 26.141 51.575C26.562 51.523 28.3276 51.2313 28.6029 51.0369C28.6019 50.875 28.156 50.6729 28.0092 50.5916C26.8086 49.9273 25.7424 48.981 24.5678 48.2957C26.1589 47.3832 27.8268 46.6115 29.5522 45.9891C30.4448 45.6626 31.3527 45.3917 32.2738 45.1551C32.7059 45.0441 33.0764 45.02 33.4535 44.7528ZM33.557 45.9002C32.7355 46.1272 31.5906 46.3899 30.807 46.6492C30.2452 46.8352 26.781 48.1312 26.6225 48.4422C26.9578 48.7104 27.5469 49.0451 27.9379 49.3201C28.3796 49.5922 29.497 50.1936 29.8441 50.4451C31.3403 49.4913 32.5041 48.3815 33.2816 46.7625C33.3859 46.5455 33.5718 46.2038 33.6488 45.9862L33.6205 45.9168L33.557 45.9002ZM32.7484 40.7039C28.3369 38.6901 23.7897 37.9347 18.9574 38.158C18.4979 38.1775 18.0384 38.2086 17.5805 38.2518C17.8913 38.7023 18.2682 39.4449 18.5668 39.9256C19.1357 40.8416 21.112 43.6211 21.8715 44.1756C22.0071 44.1352 22.3142 44.0416 22.4457 44.0457C23.1306 44.0669 23.9867 43.8685 24.6391 43.8875C25.6477 43.9168 26.6339 43.7146 27.6088 43.6883C29.2569 43.644 30.996 43.6094 32.641 43.6893C33.1795 43.7276 33.6284 43.825 34.141 43.8729C34.1642 43.1852 34.1849 42.1919 34.101 41.5008C33.7033 41.1038 33.2513 40.9335 32.7484 40.7039Z" fill="white"/>
<path d="M59.4568 37.1256C59.7696 37.1258 60.1143 37.1328 60.4216 37.1979C62.8989 37.7226 62.2607 40.5425 62.3425 42.3903C62.3751 43.1735 62.1732 44.1175 61.5955 44.6803C60.7633 45.48 59.6195 45.4331 58.5642 45.4264L54.7361 45.4323C54.7354 46.4555 54.795 47.6158 54.6863 48.6208C54.6406 49.0357 52.4022 48.8573 52.0652 48.7438C52.0623 48.729 52.0605 48.7137 52.0583 48.6989C52.0091 48.3848 52.0254 47.6531 52.0261 47.3092L52.0281 44.903V39.7125C52.0284 38.9762 52.0378 38.2396 52.0222 37.5036C52.0153 37.1742 52.1588 37.1754 52.4187 37.1413C52.565 37.1236 52.7718 37.1246 52.9236 37.1247C55.101 37.1252 57.279 37.1248 59.4568 37.1256ZM57.3415 39.404L54.7361 39.4118L54.741 43.0338L57.4587 43.0387C57.9364 43.0392 58.7378 43.0622 59.1814 42.985L59.4109 42.8014C59.4659 42.7275 59.5719 42.5808 59.5886 42.4948C59.6897 41.9713 59.6934 40.6024 59.6228 40.1149C59.6116 40.0384 59.5967 39.9622 59.5779 39.8874C59.3361 39.5978 59.1894 39.4374 58.7878 39.4166C58.3138 39.3922 57.8166 39.403 57.3415 39.404Z" fill="white"/>
<path d="M40.8913 37.141C41.2309 37.1087 41.8337 37.1251 42.1899 37.1249L44.5342 37.1248L47.8168 37.1251C48.4597 37.1247 49.5753 37.0782 50.1686 37.2173C50.2005 37.8764 50.1846 38.6203 50.1719 39.2797C49.5905 39.4833 48.1538 39.4119 47.4757 39.4118L43.2149 39.4085L43.2174 41.6578C44.3334 41.7044 45.5552 41.6372 46.6809 41.6623C47.2456 41.675 47.7671 41.6402 48.3394 41.704C48.4304 41.7847 48.5395 41.8443 48.6438 41.9071C48.6641 42.5759 48.6529 43.2715 48.6475 43.9423C48.1589 44.0865 46.8599 44.0427 46.2866 44.0421C45.2996 44.0433 44.3131 44.0389 43.3265 44.0291L43.2497 44.0401C43.1765 44.1965 43.2156 46.2418 43.2171 46.5544C44.0569 46.5567 49.9421 46.475 50.2353 46.6323C50.2679 46.6498 50.29 46.7353 50.2984 46.772C50.3629 47.047 50.3694 48.5528 50.2371 48.7694C50.1229 48.8276 49.7794 48.8487 49.6434 48.85C47.1122 48.8755 44.5798 48.8554 42.0486 48.8605C41.5651 48.8615 41.0262 48.8801 40.5568 48.7736C40.4698 48.0566 40.5238 37.3405 40.5651 37.2261C40.6474 37.144 40.7725 37.1507 40.8913 37.141Z" fill="white"/>
<path d="M64.7046 37.1398C65.1355 37.1136 66.5541 37.0951 66.9586 37.1745C67.006 37.4921 66.9901 38.1997 66.9905 38.5447L66.9915 40.9212C66.9919 41.67 67.0311 48.5592 66.9412 48.7464C66.8495 48.8273 66.7926 48.822 66.6733 48.8328C66.5943 48.8389 66.5153 48.8435 66.4363 48.8463C66.0362 48.8614 64.6129 48.9415 64.3606 48.7081C64.2682 48.197 64.2878 37.4197 64.3552 37.2232C64.4443 37.161 64.5908 37.1547 64.7046 37.1398Z" fill="white"/>
</svg>
