<svg width="244" height="36" viewBox="0 0 244 36" fill="none" xmlns="http://www.w3.org/2000/svg">
<g clip-path="url(#clip0_2626_24218)">
<path fill-rule="evenodd" clip-rule="evenodd" d="M9.88046 0.841293H15.8461C15.8473 0.841293 15.8479 0.841293 15.8491 0.841293C16.2237 0.841293 16.5319 1.15037 16.5337 1.52746V3.60983H9.19824V1.53343C9.19824 1.53223 9.19824 1.53164 9.19824 1.53044C9.19824 1.15335 9.50586 0.842487 9.88046 0.841293Z" fill="white"/>
<path fill-rule="evenodd" clip-rule="evenodd" d="M18.8267 7.99474H18.1385V6.302H18.9802C18.9867 6.302 18.9938 6.302 19.0003 6.302C19.3992 6.302 19.7264 5.97264 19.7264 5.57168C19.7264 5.17012 19.3992 4.84076 19.0003 4.84076C18.9938 4.84076 18.9867 4.84076 18.9802 4.84076H6.75484C6.74772 4.84076 6.74061 4.84076 6.73409 4.84076C6.33519 4.84076 6.00802 5.17012 6.00802 5.57168C6.00802 5.97264 6.33519 6.302 6.73409 6.302C6.74061 6.302 6.74772 6.302 6.75484 6.302H7.59531V7.99474H6.90716C6.89057 7.99355 6.87397 7.99355 6.85738 7.99355C6.3915 7.99355 6.00387 8.37124 5.99023 8.84022V11.3027L12.8657 9.3796L19.7412 11.3027V8.84022C19.7264 8.37124 19.3394 7.99355 18.8735 7.99355C18.8581 7.99355 18.8421 7.99414 18.8267 7.99474ZM9.58031 7.8414C9.57913 7.8414 9.57794 7.8414 9.57675 7.8414C9.20216 7.8414 8.89335 7.53173 8.89217 7.15404V7.14926C8.88506 6.75248 9.18734 6.41417 9.58031 6.37956C9.99877 6.38016 10.3437 6.72742 10.3437 7.14926C10.3354 7.53292 10.0195 7.84438 9.6384 7.84438C9.61884 7.84438 9.59928 7.84319 9.58031 7.8414ZM12.8669 7.8414C12.4894 7.8408 12.1788 7.52934 12.1776 7.14986C12.1746 7.1254 12.1734 7.10093 12.1734 7.07647C12.1734 6.6946 12.4858 6.38016 12.8651 6.38016C13.2445 6.38016 13.5568 6.6946 13.5568 7.07647C13.5568 7.10093 13.5557 7.1254 13.5533 7.14986C13.5533 7.52874 13.2445 7.8408 12.8687 7.84199L12.8669 7.8414ZM16.0753 7.8414C16.0741 7.8414 16.0729 7.8414 16.0717 7.8414C15.6971 7.8414 15.3883 7.53173 15.3865 7.15404L15.3871 7.14926C15.38 6.75248 15.6823 6.41417 16.0753 6.37956C16.4937 6.38076 16.8381 6.72742 16.8399 7.14926C16.831 7.53292 16.5151 7.84438 16.134 7.84438C16.115 7.84438 16.096 7.84378 16.0777 7.84199L16.0753 7.8414Z" fill="white"/>
<path fill-rule="evenodd" clip-rule="evenodd" d="M24.7105 24.4144V24.4192C24.7093 24.7974 24.3994 25.1077 24.0236 25.1065H1.63317C1.47136 25.1012 1.31962 25.0284 1.21293 24.9054C1.09024 24.7718 1.02208 24.5964 1.02148 24.4144C1.04341 24.0862 1.30599 23.8213 1.63257 23.7992H6.67599L3.00827 13.3379L12.8651 10.5693L21.3321 12.9471C20.4483 13.3343 19.6553 13.9035 19.0039 14.6177C17.493 13.9017 15.642 13.7824 13.8787 13.7824C12.6126 13.78 11.349 13.8928 10.1031 14.1177L10.1434 14.1517C10.2678 14.5885 12.4135 22.0874 18.7289 22.0874C19.0554 22.0922 19.3814 22.0522 19.6973 21.9681L19.0548 23.8028H24.023C24.2032 23.8034 24.3768 23.872 24.5096 23.9949C24.6305 24.1011 24.7034 24.2533 24.7105 24.4144Z" fill="white"/>
<path d="M20.1398 20.9473C20.1246 20.9528 20.1089 20.9565 20.0938 20.9602L20.1004 20.9418C20.1131 20.9442 20.1264 20.9461 20.1398 20.9473Z" fill="white"/>
<path d="M17.6653 17.1935C16.3009 16.3964 14.7871 15.891 13.2199 15.7096C14.6377 15.9692 15.9921 16.5032 17.2083 17.2818C17.334 17.3552 17.4584 17.4298 17.5805 17.5098C18.6551 18.187 19.6153 19.0319 20.4256 20.0128C20.6016 20.2258 20.7705 20.4442 20.9311 20.6691C20.6733 20.7789 20.4096 20.872 20.1399 20.9478C20.1268 20.9472 20.1138 20.9454 20.1008 20.943L20.0942 20.9609C19.5466 21.113 18.9811 21.193 18.4127 21.1996C13.6876 21.1996 11.4299 15.2389 11.3369 14.919L11.3066 14.894C12.2396 14.7293 13.1844 14.647 14.1315 14.6482C15.6121 14.6064 17.0844 14.888 18.4471 15.4733C19.671 16.0145 20.6063 17.0611 21.0129 18.3433C21.1896 18.9221 21.2814 19.5235 21.2856 20.1285C21.2856 20.2109 21.2856 20.2968 21.2791 20.3827C21.0627 20.0939 20.8328 19.8153 20.5897 19.5474C19.7422 18.6148 18.7559 17.8206 17.6653 17.1935Z" fill="#D7E6ED"/>
<path d="M20.1398 20.9473C20.1246 20.9528 20.1089 20.9565 20.0938 20.9602L20.1004 20.9418C20.1131 20.9442 20.1264 20.9461 20.1398 20.9473Z" fill="white"/>
<path d="M28.6562 13.2645L28.6272 13.2895C28.5389 13.5974 26.4762 19.0927 22.1423 19.5587C22.0125 19.5736 21.8821 19.5826 21.7487 19.5879C21.6871 18.6703 21.4073 17.7812 20.9325 16.9954C21.0345 16.9065 21.1364 16.8194 21.2407 16.7359C21.3907 16.6118 21.5436 16.4912 21.7001 16.3779C22.0409 16.1243 22.3948 15.8886 22.7605 15.6726C23.9749 14.891 25.3281 14.3534 26.7453 14.0891C25.0193 14.3021 23.3615 14.8976 21.8915 15.8325C21.5999 16.0175 21.316 16.2162 21.0398 16.4292C20.9319 16.5115 20.8258 16.5963 20.7203 16.6834C20.3908 16.2377 19.9919 15.8492 19.5391 15.5324C19.6197 15.4131 19.7038 15.2997 19.7945 15.1905C20.549 14.3271 21.5466 13.715 22.655 13.4357C24.6228 12.9673 26.6653 12.9089 28.6562 13.2645Z" fill="#D7E6ED"/>
<path d="M34.4375 24.9854V0.426025H52.5284V4.58062H39.3641V10.0252H51.6138V14.1631H39.3641V20.8457H52.9966V24.9836L34.4375 24.9854Z" fill="white"/>
<path d="M57.6289 16.9943L62.4222 16.5253C62.5775 17.8833 63.1987 19.1458 64.1778 20.0934C65.1908 20.8965 66.4604 21.3016 67.7477 21.2324C69.3344 21.2324 70.5299 20.8941 71.3343 20.2181C72.0799 19.6596 72.5262 18.7825 72.541 17.8475C72.5553 17.3081 72.3745 16.7813 72.0331 16.3648C71.5435 15.8624 70.933 15.496 70.2609 15.3009C69.6841 15.0999 68.3689 14.7419 66.3163 14.2269C63.6758 13.5682 61.823 12.7585 60.7579 11.7979C59.3164 10.57 58.4919 8.75669 58.5109 6.85571C58.5103 5.60629 58.8784 4.38491 59.5677 3.34611C60.3098 2.22617 61.3719 1.35862 62.6131 0.858612C64.1399 0.251802 65.7728 -0.0387749 67.414 0.00418513C70.4766 0.00418513 72.7817 0.680208 74.3293 2.03285C75.8816 3.39504 76.7724 5.3712 76.7677 7.44402L71.841 7.6618C71.7421 6.61585 71.2578 5.64447 70.4843 4.93921C69.565 4.32107 68.4661 4.0287 67.3637 4.10985C66.1782 4.04123 65.0011 4.35209 64.0018 4.99769C63.5009 5.33838 63.2058 5.91357 63.2194 6.52217C63.2206 7.10631 63.4909 7.65822 63.9514 8.01384C64.5726 8.5389 66.0816 9.08605 68.4786 9.65587C70.3136 10.033 72.0983 10.626 73.7958 11.4232C74.903 11.9936 75.8347 12.8564 76.4921 13.919C77.8553 16.3767 77.7818 19.397 76.3006 21.7843C75.5135 23.0212 74.3607 23.9794 73.0051 24.523C71.3106 25.1686 69.5063 25.4729 67.6956 25.418C64.6111 25.418 62.242 24.7002 60.5889 23.2652C58.9358 21.8303 57.949 19.7395 57.6289 16.9943Z" fill="white"/>
<path d="M88.0917 0.426025H83.165V24.9854H88.0917V0.426025Z" fill="white"/>
<path d="M0 35.6128V31.9881H2.67018V32.6015H0.726669V33.4052H2.53445V34.0162H0.726669V35.0031H2.73834V35.614L0 35.6128Z" fill="#D7E6ED"/>
<path d="M4.06738 35.6127V31.9879H4.77508L6.24917 34.4086V31.9879H6.92486V35.6127H6.19464L4.74308 33.2487V35.6127H4.06738Z" fill="#D7E6ED"/>
<path d="M9.3157 35.6127L8.02832 31.9879H8.81722L9.72882 34.6729L10.6108 31.9879H11.3813L10.0916 35.6127H9.3157Z" fill="#D7E6ED"/>
<path d="M13.1609 31.9879H12.4336V35.6127H13.1609V31.9879Z" fill="#D7E6ED"/>
<path d="M14.5615 35.6126V31.9879H16.0919C16.3746 31.9747 16.658 32.0076 16.9306 32.0857C17.1049 32.1508 17.2524 32.2731 17.3497 32.433C17.4558 32.6042 17.5103 32.8023 17.5067 33.004C17.5162 33.2504 17.4309 33.4921 17.2696 33.6776C17.0794 33.8704 16.8275 33.9885 16.5584 34.0124C16.7024 34.0941 16.8334 34.1967 16.9478 34.3167C17.1031 34.5004 17.2418 34.6973 17.3627 34.905L17.8025 35.612H16.933L16.4072 34.8232C16.2911 34.6377 16.163 34.4593 16.0238 34.2904C15.9639 34.223 15.8892 34.1711 15.805 34.1395C15.6859 34.1072 15.562 34.0935 15.4387 34.0989H15.2912V35.612L14.5615 35.6126ZM15.2888 33.5207H15.827C16.0451 33.5315 16.2644 33.5165 16.479 33.476C16.5619 33.4491 16.6337 33.3954 16.6829 33.3226C16.7344 33.2415 16.7599 33.1466 16.7563 33.0505C16.7623 32.9425 16.7273 32.8357 16.6591 32.7522C16.5874 32.6734 16.4902 32.6233 16.3853 32.6102C16.3266 32.6018 16.1488 32.5977 15.8519 32.5977H15.2846L15.2888 33.5207Z" fill="#D7E6ED"/>
<path d="M18.7501 33.8221C18.7406 33.5041 18.797 33.1878 18.9149 32.8925C18.9967 32.7081 19.1105 32.5398 19.2504 32.3954C19.382 32.2558 19.5402 32.1448 19.7157 32.0691C19.9622 31.9694 20.2266 31.9205 20.4921 31.9259C20.9669 31.9038 21.4298 32.0846 21.7659 32.4229C22.3995 33.2266 22.4007 34.3734 21.7694 35.1789C21.4357 35.5166 20.9746 35.6968 20.5016 35.6747C20.0262 35.698 19.5622 35.519 19.2243 35.1813C18.8924 34.8102 18.7217 34.3203 18.7501 33.8221ZM19.4993 33.7976C19.4756 34.1329 19.5764 34.4659 19.782 34.7308C19.9658 34.9325 20.2254 35.047 20.4975 35.047C20.7695 35.047 21.0291 34.9325 21.2129 34.7308C21.4179 34.4605 21.5169 34.124 21.4914 33.7851C21.5169 33.4521 21.4203 33.1216 21.22 32.8555C21.0303 32.6598 20.7701 32.5494 20.4986 32.5494C20.226 32.5494 19.964 32.6616 19.7743 32.8591C19.571 33.127 19.4732 33.4617 19.4993 33.7976Z" fill="#D7E6ED"/>
<path d="M23.5225 35.6127V31.9879H24.2302L25.7042 34.4086V31.9879H26.3799V35.6127H25.6503L24.1982 33.2499V35.6138L23.5225 35.6127Z" fill="#D7E6ED"/>
<path d="M27.8428 35.6127V31.9879H28.931L29.583 34.4605L30.229 31.9879H31.3196V35.6127H30.6439V32.7594L29.9291 35.6127H29.2291L28.5179 32.7594V35.6127H27.8428Z" fill="#D7E6ED"/>
<path d="M32.748 35.6127V31.9879H35.4153V32.6013H33.4723V33.405H35.2801V34.016H33.4723V35.0029H35.484V35.6138L32.748 35.6127Z" fill="#D7E6ED"/>
<path d="M36.8145 35.6127V31.9879H37.5222L38.9962 34.4086V31.9879H39.6719V35.6127H38.9423L37.4901 33.2487V35.6127H36.8145Z" fill="#D7E6ED"/>
<path d="M41.9565 35.6126V32.6007H40.8896V31.9873H43.7513V32.6007H42.6844V35.6126H41.9565Z" fill="#D7E6ED"/>
<path d="M47.7976 35.6127H47.0063L46.6921 34.7892H45.2524L44.9561 35.6127H44.1855L45.5879 31.9879H46.3584L47.7976 35.6127ZM46.4586 34.1806L45.9625 32.8358L45.4765 34.1806H46.4586Z" fill="#D7E6ED"/>
<path d="M48.9072 35.6127V32.0172H49.6345V35.0005H51.4423V35.6115L48.9072 35.6127Z" fill="#D7E6ED"/>
<path d="M54.4912 34.4336L55.1989 34.3644C55.222 34.5649 55.3133 34.751 55.4579 34.8913C55.6073 35.01 55.7946 35.0697 55.9849 35.0595C56.1733 35.0732 56.3606 35.0201 56.5141 34.9098C56.6238 34.8274 56.6896 34.6979 56.692 34.5601C56.6943 34.4808 56.6677 34.4026 56.6173 34.3411C56.545 34.2672 56.4543 34.2129 56.3553 34.1842C56.27 34.155 56.0761 34.1019 55.7733 34.0261C55.4763 33.9712 55.1954 33.8489 54.9529 33.6681C54.7402 33.4867 54.6181 33.2188 54.621 32.9384C54.621 32.754 54.675 32.5738 54.7769 32.4205C54.8866 32.2552 55.043 32.1275 55.2262 32.0535C55.4526 31.9634 55.6944 31.9211 55.9374 31.9276C56.302 31.9002 56.6647 32.0064 56.9581 32.226C57.1875 32.427 57.3185 32.7188 57.3179 33.0249L56.5906 33.0571C56.5758 32.9026 56.5041 32.7594 56.3903 32.6556C56.2545 32.5643 56.0927 32.5213 55.9297 32.5332C55.7549 32.5231 55.5812 32.569 55.4336 32.6645C55.3595 32.7146 55.3157 32.7994 55.3181 32.8894C55.3181 32.9754 55.3578 33.0571 55.4259 33.1096C55.6316 33.2319 55.8586 33.3137 56.0945 33.3519C56.3654 33.4074 56.6285 33.4951 56.8793 33.6126C57.0428 33.6967 57.1804 33.8244 57.277 33.9813C57.4785 34.3441 57.4672 34.7898 57.2485 35.1425C57.1324 35.325 56.9622 35.4665 56.7619 35.547C56.5118 35.6425 56.2456 35.6872 55.9783 35.6795C55.602 35.7045 55.2291 35.5918 54.9292 35.3614C54.6702 35.1204 54.5131 34.788 54.4912 34.4336Z" fill="#D7E6ED"/>
<path d="M58.7383 35.6127V31.9879H59.4655V33.4145H60.8881V31.9879H61.6189V35.6127H60.8916V34.0255H59.4691V35.6109L58.7383 35.6127Z" fill="#D7E6ED"/>
<path d="M63.778 31.9879H63.0508V35.6127H63.778V31.9879Z" fill="#D7E6ED"/>
<path d="M65.1748 35.6126V31.9879H66.3419C66.6311 31.976 66.9209 31.9945 67.2066 32.0422C67.4147 32.0977 67.5978 32.223 67.7253 32.3972C67.8717 32.6025 67.9452 32.8507 67.9339 33.1031C67.941 33.297 67.9001 33.4903 67.8154 33.6645C67.7436 33.8071 67.6387 33.9294 67.5095 34.0225C67.3963 34.1043 67.2683 34.1627 67.1325 34.1944C66.8836 34.2349 66.6311 34.2522 66.3786 34.2463H65.9044V35.6138L65.1748 35.6126ZM65.9021 32.6007V33.6293H66.2998C66.4936 33.6395 66.6874 33.6192 66.8747 33.5697C66.9666 33.5351 67.046 33.4724 67.1017 33.3907C67.1574 33.3077 67.1859 33.2093 67.1841 33.109C67.1883 32.9891 67.1474 32.8728 67.0685 32.7827C66.9921 32.6973 66.8889 32.6406 66.7763 32.6222C66.6027 32.6007 66.4278 32.5929 66.253 32.5977L65.9021 32.6007Z" fill="#D7E6ED"/>
<path d="M71.9509 31.9879H71.2236V35.6127H71.9509V31.9879Z" fill="#D7E6ED"/>
<path d="M73.3555 35.6127V31.9879H74.0632L75.5373 34.4086V31.9879H76.2129V35.6127H75.4833L74.0294 33.2499V35.6138L73.3555 35.6127Z" fill="#D7E6ED"/>
<path d="M77.6846 31.9879H79.0134C79.244 31.9801 79.4746 32.0034 79.6986 32.0571C79.9061 32.1174 80.0934 32.2331 80.2415 32.3913C80.3974 32.5595 80.5142 32.76 80.5853 32.9784C80.6707 33.2558 80.711 33.5452 80.7039 33.8352C80.7092 34.0965 80.6719 34.3573 80.593 34.6067C80.5166 34.8477 80.3844 35.0673 80.2072 35.2469C80.0614 35.3817 79.8865 35.4808 79.6962 35.5363C79.4864 35.5936 79.2695 35.6192 79.0526 35.6127H77.6846V31.9879ZM78.4118 32.6013V35.0023H78.9548C79.1023 35.007 79.2499 34.9957 79.3946 34.9677C79.5042 34.9432 79.6062 34.8913 79.6909 34.8167C79.784 34.7188 79.8498 34.5983 79.8812 34.4671C79.9369 34.2505 79.9618 34.0267 79.9547 33.803C79.9624 33.5852 79.9381 33.3674 79.8812 33.1574C79.8427 33.0249 79.7715 32.9044 79.6749 32.8065C79.5807 32.7194 79.4639 32.6603 79.3383 32.6359C79.1409 32.6061 78.9411 32.5947 78.7414 32.6013H78.4118Z" fill="#D7E6ED"/>
<path d="M82.0244 35.6127V31.9879H84.6946V32.6013H82.7487V33.405H84.5571V34.016H82.7487V35.0029H84.7639V35.6138L82.0244 35.6127Z" fill="#D7E6ED"/>
<path d="M85.7188 35.6127L86.9492 33.7212L85.8337 31.9879H86.6837L87.4056 33.1526L88.1133 31.9879H88.9562L87.8359 33.7487L89.0664 35.6132H88.1892L87.3908 34.3602L86.59 35.6132L85.7188 35.6127Z" fill="#D7E6ED"/>
</g>
<path opacity="0.7" d="M107.135 16.5584C107.476 15.9646 108.187 15.4778 109.131 15.4778C110.572 15.4778 111.662 16.5486 111.662 18.2132C111.662 19.8681 110.562 20.9876 109.131 20.9876C108.158 20.9876 107.466 20.5009 107.135 19.9168V20.9H106.25V13.6964H107.135V16.5584ZM110.757 18.2132C110.757 16.9575 109.929 16.2469 108.946 16.2469C107.982 16.2469 107.135 16.9867 107.135 18.223C107.135 19.4787 107.982 20.2088 108.946 20.2088C109.929 20.2088 110.757 19.469 110.757 18.2132ZM114.561 19.8876L116.216 15.5654H117.131L113.918 23.4115H113.003L114.055 20.8416L111.903 15.5654H112.886L114.561 19.8876Z" fill="white"/>
<g clip-path="url(#clip1_2626_24218)">
<path d="M132.429 9.17062C128.73 9.17062 125.541 11.2221 124.062 14.183L124.378 14.0992C124.686 14.0173 124.997 13.9266 125.325 13.83C126.365 13.5242 127.442 13.2086 128.53 13.177C128.596 13.175 128.661 13.1741 128.727 13.1741C129.822 13.1741 130.979 13.4315 132.368 13.9838C132.791 14.1525 133.203 14.3428 133.601 14.5273C134.448 14.9188 135.247 15.2897 136.135 15.4544C136.687 15.557 137.286 15.6073 137.966 15.6073C138.707 15.6073 139.441 15.5511 140.217 15.4909C140.462 15.4722 140.707 15.4534 140.951 15.4357C141.065 15.4278 141.181 15.4219 141.296 15.414C140.163 11.8051 136.624 9.17062 132.429 9.17062Z" fill="white"/>
<path d="M140.229 15.9318C140.04 15.9466 139.851 15.9614 139.662 15.9742C139.096 16.0146 138.532 16.0472 137.968 16.0472C137.326 16.0472 136.687 16.0058 136.047 15.8864C134.656 15.627 133.478 14.9021 132.189 14.3892C131.092 13.9532 129.929 13.614 128.729 13.614C128.669 13.614 128.607 13.614 128.546 13.6169C127.191 13.6564 125.801 14.1801 124.505 14.5233C124.278 14.5835 124.051 14.6437 123.824 14.7038C123.589 15.268 123.411 15.8588 123.305 16.4733C123.305 16.4743 123.305 16.4752 123.305 16.4762C123.305 16.4802 123.304 16.4841 123.303 16.4881C123.999 16.6774 124.747 16.9092 125.428 17.1262C125.549 17.1647 125.639 17.1933 125.687 17.2081C126.424 17.429 127.137 17.719 127.826 17.9991C128.829 18.4064 129.777 18.7911 130.798 18.9884C131.113 19.0495 131.438 19.0801 131.765 19.0801C133.324 19.0801 134.806 18.3995 136.239 17.7407C137.107 17.3422 138.09 16.8905 139.151 16.6271C139.561 16.5255 140.329 16.4072 141.201 16.3016C141.303 16.2888 141.409 16.277 141.515 16.2652C141.486 16.1241 141.455 15.985 141.419 15.846C141.274 15.8548 141.129 15.8637 140.986 15.8736C140.733 15.8913 140.48 15.9111 140.228 15.9298L140.229 15.9318Z" fill="white"/>
<path d="M140.456 16.8431C140.103 16.8934 139.789 16.9447 139.542 16.994C139.44 17.0137 139.347 17.0335 139.27 17.0532C138.282 17.2978 137.358 17.716 136.444 18.1361C136.306 18.1993 136.168 18.2624 136.029 18.3255C135.774 18.4409 135.517 18.5553 135.258 18.6648C135.118 18.724 134.978 18.7822 134.836 18.8374C133.847 19.228 132.828 19.519 131.764 19.519C131.619 19.519 131.472 19.5121 131.326 19.5012C131.282 19.4982 131.238 19.4943 131.194 19.4904C131.032 19.4736 130.869 19.4509 130.704 19.4193C128.895 19.0702 127.293 18.1519 125.545 17.6272C125.328 17.5621 124.288 17.2159 123.238 16.9279C123.201 17.2475 123.179 17.571 123.179 17.8994C123.179 18.6076 123.271 19.2951 123.44 19.9539C123.981 19.7971 124.593 19.7162 125.269 19.7162C126.37 19.7162 127.642 19.9233 129.048 20.3307C130.125 20.6433 131.178 21.0655 132.195 21.4748C133.107 21.8417 134.051 22.2205 134.991 22.5085C135.36 22.6219 135.702 22.7136 136.04 22.7896C136.713 22.9414 137.424 23.0184 138.151 23.0184C138.785 23.0184 139.415 22.9612 140.037 22.8616C141.072 21.4521 141.679 19.7428 141.679 17.8994C141.679 17.4921 141.648 17.0916 141.589 16.6991C141.461 16.7139 141.333 16.7287 141.209 16.7435C140.944 16.776 140.69 16.8086 140.454 16.8421L140.456 16.8431Z" fill="white"/>
<path d="M136.404 23.3094C136.246 23.2818 136.089 23.2532 135.931 23.2177C135.565 23.1348 135.205 23.0372 134.846 22.9267C134.658 22.8695 134.471 22.8084 134.285 22.7452C134.099 22.6821 133.913 22.616 133.728 22.548C133.358 22.4129 132.989 22.2688 132.621 22.1229C132.131 21.9276 131.641 21.7284 131.149 21.535C130.78 21.39 130.41 21.249 130.038 21.1168C129.665 20.9847 129.29 20.8614 128.912 20.7509C128.71 20.6927 128.495 20.6355 128.275 20.5793C127.35 20.3455 126.291 20.1562 125.271 20.1562C124.677 20.1562 124.098 20.2223 123.566 20.3791C123.766 21.0133 124.035 21.6189 124.373 22.185C124.4 22.2304 124.431 22.2738 124.459 22.3182C124.612 22.3093 124.763 22.3044 124.916 22.3044C126.808 22.3044 128.418 22.9642 130.125 23.6635C131.671 24.2967 133.269 24.9516 135.152 25.1153C135.701 25.1558 136.264 25.1765 136.823 25.1765C137.071 25.1765 137.317 25.1716 137.563 25.1637C137.584 25.1508 137.606 25.138 137.627 25.1242C138.389 24.635 139.067 24.0393 139.643 23.3627C139.15 23.4238 138.653 23.4583 138.156 23.4583C137.574 23.4583 136.99 23.41 136.408 23.3094H136.404Z" fill="white"/>
<path d="M133.095 25.1952C132.845 25.1291 132.602 25.0561 132.36 24.9792C129.727 24.1418 127.556 22.7442 124.913 22.7442C124.858 22.7442 124.801 22.7482 124.746 22.7491C126.405 25.0867 129.224 26.6293 132.429 26.6293C133.993 26.6293 135.465 26.2614 136.756 25.6154C136.201 25.6134 135.651 25.5937 135.111 25.5532C134.401 25.4911 133.733 25.3629 133.095 25.1952Z" fill="white"/>
<path d="M150.915 12.0734C148.629 12.0734 146.641 13.2392 145.579 14.981C145.061 15.8312 144.76 16.8175 144.76 17.8759C144.76 17.8798 144.76 17.8837 144.76 17.8887C144.762 18.9509 145.069 19.9422 145.595 20.7963C146.66 22.5263 148.64 23.6872 150.914 23.6872C153.188 23.6872 155.157 22.5263 156.224 20.7963C156.75 19.9422 157.058 18.9519 157.06 17.8887C157.06 17.8847 157.06 17.8808 157.06 17.8759C157.06 16.8175 156.758 15.8312 156.239 14.981C155.176 13.2392 153.188 12.0734 150.913 12.0734H150.915ZM152.827 20.7953C152.277 21.1317 151.623 21.323 150.915 21.323C150.207 21.323 149.556 21.1317 149.006 20.7953C148.039 20.2035 147.398 19.16 147.397 17.8877C147.397 17.8867 147.397 17.8857 147.397 17.8837C147.397 16.6163 148.02 15.5758 148.972 14.98C149.527 14.6329 150.193 14.4366 150.915 14.4366C151.637 14.4366 152.3 14.6329 152.855 14.98C153.808 15.5758 154.434 16.6163 154.434 17.8837C154.434 17.8847 154.434 17.8857 154.434 17.8877C154.433 19.159 153.796 20.2035 152.829 20.7953H152.827ZM160.915 17.8798C160.604 18.2309 160.407 18.7172 160.407 19.3316C160.407 19.9461 160.602 20.4304 160.907 20.7835C161.286 21.2194 161.833 21.4502 162.397 21.4502C163.005 21.4502 163.556 21.2638 163.924 20.7835C164.047 20.6237 164.15 20.4304 164.227 20.2006H166.836C166.795 20.4008 166.739 20.5941 166.673 20.7835C166.083 22.4918 164.526 23.6862 162.386 23.6862C160.247 23.6862 158.688 22.4652 158.103 20.7835C157.944 20.3278 157.855 19.8406 157.855 19.3316C157.855 18.8227 157.945 18.3365 158.105 17.8798C158.692 16.2041 160.283 14.9771 162.386 14.9771C164.489 14.9771 166.122 16.208 166.702 17.8798C166.753 18.0258 166.799 18.1747 166.835 18.3276H164.226C164.156 18.156 164.063 18.009 163.957 17.8798C163.588 17.4281 163.026 17.2288 162.396 17.2288C161.832 17.2288 161.289 17.4537 160.913 17.8798H160.915ZM196.825 17.8926C196.885 18.2497 196.917 18.6333 196.917 19.0466V23.6872H194.342V19.1028C194.342 18.583 194.247 18.1865 194.075 17.8926C193.798 17.4172 193.323 17.217 192.728 17.217C192.177 17.217 191.652 17.4379 191.299 17.8926C191.025 18.2457 190.855 18.7389 190.855 19.38V23.6872H188.28V14.9771H190.739V16.2327C191.231 15.4959 192.26 14.981 193.455 14.981C195.43 14.981 196.521 16.0551 196.825 17.8926ZM172.089 14.9771C169.958 14.9771 168.353 16.1981 167.765 17.8798C167.605 18.3355 167.516 18.8227 167.516 19.3316C167.516 19.8406 167.606 20.3278 167.766 20.7835C168.357 22.4652 169.964 23.6862 172.089 23.6862C174.398 23.6862 175.937 22.2275 176.336 20.7835H173.572C173.374 21.2431 172.923 21.5923 172.04 21.5923C171.348 21.5923 170.784 21.3151 170.429 20.7835C170.273 20.5507 170.155 20.2736 170.092 19.9402H176.48C176.513 19.6867 176.53 19.5279 176.53 19.2685C176.53 18.7842 176.452 18.3177 176.309 17.8808C175.765 16.21 174.236 14.9781 172.09 14.9781L172.089 14.9771ZM170.192 18.296C170.244 18.1402 170.313 18.0051 170.388 17.8798C170.774 17.2407 171.434 16.9754 172.097 16.9754C172.845 16.9754 173.493 17.3423 173.763 17.8798C173.829 18.01 173.879 18.1481 173.896 18.296H170.193H170.192ZM184.261 16.2909C183.722 15.4545 182.673 14.981 181.368 14.981C179.535 14.981 178.082 16.2001 177.545 17.8808C177.4 18.3355 177.317 18.8227 177.317 19.3307C177.317 19.8386 177.398 20.3258 177.541 20.7805C178.057 22.4257 179.443 23.6181 181.242 23.6803C181.29 23.6823 181.337 23.6882 181.386 23.6882C181.441 23.6882 181.493 23.6823 181.546 23.6803C182.758 23.6418 183.737 23.1792 184.251 22.3853V23.6882H186.751V14.9771H184.261V16.2909ZM184.149 19.3297C184.149 19.9007 183.939 20.4048 183.591 20.7795C183.207 21.1918 182.655 21.4453 182.025 21.4453C181.395 21.4453 180.821 21.2194 180.426 20.7795C180.112 20.4294 179.917 19.9451 179.917 19.3297C179.917 18.7142 180.116 18.2378 180.442 17.8798C180.831 17.4517 181.401 17.214 182.032 17.214C182.663 17.214 183.191 17.4695 183.576 17.8798C183.93 18.2576 184.148 18.7655 184.148 19.3297H184.149ZM211.542 17.8798C211.231 18.2309 211.034 18.7172 211.034 19.3316C211.034 19.9461 211.229 20.4304 211.534 20.7835C211.913 21.2194 212.46 21.4502 213.024 21.4502C213.632 21.4502 214.183 21.2638 214.551 20.7835C214.674 20.6237 214.777 20.4304 214.854 20.2006H217.463C217.422 20.4008 217.366 20.5941 217.3 20.7835C216.71 22.4918 215.153 23.6862 213.013 23.6862C210.874 23.6862 209.315 22.4652 208.73 20.7835C208.571 20.3278 208.482 19.8406 208.482 19.3316C208.482 18.8227 208.572 18.3365 208.732 17.8798C209.32 16.2041 210.91 14.9771 213.013 14.9771C215.116 14.9771 216.749 16.208 217.329 17.8798C217.38 18.0258 217.426 18.1747 217.462 18.3276H214.853C214.783 18.156 214.69 18.009 214.584 17.8798C214.215 17.4281 213.653 17.2288 213.023 17.2288C212.459 17.2288 211.916 17.4537 211.54 17.8798H211.542ZM222.892 14.9771C220.747 14.9771 219.13 16.1981 218.536 17.8798C218.375 18.3355 218.285 18.8227 218.285 19.3316C218.285 19.8406 218.375 20.3288 218.535 20.7835C219.129 22.4721 220.75 23.6862 222.883 23.6862C225.017 23.6862 226.686 22.475 227.283 20.7835C227.443 20.3288 227.532 19.8416 227.532 19.3316C227.532 18.8217 227.442 18.3355 227.281 17.8798C226.683 16.1942 225.051 14.9771 222.892 14.9771ZM222.908 21.4414C222.266 21.4414 221.723 21.1968 221.353 20.7835C221.026 20.4176 220.835 19.9185 220.835 19.3316C220.835 18.7448 221.027 18.2477 221.355 17.8798C221.724 17.4665 222.267 17.2209 222.908 17.2209C223.55 17.2209 224.092 17.4665 224.462 17.8798C224.79 18.2477 224.982 18.7478 224.982 19.3316C224.982 19.9155 224.791 20.4166 224.464 20.7835C224.095 21.1977 223.552 21.4414 222.908 21.4414ZM232.953 14.9771H233.956V17.3472H233.095C232.48 17.3472 231.985 17.5356 231.632 17.8916C231.239 18.2881 231.021 18.8927 231.021 19.6897V23.6852H228.439V14.9771H230.904V16.4329C231.296 15.7533 231.94 14.9771 232.953 14.9771ZM243.206 19.2685C243.206 18.7842 243.128 18.3177 242.985 17.8808C242.441 16.21 240.912 14.9781 238.766 14.9781C236.621 14.9781 235.031 16.1991 234.442 17.8808C234.282 18.3365 234.194 18.8237 234.194 19.3326C234.194 19.8416 234.283 20.3288 234.443 20.7845C235.034 22.4661 236.641 23.6872 238.766 23.6872C241.075 23.6872 242.615 22.2284 243.013 20.7845H240.25C240.051 21.2441 239.601 21.5933 238.717 21.5933C238.025 21.5933 237.461 21.3161 237.107 20.7845C236.951 20.5517 236.833 20.2746 236.769 19.9412H243.157C243.191 19.6877 243.208 19.5289 243.208 19.2695L243.206 19.2685ZM236.869 18.296C236.922 18.1402 236.991 18.0051 237.066 17.8798C237.452 17.2407 238.111 16.9754 238.775 16.9754C239.522 16.9754 240.17 17.3423 240.441 17.8798C240.507 18.01 240.557 18.1481 240.573 18.296H236.869ZM207.502 20.2716C207.502 20.4481 207.485 20.6148 207.461 20.7786C207.195 22.5973 205.474 23.6093 203.029 23.6803C202.937 23.6832 202.848 23.6882 202.754 23.6882C202.679 23.6882 202.611 23.6823 202.539 23.6803C199.718 23.6132 198.402 22.26 198.071 20.7786C198.012 20.5162 197.98 20.2509 197.98 19.9875H200.631C200.631 20.2874 200.713 20.5537 200.869 20.7786C201.191 21.2431 201.833 21.5242 202.745 21.5242C203.882 21.5242 204.495 21.2737 204.717 20.7786C204.784 20.6286 204.819 20.458 204.819 20.2637C204.819 19.4993 204.008 19.1817 202.536 18.8562C201.624 18.6432 200.613 18.3631 199.803 17.8768C198.913 17.3432 198.265 16.5611 198.265 15.3351C198.265 15.2128 198.272 15.0935 198.283 14.9761C198.456 13.2451 199.898 12.0744 202.654 12.0744C205.41 12.0744 206.812 13.1958 207.066 14.9761C207.093 15.1625 207.11 15.3548 207.11 15.5551H204.459C204.459 15.3548 204.411 15.1546 204.299 14.9761C204.067 14.6023 203.558 14.3192 202.62 14.3192C201.562 14.3192 201.132 14.6151 200.983 14.9761C200.933 15.0974 200.914 15.2256 200.914 15.3519C200.914 16.0601 201.665 16.4092 203.455 16.7347C204.606 16.9596 205.623 17.3097 206.351 17.8768C207.067 18.4351 207.502 19.2024 207.502 20.2716Z" fill="white"/>
</g>
<defs>
<clipPath id="clip0_2626_24218">
<rect width="89.5" height="35.8" fill="white"/>
</clipPath>
<clipPath id="clip1_2626_24218">
<rect width="120.028" height="17.4587" fill="white" transform="translate(123.179 9.17067)"/>
</clipPath>
</defs>
</svg>
