<svg width="86" height="86" viewBox="0 0 86 86" fill="none" xmlns="http://www.w3.org/2000/svg">
<rect width="86" height="86" rx="12" fill="#5C8A3E"/>
<g clip-path="url(#clip0_2052_5395)">
<path fill-rule="evenodd" clip-rule="evenodd" d="M21.9677 32.6327H25.5711C25.5718 32.6327 25.5721 32.6327 25.5728 32.6327C25.7991 32.6327 25.9853 32.8202 25.9863 33.0489V34.3122H21.5557V33.0526C21.5557 33.0518 21.5557 33.0515 21.5557 33.0508C21.5557 32.822 21.7415 32.6334 21.9677 32.6327Z" fill="white"/>
<path fill-rule="evenodd" clip-rule="evenodd" d="M27.371 36.9723H26.9554V35.9454H27.4637C27.4677 35.9454 27.472 35.9454 27.4759 35.9454C27.7168 35.9454 27.9145 35.7456 27.9145 35.5024C27.9145 35.2588 27.7168 35.059 27.4759 35.059C27.472 35.059 27.4677 35.059 27.4637 35.059H20.0795C20.0752 35.059 20.0709 35.059 20.067 35.059C19.826 35.059 19.6284 35.2588 19.6284 35.5024C19.6284 35.7456 19.826 35.9454 20.067 35.9454C20.0709 35.9454 20.0752 35.9454 20.0795 35.9454H20.5872V36.9723H20.1715C20.1615 36.9715 20.1515 36.9715 20.1414 36.9715C19.86 36.9715 19.6259 37.2007 19.6177 37.4852V38.9789L23.7705 37.8124L27.9234 38.9789V37.4852C27.9145 37.2007 27.6807 36.9715 27.3993 36.9715C27.39 36.9715 27.3803 36.9719 27.371 36.9723ZM21.7861 36.8792C21.7854 36.8792 21.7847 36.8792 21.784 36.8792C21.5577 36.8792 21.3712 36.6914 21.3705 36.4623V36.4594C21.3662 36.2187 21.5488 36.0134 21.7861 35.9924C22.0389 35.9928 22.2472 36.2035 22.2472 36.4594C22.2422 36.6921 22.0514 36.881 21.8212 36.881C21.8094 36.881 21.7976 36.8803 21.7861 36.8792ZM23.7713 36.8792C23.5432 36.8789 23.3556 36.6899 23.3549 36.4597C23.3531 36.4449 23.3524 36.4301 23.3524 36.4152C23.3524 36.1836 23.5411 35.9928 23.7702 35.9928C23.9993 35.9928 24.188 36.1836 24.188 36.4152C24.188 36.4301 24.1873 36.4449 24.1858 36.4597C24.1858 36.6896 23.9993 36.8789 23.7723 36.8796L23.7713 36.8792ZM25.7091 36.8792C25.7084 36.8792 25.7077 36.8792 25.707 36.8792C25.4807 36.8792 25.2942 36.6914 25.2931 36.4623L25.2935 36.4594C25.2892 36.2187 25.4718 36.0134 25.7091 35.9924C25.9619 35.9932 26.1699 36.2035 26.171 36.4594C26.1656 36.6921 25.9748 36.881 25.7446 36.881C25.7331 36.881 25.7217 36.8807 25.7106 36.8796L25.7091 36.8792Z" fill="white"/>
<path fill-rule="evenodd" clip-rule="evenodd" d="M30.9251 46.9329V46.9358C30.9244 47.1653 30.7372 47.3535 30.5102 47.3528H16.9862C16.8884 47.3495 16.7968 47.3054 16.7323 47.2308C16.6582 47.1497 16.6171 47.0433 16.6167 46.9329C16.6299 46.7338 16.7885 46.5731 16.9858 46.5597H20.0321L17.8167 40.2135L23.7704 38.5341L28.8845 39.9765C28.3507 40.2114 27.8717 40.5567 27.4782 40.9899C26.5657 40.5556 25.4476 40.4832 24.3826 40.4832C23.6179 40.4817 22.8546 40.5502 22.1021 40.6866L22.1264 40.7072C22.2016 40.9722 23.4976 45.5213 27.3121 45.5213C27.5094 45.5242 27.7063 45.4999 27.8971 45.4489L27.509 46.5619H30.5098C30.6187 46.5623 30.7236 46.6039 30.8037 46.6784C30.8768 46.7429 30.9208 46.8352 30.9251 46.9329Z" fill="white"/>
<path d="M28.1629 44.8294C28.1541 44.8325 28.145 44.8347 28.1362 44.8368L28.1401 44.8262C28.1475 44.8276 28.1552 44.8286 28.1629 44.8294Z" fill="white"/>
<path d="M26.6698 42.5523C25.8457 42.0687 24.9313 41.7622 23.9847 41.6521C24.8411 41.8096 25.6591 42.1335 26.3938 42.6059C26.4697 42.6504 26.5448 42.6956 26.6186 42.7441C27.2677 43.155 27.8476 43.6675 28.337 44.2625C28.4433 44.3918 28.5454 44.5242 28.6424 44.6607C28.4867 44.7273 28.3274 44.7838 28.1645 44.8297C28.1566 44.8294 28.1487 44.8283 28.1408 44.8268L28.1369 44.8377C27.8061 44.93 27.4646 44.9785 27.1212 44.9825C24.2672 44.9825 22.9036 41.3665 22.8474 41.1725L22.8291 41.1573C23.3926 41.0574 23.9633 41.0075 24.5354 41.0082C25.4297 40.9829 26.3189 41.1537 27.142 41.5088C27.8813 41.8371 28.4462 42.4719 28.6918 43.2498C28.7985 43.6009 28.854 43.9657 28.8565 44.3328C28.8565 44.3827 28.8565 44.4348 28.8525 44.487C28.7219 44.3118 28.583 44.1427 28.4362 43.9802C27.9242 43.4145 27.3285 42.9327 26.6698 42.5523Z" fill="white"/>
<path d="M28.1629 44.8294C28.1541 44.8325 28.145 44.8347 28.1362 44.8368L28.1401 44.8262C28.1475 44.8276 28.1552 44.8286 28.1629 44.8294Z" fill="white"/>
<path d="M33.3081 40.1689L33.2906 40.1841C33.2372 40.3709 31.9914 43.7045 29.3736 43.9872C29.2952 43.9963 29.2165 44.0017 29.1359 44.0049C29.0987 43.4483 28.9297 42.9089 28.6429 42.4322C28.7045 42.3783 28.7661 42.3255 28.8291 42.2748C28.9197 42.1995 29.012 42.1264 29.1066 42.0576C29.3124 41.9038 29.5261 41.7608 29.747 41.6298C30.4806 41.1556 31.2979 40.8295 32.1539 40.6692C31.1114 40.7984 30.11 41.1596 29.2222 41.7268C29.0461 41.839 28.8746 41.9595 28.7077 42.0888C28.6426 42.1387 28.5785 42.1901 28.5148 42.2429C28.3157 41.9726 28.0748 41.7369 27.8013 41.5447C27.85 41.4723 27.9008 41.4036 27.9556 41.3373C28.4113 40.8136 29.0138 40.4422 29.6833 40.2728C30.8719 39.9887 32.1056 39.9532 33.3081 40.1689Z" fill="white"/>
<path d="M36.8008 47.2795V32.381H47.7278V34.9013H39.7765V38.2041H47.1754V40.7143H39.7765V44.7682H48.0107V47.2784L36.8008 47.2795Z" fill="white"/>
<path d="M50.8081 42.4318L53.7033 42.1473C53.7971 42.9711 54.1723 43.737 54.7637 44.3118C55.3755 44.799 56.1424 45.0448 56.92 45.0028C57.8784 45.0028 58.6005 44.7975 59.0863 44.3874C59.5366 44.0487 59.8062 43.5166 59.8152 42.9494C59.8238 42.6222 59.7146 42.3026 59.5084 42.0499C59.2126 41.7452 58.8439 41.5229 58.4379 41.4046C58.0896 41.2826 57.2952 41.0654 56.0554 40.753C54.4605 40.3534 53.3414 39.8623 52.698 39.2795C51.8274 38.5346 51.3294 37.4346 51.3408 36.2814C51.3405 35.5235 51.5628 34.7826 51.9791 34.1524C52.4274 33.473 53.0689 32.9467 53.8186 32.6434C54.7408 32.2753 55.7271 32.099 56.7184 32.1251C58.5682 32.1251 59.9605 32.5352 60.8953 33.3557C61.8329 34.1821 62.371 35.3809 62.3681 36.6383L59.3924 36.7704C59.3326 36.1359 59.0401 35.5467 58.5729 35.1188C58.0176 34.7438 57.3539 34.5665 56.688 34.6157C55.972 34.5741 55.261 34.7627 54.6574 35.1543C54.3549 35.361 54.1766 35.7099 54.1848 36.0791C54.1855 36.4334 54.3488 36.7683 54.627 36.984C55.0021 37.3025 55.9136 37.6344 57.3614 37.9801C58.4698 38.2088 59.5477 38.5686 60.5731 39.0522C61.2418 39.3982 61.8046 39.9216 62.2016 40.5663C63.025 42.0572 62.9807 43.8894 62.086 45.3376C61.6106 46.0879 60.9142 46.6692 60.0955 46.999C59.072 47.3906 57.9822 47.5752 56.8885 47.5419C55.0254 47.5419 53.5945 47.1065 52.596 46.236C51.5975 45.3654 51.0014 44.0972 50.8081 42.4318Z" fill="white"/>
<path d="M69.2087 32.381H66.2329V47.2795H69.2087V32.381Z" fill="white"/>
<path d="M16 53.726V51.5271H17.6128V51.8992H16.4389V52.3867H17.5308V52.7574H16.4389V53.3561H17.654V53.7267L16 53.726Z" fill="white"/>
<path d="M18.4565 53.726V51.5271H18.884L19.7744 52.9956V51.5271H20.1825V53.726H19.7414L18.8647 52.2919V53.726H18.4565Z" fill="white"/>
<path d="M21.6272 53.726L20.8496 51.5271H21.3261L21.8767 53.1559L22.4094 51.5271H22.8748L22.0958 53.726H21.6272Z" fill="white"/>
<path d="M23.9495 51.5271H23.5103V53.726H23.9495V51.5271Z" fill="white"/>
<path d="M24.7954 53.726V51.5271H25.7198C25.8905 51.5191 26.0617 51.539 26.2264 51.5865C26.3316 51.6259 26.4208 51.7001 26.4795 51.7971C26.5436 51.901 26.5765 52.0212 26.5743 52.1435C26.5801 52.293 26.5285 52.4396 26.4311 52.5522C26.3162 52.6691 26.1641 52.7407 26.0015 52.7552C26.0885 52.8048 26.1676 52.8671 26.2367 52.9398C26.3305 53.0513 26.4143 53.1707 26.4873 53.2967L26.753 53.7256H26.2278L25.9102 53.2471C25.8401 53.1345 25.7627 53.0263 25.6786 52.9239C25.6425 52.883 25.5973 52.8515 25.5465 52.8323C25.4745 52.8128 25.3997 52.8044 25.3253 52.8077H25.2361V53.7256L24.7954 53.726ZM25.2347 52.457H25.5598C25.6915 52.4635 25.824 52.4544 25.9536 52.4298C26.0037 52.4135 26.047 52.381 26.0767 52.3368C26.1079 52.2876 26.1233 52.23 26.1211 52.1717C26.1247 52.1062 26.1036 52.0414 26.0624 51.9908C26.0191 51.943 25.9604 51.9126 25.897 51.9046C25.8616 51.8996 25.7541 51.897 25.5748 51.897H25.2322L25.2347 52.457Z" fill="white"/>
<path d="M27.3251 52.6398C27.3194 52.4469 27.3534 52.255 27.4246 52.0759C27.474 51.964 27.5428 51.862 27.6272 51.7744C27.7067 51.6897 27.8023 51.6223 27.9083 51.5764C28.0572 51.5159 28.2169 51.4862 28.3773 51.4895C28.664 51.4761 28.9436 51.5858 29.1466 51.791C29.5293 52.2786 29.53 52.9742 29.1488 53.4629C28.9472 53.6678 28.6687 53.7771 28.383 53.7637C28.0959 53.7778 27.8156 53.6692 27.6115 53.4643C27.411 53.2392 27.3079 52.942 27.3251 52.6398ZM27.7776 52.625C27.7633 52.8284 27.8242 53.0303 27.9484 53.1911C28.0594 53.3134 28.2162 53.3829 28.3805 53.3829C28.5448 53.3829 28.7016 53.3134 28.8126 53.1911C28.9365 53.0271 28.9963 52.8229 28.9809 52.6174C28.9963 52.4154 28.9379 52.2149 28.8169 52.0534C28.7023 51.9347 28.5452 51.8677 28.3812 51.8677C28.2165 51.8677 28.0583 51.9358 27.9437 52.0556C27.8209 52.2181 27.7619 52.4212 27.7776 52.625Z" fill="white"/>
<path d="M30.2075 53.726V51.5271H30.635L31.5253 52.9956V51.5271H31.9335V53.726H31.4928L30.6156 52.2926V53.7267L30.2075 53.726Z" fill="white"/>
<path d="M32.8174 53.726V51.5271H33.4747L33.8685 53.027L34.2587 51.5271H34.9174V53.726H34.5093V51.9951L34.0776 53.726H33.6548L33.2252 51.9951V53.726H32.8174Z" fill="white"/>
<path d="M35.7803 53.726V51.5271H37.3913V51.8992H36.2178V52.3867H37.3097V52.7574H36.2178V53.3561H37.4328V53.7267L35.7803 53.726Z" fill="white"/>
<path d="M38.2363 53.726V51.5271H38.6638L39.5541 52.9956V51.5271H39.9623V53.726H39.5216L38.6445 52.2919V53.726H38.2363Z" fill="white"/>
<path d="M41.3417 53.726V51.8988H40.6973V51.5267H42.4257V51.8988H41.7813V53.726H41.3417Z" fill="white"/>
<path d="M44.8702 53.726H44.3922L44.2025 53.2265H43.3329L43.1539 53.726H42.6885L43.5355 51.5271H44.0009L44.8702 53.726ZM44.0614 52.8573L43.7618 52.0414L43.4682 52.8573H44.0614Z" fill="white"/>
<path d="M45.5405 53.7261V51.5449H45.9798V53.3547H47.0717V53.7253L45.5405 53.7261Z" fill="white"/>
<path d="M48.9131 53.0107L49.3405 52.9687C49.3545 53.0903 49.4096 53.2033 49.497 53.2883C49.5872 53.3604 49.7003 53.3966 49.8153 53.3904C49.9291 53.3987 50.0422 53.3665 50.135 53.2996C50.2012 53.2496 50.2409 53.1711 50.2424 53.0874C50.2438 53.0393 50.2277 52.9919 50.1973 52.9546C50.1536 52.9097 50.0988 52.8768 50.039 52.8594C49.9875 52.8417 49.8704 52.8095 49.6875 52.7635C49.5081 52.7302 49.3384 52.656 49.192 52.5463C49.0634 52.4363 48.9897 52.2738 48.9915 52.1036C48.9915 51.9918 49.0241 51.8825 49.0856 51.7895C49.1519 51.6892 49.2464 51.6117 49.357 51.5669C49.4938 51.5122 49.6398 51.4865 49.7866 51.4905C50.0068 51.4738 50.2259 51.5383 50.4031 51.6715C50.5417 51.7935 50.6208 51.9704 50.6204 52.1561L50.1811 52.1757C50.1722 52.0819 50.1289 51.9951 50.0601 51.9321C49.9782 51.8767 49.8804 51.8506 49.782 51.8579C49.6764 51.8517 49.5715 51.8796 49.4823 51.9375C49.4376 51.9679 49.4111 52.0193 49.4125 52.074C49.4125 52.1261 49.4365 52.1757 49.4777 52.2075C49.6019 52.2817 49.739 52.3313 49.8815 52.3545C50.0451 52.3881 50.2041 52.4414 50.3555 52.5127C50.4543 52.5637 50.5374 52.6412 50.5957 52.7363C50.7174 52.9564 50.7106 53.2268 50.5785 53.4407C50.5084 53.5515 50.4056 53.6373 50.2846 53.6861C50.1335 53.744 49.9728 53.7712 49.8113 53.7665C49.584 53.7817 49.3588 53.7133 49.1777 53.5736C49.0212 53.4273 48.9263 53.2257 48.9131 53.0107Z" fill="white"/>
<path d="M51.4785 53.726V51.5271H51.9178V52.3925H52.777V51.5271H53.2184V53.726H52.7792V52.7632H51.9199V53.7249L51.4785 53.726Z" fill="white"/>
<path d="M54.5228 51.5271H54.0835V53.726H54.5228V51.5271Z" fill="white"/>
<path d="M55.3667 53.7259V51.527H56.0716C56.2463 51.5198 56.4214 51.531 56.5939 51.56C56.7196 51.5936 56.8302 51.6696 56.9072 51.7753C56.9956 51.8999 57.04 52.0504 57.0332 52.2035C57.0375 52.3212 57.0128 52.4384 56.9616 52.5441C56.9183 52.6306 56.8549 52.7048 56.7769 52.7613C56.7085 52.8109 56.6312 52.8464 56.5492 52.8656C56.3988 52.8902 56.2463 52.9007 56.0938 52.897H55.8074V53.7266L55.3667 53.7259ZM55.806 51.8988V52.5228H56.0462C56.1633 52.5289 56.2803 52.5166 56.3935 52.4866C56.449 52.4656 56.4969 52.4276 56.5306 52.378C56.5642 52.3277 56.5814 52.268 56.5803 52.2072C56.5828 52.1344 56.5581 52.0638 56.5105 52.0092C56.4643 51.9574 56.4021 51.923 56.334 51.9118C56.2291 51.8988 56.1235 51.8941 56.0179 51.897L55.806 51.8988Z" fill="white"/>
<path d="M59.4593 51.5271H59.02V53.726H59.4593V51.5271Z" fill="white"/>
<path d="M60.3076 53.726V51.5271H60.7351L61.6254 52.9956V51.5271H62.0336V53.726H61.5929L60.7147 52.2926V53.7267L60.3076 53.726Z" fill="white"/>
<path d="M62.9219 51.5271H63.7245C63.8638 51.5224 64.0031 51.5365 64.1384 51.5691C64.2637 51.6057 64.3768 51.6759 64.4663 51.7718C64.5605 51.8739 64.631 51.9955 64.674 52.128C64.7255 52.2963 64.7499 52.4718 64.7456 52.6477C64.7488 52.8063 64.7262 52.9645 64.6786 53.1158C64.6324 53.262 64.5526 53.3952 64.4456 53.5041C64.3575 53.5859 64.2519 53.646 64.1369 53.6797C64.0102 53.7144 63.8792 53.73 63.7482 53.726H62.9219V51.5271ZM63.3611 51.8992V53.3557H63.6891C63.7782 53.3586 63.8674 53.3518 63.9547 53.3347C64.021 53.3199 64.0825 53.2884 64.1337 53.2432C64.1899 53.1838 64.2297 53.1107 64.2486 53.0311C64.2823 52.8997 64.2973 52.7639 64.293 52.6282C64.2977 52.4961 64.283 52.364 64.2486 52.2366C64.2254 52.1562 64.1824 52.0831 64.1241 52.0237C64.0671 51.9709 63.9966 51.9351 63.9207 51.9202C63.8015 51.9021 63.6808 51.8952 63.5602 51.8992H63.3611Z" fill="white"/>
<path d="M65.5435 53.726V51.5271H67.1563V51.8992H65.9809V52.3867H67.0732V52.7574H65.9809V53.3561H67.1982V53.7267L65.5435 53.726Z" fill="white"/>
<path d="M67.7744 53.726L68.5176 52.5786L67.8439 51.5271H68.3572L68.7933 52.2336L69.2208 51.5271H69.7298L69.0532 52.5952L69.7964 53.7263H69.2666L68.7843 52.9662L68.3007 53.7263L67.7744 53.726Z" fill="white"/>
</g>
<defs>
<clipPath id="clip0_2052_5395">
<rect width="54" height="21.7554" fill="white" transform="translate(16 32.1223)"/>
</clipPath>
</defs>
</svg>
