<svg width="83" height="83" viewBox="0 0 83 83" fill="none" xmlns="http://www.w3.org/2000/svg">
<rect width="83" height="83" rx="12" fill="white"/>
<g clip-path="url(#clip0_2053_12301)">
<path fill-rule="evenodd" clip-rule="evenodd" d="M21.6362 31.7087H25.0394C25.0401 31.7087 25.0404 31.7087 25.0411 31.7087C25.2548 31.7087 25.4306 31.8858 25.4316 32.1019V33.2949H21.2471V32.1053C21.2471 32.1046 21.2471 32.1043 21.2471 32.1036C21.2471 31.8875 21.4226 31.7094 21.6362 31.7087Z" fill="#98A1AE"/>
<path fill-rule="evenodd" clip-rule="evenodd" d="M26.7395 35.8073H26.3469V34.8374H26.827C26.8308 34.8374 26.8348 34.8374 26.8385 34.8374C27.0661 34.8374 27.2527 34.6487 27.2527 34.419C27.2527 34.1889 27.0661 34.0002 26.8385 34.0002C26.8348 34.0002 26.8308 34.0002 26.827 34.0002H19.853C19.849 34.0002 19.8449 34.0002 19.8412 34.0002C19.6137 34.0002 19.427 34.1889 19.427 34.419C19.427 34.6487 19.6137 34.8374 19.8412 34.8374C19.8449 34.8374 19.849 34.8374 19.853 34.8374H20.3325V35.8073H19.9399C19.9305 35.8066 19.921 35.8066 19.9115 35.8066C19.6458 35.8066 19.4246 36.023 19.4169 36.2917V37.7025L23.339 36.6007L27.2612 37.7025V36.2917C27.2527 36.023 27.0319 35.8066 26.7662 35.8066C26.7574 35.8066 26.7483 35.8069 26.7395 35.8073ZM21.4648 35.7194C21.4642 35.7194 21.4635 35.7194 21.4628 35.7194C21.2491 35.7194 21.073 35.542 21.0723 35.3256V35.3229C21.0682 35.0955 21.2407 34.9017 21.4648 34.8819C21.7036 34.8822 21.9003 35.0812 21.9003 35.3229C21.8956 35.5427 21.7154 35.7211 21.498 35.7211C21.4868 35.7211 21.4757 35.7204 21.4648 35.7194ZM23.3397 35.7194C23.1243 35.7191 22.9471 35.5406 22.9465 35.3232C22.9448 35.3092 22.9441 35.2952 22.9441 35.2811C22.9441 35.0624 23.1223 34.8822 23.3387 34.8822C23.5551 34.8822 23.7333 35.0624 23.7333 35.2811C23.7333 35.2952 23.7326 35.3092 23.7312 35.3232C23.7312 35.5403 23.5551 35.7191 23.3407 35.7197L23.3397 35.7194ZM25.1699 35.7194C25.1692 35.7194 25.1686 35.7194 25.1679 35.7194C24.9542 35.7194 24.778 35.542 24.777 35.3256L24.7774 35.3229C24.7733 35.0955 24.9458 34.9017 25.1699 34.8819C25.4086 34.8826 25.6051 35.0812 25.6061 35.3229C25.601 35.5427 25.4208 35.7211 25.2034 35.7211C25.1926 35.7211 25.1818 35.7208 25.1713 35.7197L25.1699 35.7194Z" fill="#98A1AE"/>
<path fill-rule="evenodd" clip-rule="evenodd" d="M30.0959 45.2145V45.2172C30.0952 45.4339 29.9184 45.6117 29.704 45.611H16.9313C16.839 45.6079 16.7525 45.5662 16.6916 45.4958C16.6216 45.4192 16.5827 45.3187 16.5824 45.2145C16.5949 45.0264 16.7447 44.8747 16.931 44.862H19.808L17.7158 38.8684L23.3386 37.2822L28.1686 38.6445C27.6645 38.8663 27.2121 39.1925 26.8405 39.6017C25.9787 39.1914 24.9227 39.1231 23.9168 39.1231C23.1946 39.1217 22.4737 39.1863 21.763 39.3152L21.786 39.3347C21.857 39.5849 23.081 43.8813 26.6836 43.8813C26.8699 43.884 27.0559 43.8611 27.2361 43.8129L26.8696 44.8641H29.7037C29.8065 44.8644 29.9055 44.9037 29.9813 44.9741C30.0503 45.035 30.0918 45.1222 30.0959 45.2145Z" fill="#98A1AE"/>
<path d="M27.4874 43.2279C27.4791 43.2309 27.4705 43.2329 27.4622 43.2349L27.4658 43.2249C27.4728 43.2262 27.4801 43.2272 27.4874 43.2279Z" fill="#98A1AE"/>
<path d="M26.0771 41.0773C25.2988 40.6206 24.4352 40.3311 23.5413 40.2272C24.35 40.3759 25.1226 40.6818 25.8165 41.1279C25.8881 41.17 25.9591 41.2127 26.0288 41.2585C26.6418 41.6465 27.1895 42.1306 27.6518 42.6926C27.7522 42.8146 27.8485 42.9397 27.9402 43.0686C27.7931 43.1315 27.6426 43.1848 27.4888 43.2283C27.4813 43.2279 27.4739 43.2269 27.4665 43.2255L27.4627 43.2358C27.1503 43.3229 26.8278 43.3687 26.5035 43.3725C23.808 43.3725 22.5202 39.9574 22.4671 39.7742L22.4498 39.7599C22.982 39.6655 23.521 39.6183 24.0613 39.619C24.9059 39.5951 25.7458 39.7564 26.5231 40.0918C27.2213 40.4019 27.7549 41.0015 27.9868 41.7361C28.0876 42.0677 28.14 42.4123 28.1424 42.7589C28.1424 42.8061 28.1424 42.8553 28.1386 42.9045C28.0152 42.7391 27.884 42.5794 27.7454 42.4259C27.2619 41.8916 26.6993 41.4366 26.0771 41.0773Z" fill="#98A1AE"/>
<path d="M27.4874 43.2279C27.4791 43.2309 27.4705 43.2329 27.4622 43.2349L27.4658 43.2249C27.4728 43.2262 27.4801 43.2272 27.4874 43.2279Z" fill="#98A1AE"/>
<path d="M32.3469 38.8262L32.3303 38.8406C32.28 39.017 31.1033 42.1654 28.631 42.4324C28.557 42.4409 28.4826 42.4461 28.4065 42.4491C28.3713 41.9234 28.2117 41.414 27.9409 40.9638C27.9991 40.9129 28.0572 40.863 28.1167 40.8151C28.2023 40.744 28.2895 40.675 28.3788 40.61C28.5732 40.4647 28.775 40.3297 28.9837 40.2059C29.6765 39.7581 30.4484 39.4501 31.2568 39.2987C30.2722 39.4207 29.3265 39.7619 28.488 40.2976C28.3216 40.4035 28.1597 40.5174 28.0021 40.6394C27.9406 40.6866 27.88 40.7351 27.8199 40.785C27.6319 40.5297 27.4043 40.3071 27.146 40.1256C27.192 40.0572 27.24 39.9923 27.2917 39.9297C27.7221 39.4351 28.2912 39.0843 28.9235 38.9244C30.046 38.656 31.2112 38.6225 32.3469 38.8262Z" fill="#98A1AE"/>
<path d="M35.645 45.5415V31.4707H45.965V33.851H38.4554V36.9704H45.4433V39.3411H38.4554V43.1698H46.2321V45.5405L35.645 45.5415Z" fill="#98A1AE"/>
<path d="M48.8743 40.9631L51.6086 40.6944C51.6972 41.4724 52.0515 42.1958 52.6101 42.7386C53.188 43.1987 53.9122 43.4309 54.6466 43.3912C55.5517 43.3912 56.2337 43.1974 56.6925 42.8101C57.1179 42.4901 57.3725 41.9876 57.3809 41.4519C57.3891 41.1429 57.2859 40.841 57.0912 40.6024C56.8119 40.3146 56.4636 40.1047 56.0802 39.9929C55.7512 39.8777 55.0009 39.6726 53.83 39.3776C52.3237 39.0002 51.2668 38.5363 50.6592 37.9859C49.8369 37.2824 49.3666 36.2435 49.3774 35.1544C49.377 34.4386 49.587 33.7388 49.9802 33.1436C50.4036 32.502 51.0095 32.0049 51.7175 31.7185C52.5885 31.3708 53.52 31.2043 54.4562 31.2289C56.2033 31.2289 57.5182 31.6163 58.401 32.3912C59.2866 33.1717 59.7948 34.3039 59.7921 35.4914L56.9816 35.6162C56.9252 35.017 56.6489 34.4604 56.2077 34.0564C55.6833 33.7022 55.0564 33.5347 54.4275 33.5812C53.7513 33.5419 53.0798 33.72 52.5097 34.0899C52.224 34.2851 52.0556 34.6146 52.0634 34.9633C52.0641 35.298 52.2182 35.6142 52.481 35.8179C52.8353 36.1187 53.6961 36.4322 55.0635 36.7587C56.1103 36.9747 57.1284 37.3145 58.0967 37.7712C58.7283 38.098 59.2599 38.5923 59.6348 39.2012C60.4125 40.6092 60.3706 42.3397 59.5256 43.7074C59.0766 44.4161 58.419 44.9651 57.6457 45.2765C56.679 45.6464 55.6498 45.8207 54.6168 45.7893C52.8573 45.7893 51.5058 45.378 50.5628 44.5559C49.6198 43.7337 49.0569 42.5359 48.8743 40.9631Z" fill="#98A1AE"/>
<path d="M66.2523 31.4707H63.4419V45.5415H66.2523V31.4707Z" fill="#98A1AE"/>
<path d="M16 51.6299V49.5532H17.5232V49.9046H16.4145V50.3651H17.4458V50.7152H16.4145V51.2806H17.5621V51.6306L16 51.6299Z" fill="#98A1AE"/>
<path d="M18.3199 51.6299V49.5532H18.7237L19.5646 50.9401V49.5532H19.95V51.6299H19.5334L18.7054 50.2755V51.6299H18.3199Z" fill="#98A1AE"/>
<path d="M21.3143 51.6299L20.58 49.5532H21.03L21.55 51.0915L22.0531 49.5532H22.4927L21.7569 51.6299H21.3143Z" fill="#98A1AE"/>
<path d="M23.5079 49.5532H23.093V51.6299H23.5079V49.5532Z" fill="#98A1AE"/>
<path d="M24.3068 51.6301V49.5534H25.1798C25.3411 49.5458 25.5027 49.5647 25.6582 49.6094C25.7576 49.6467 25.8418 49.7168 25.8973 49.8084C25.9578 49.9065 25.9889 50.02 25.9869 50.1355C25.9923 50.2767 25.9436 50.4152 25.8516 50.5215C25.7431 50.6319 25.5994 50.6996 25.4459 50.7133C25.528 50.7601 25.6028 50.8189 25.668 50.8876C25.7566 50.9929 25.8357 51.1057 25.9047 51.2247L26.1556 51.6298H25.6596L25.3597 51.1778C25.2934 51.0715 25.2204 50.9693 25.1409 50.8726C25.1067 50.8339 25.0641 50.8042 25.0161 50.7861C24.9482 50.7676 24.8775 50.7598 24.8072 50.7628H24.723V51.6298L24.3068 51.6301ZM24.7216 50.4316H25.0286C25.1531 50.4377 25.2782 50.4292 25.4006 50.4059C25.4479 50.3906 25.4888 50.3598 25.5169 50.3181C25.5463 50.2716 25.5608 50.2172 25.5588 50.1622C25.5622 50.1003 25.5422 50.0391 25.5034 49.9913C25.4624 49.9462 25.407 49.9174 25.3471 49.9099C25.3137 49.9051 25.2122 49.9027 25.0428 49.9027H24.7193L24.7216 50.4316Z" fill="#98A1AE"/>
<path d="M26.6957 50.6043C26.6903 50.4221 26.7224 50.2409 26.7897 50.0717C26.8364 49.966 26.9013 49.8696 26.9811 49.7869C27.0561 49.7069 27.1464 49.6433 27.2465 49.5999C27.3872 49.5428 27.538 49.5148 27.6894 49.5179C27.9603 49.5052 28.2243 49.6088 28.4161 49.8026C28.7775 50.2631 28.7782 50.9201 28.4181 51.3816C28.2277 51.5751 27.9647 51.6784 27.6949 51.6657C27.4237 51.679 27.1589 51.5765 26.9662 51.383C26.7769 51.1704 26.6795 50.8897 26.6957 50.6043ZM27.1231 50.5903C27.1096 50.7824 27.1671 50.9731 27.2844 51.1249C27.3892 51.2405 27.5373 51.3061 27.6925 51.3061C27.8477 51.3061 27.9958 51.2405 28.1006 51.1249C28.2176 50.9701 28.274 50.7772 28.2595 50.5831C28.274 50.3923 28.2189 50.2029 28.1046 50.0505C27.9965 49.9384 27.848 49.8751 27.6932 49.8751C27.5376 49.8751 27.3882 49.9394 27.28 50.0525C27.164 50.206 27.1082 50.3978 27.1231 50.5903Z" fill="#98A1AE"/>
<path d="M29.4182 51.6299V49.5532H29.8219L30.6628 50.9401V49.5532H31.0483V51.6299H30.6321L29.8037 50.2762V51.6306L29.4182 51.6299Z" fill="#98A1AE"/>
<path d="M31.8832 51.6299V49.5532H32.504L32.8759 50.9698L33.2444 49.5532H33.8666V51.6299H33.4811V49.9952L33.0733 51.6299H32.674L32.2683 49.9952V51.6299H31.8832Z" fill="#98A1AE"/>
<path d="M34.6815 51.6299V49.5532H36.203V49.9046H35.0947V50.3651H36.126V50.7152H35.0947V51.2806H36.2423V51.6306L34.6815 51.6299Z" fill="#98A1AE"/>
<path d="M37.001 51.6299V49.5532H37.4047L38.2456 50.9401V49.5532H38.631V51.6299H38.2148L37.3864 50.2755V51.6299H37.001Z" fill="#98A1AE"/>
<path d="M39.9341 51.63V49.9044H39.3254V49.553H40.9579V49.9044H40.3493V51.63H39.9341Z" fill="#98A1AE"/>
<path d="M43.2663 51.6299H42.8149L42.6357 51.1582H41.8144L41.6454 51.6299H41.2058L42.0058 49.5532H42.4453L43.2663 51.6299ZM42.5025 50.8095L42.2195 50.039L41.9422 50.8095H42.5025Z" fill="#98A1AE"/>
<path d="M43.8992 51.63V49.5701H44.314V51.2793H45.3453V51.6294L43.8992 51.63Z" fill="#98A1AE"/>
<path d="M47.0847 50.9546L47.4884 50.9149C47.5016 51.0298 47.5537 51.1364 47.6362 51.2168C47.7214 51.2848 47.8282 51.319 47.9368 51.3132C48.0443 51.321 48.1511 51.2906 48.2387 51.2273C48.3013 51.1802 48.3388 51.106 48.3401 51.027C48.3415 50.9816 48.3263 50.9368 48.2975 50.9016C48.2563 50.8592 48.2046 50.8281 48.1481 50.8117C48.0994 50.7949 47.9888 50.7645 47.8161 50.7211C47.6467 50.6896 47.4864 50.6195 47.3481 50.516C47.2267 50.412 47.1571 50.2586 47.1588 50.0979C47.1588 49.9923 47.1895 49.889 47.2477 49.8012C47.3102 49.7065 47.3995 49.6333 47.504 49.5909C47.6331 49.5393 47.7711 49.515 47.9097 49.5188C48.1177 49.5031 48.3246 49.5639 48.492 49.6897C48.6228 49.8049 48.6975 49.9721 48.6972 50.1475L48.2823 50.1659C48.2739 50.0774 48.233 49.9953 48.168 49.9358C48.0906 49.8835 47.9983 49.8589 47.9053 49.8658C47.8056 49.86 47.7065 49.8863 47.6223 49.941C47.5801 49.9697 47.555 50.0182 47.5564 50.0699C47.5564 50.1191 47.579 50.1659 47.6179 50.196C47.7353 50.2661 47.8648 50.3129 47.9993 50.3348C48.1538 50.3666 48.304 50.4168 48.447 50.4842C48.5403 50.5324 48.6188 50.6055 48.6739 50.6954C48.7888 50.9033 48.7824 51.1586 48.6576 51.3607C48.5914 51.4653 48.4943 51.5463 48.38 51.5924C48.2374 51.6471 48.0855 51.6728 47.9331 51.6683C47.7183 51.6827 47.5057 51.6181 47.3346 51.4861C47.1868 51.348 47.0972 51.1576 47.0847 50.9546Z" fill="#98A1AE"/>
<path d="M49.5073 51.6299V49.5532H49.9222V50.3706H50.7337V49.5532H51.1506V51.6299H50.7357V50.7206H49.9242V51.6289L49.5073 51.6299Z" fill="#98A1AE"/>
<path d="M52.3824 49.5532H51.9675V51.6299H52.3824V49.5532Z" fill="#98A1AE"/>
<path d="M53.1794 51.63V49.5533H53.8452C54.0102 49.5464 54.1755 49.557 54.3385 49.5844C54.4572 49.6162 54.5617 49.688 54.6344 49.7878C54.7179 49.9054 54.7598 50.0476 54.7534 50.1922C54.7574 50.3033 54.7341 50.4141 54.6858 50.5139C54.6448 50.5956 54.585 50.6657 54.5113 50.719C54.4467 50.7658 54.3737 50.7993 54.2962 50.8174C54.1542 50.8407 54.0102 50.8506 53.8662 50.8472H53.5957V51.6307L53.1794 51.63ZM53.5943 49.9044V50.4937H53.8212C53.9318 50.4995 54.0423 50.4879 54.1492 50.4595C54.2016 50.4397 54.2469 50.4038 54.2787 50.357C54.3104 50.3095 54.3267 50.253 54.3257 50.1956C54.328 50.1269 54.3047 50.0602 54.2597 50.0086C54.2161 49.9597 54.1573 49.9273 54.093 49.9167C53.994 49.9044 53.8942 49.8999 53.7945 49.9027L53.5943 49.9044Z" fill="#98A1AE"/>
<path d="M57.045 49.5532H56.6301V51.6299H57.045V49.5532Z" fill="#98A1AE"/>
<path d="M57.8459 51.6299V49.5532H58.2497L59.0906 50.9401V49.5532H59.476V51.6299H59.0598L58.2304 50.2762V51.6306L57.8459 51.6299Z" fill="#98A1AE"/>
<path d="M60.3151 49.5533H61.0731C61.2046 49.5489 61.3362 49.5622 61.464 49.593C61.5823 49.6275 61.6892 49.6938 61.7737 49.7844C61.8626 49.8808 61.9292 49.9957 61.9698 50.1208C62.0185 50.2798 62.0415 50.4455 62.0374 50.6117C62.0405 50.7614 62.0192 50.9108 61.9742 51.0537C61.9306 51.1918 61.8552 51.3176 61.7541 51.4205C61.6709 51.4978 61.5712 51.5545 61.4626 51.5863C61.3429 51.6191 61.2192 51.6338 61.0954 51.6301H60.3151V49.5533ZM60.7299 49.9047V51.2803H61.0396C61.1238 51.2831 61.208 51.2766 61.2905 51.2605C61.3531 51.2465 61.4112 51.2168 61.4596 51.174C61.5127 51.118 61.5502 51.0489 61.5681 50.9737C61.5999 50.8496 61.6141 50.7214 61.6101 50.5932C61.6144 50.4685 61.6006 50.3437 61.5681 50.2233C61.5461 50.1475 61.5056 50.0784 61.4505 50.0223C61.3967 49.9724 61.3301 49.9386 61.2584 49.9246C61.1458 49.9075 61.0319 49.901 60.9179 49.9047H60.7299Z" fill="#98A1AE"/>
<path d="M62.7911 51.6299V49.5532H64.3144V49.9046H63.2043V50.3651H64.2359V50.7152H63.2043V51.2806H64.3539V51.6306L62.7911 51.6299Z" fill="#98A1AE"/>
<path d="M64.8982 51.6299L65.6001 50.5463L64.9638 49.5532H65.4486L65.8605 50.2205L66.2642 49.5532H66.745L66.1059 50.562L66.8079 51.6303H66.3075L65.852 50.9124L65.3952 51.6303L64.8982 51.6299Z" fill="#98A1AE"/>
</g>
<defs>
<clipPath id="clip0_2053_12301">
<rect width="51" height="20.5468" fill="white" transform="translate(16 31.2266)"/>
</clipPath>
</defs>
</svg>
