<svg width="23" height="26" viewBox="0 0 23 26" fill="none" xmlns="http://www.w3.org/2000/svg">
<path fill-rule="evenodd" clip-rule="evenodd" d="M16.9621 3.56314L19.3296 20.8305L19.5423 22.5629C19.6108 23.121 19.2139 23.6289 18.6559 23.6974L3.75107 25.5275C3.19299 25.596 2.68503 25.1992 2.6165 24.6411L0.321802 5.95227C0.28754 5.67323 0.485972 5.41925 0.765013 5.38498C0.766776 5.38477 0.768539 5.38456 0.770304 5.38436L2.00686 5.24565M3.00644 5.1335L4.17394 5.00253L3.00644 5.1335Z" fill="white"/>
<path d="M17.2773 3.51993C17.2534 3.34585 17.0929 3.22407 16.9188 3.24794C16.7448 3.27181 16.623 3.43228 16.6469 3.60636L16.9621 3.56314L17.2773 3.51993ZM19.3296 20.8305L19.6454 20.7918L19.6448 20.7873L19.3296 20.8305ZM19.5423 22.5629L19.8581 22.5241L19.5423 22.5629ZM18.6559 23.6974L18.6946 24.0132L18.6559 23.6974ZM3.75107 25.5275L3.78984 25.8433L3.75107 25.5275ZM2.6165 24.6411L2.93228 24.6023L2.6165 24.6411ZM0.321802 5.95227L0.637582 5.9135L0.321802 5.95227ZM0.770304 5.38436L0.80577 5.70053L0.770304 5.38436ZM2.04233 5.56182C2.21694 5.54223 2.34261 5.3848 2.32303 5.21019C2.30344 5.03557 2.14601 4.9099 1.97139 4.92949L2.00686 5.24565L2.04233 5.56182ZM2.97098 4.81733C2.79636 4.83691 2.67069 4.99435 2.69027 5.16896C2.70986 5.34358 2.86729 5.46925 3.04191 5.44966L3.00644 5.1335L2.97098 4.81733ZM4.20941 5.3187C4.38402 5.29911 4.5097 5.14168 4.49011 4.96707C4.47052 4.79245 4.31309 4.66678 4.13847 4.68636L4.17394 5.00253L4.20941 5.3187ZM16.9621 3.56314L16.6469 3.60636L19.0144 20.8737L19.3296 20.8305L19.6448 20.7873L17.2773 3.51993L16.9621 3.56314ZM19.3296 20.8305L19.0138 20.8693L19.2265 22.6017L19.5423 22.5629L19.8581 22.5241L19.6454 20.7918L19.3296 20.8305ZM19.5423 22.5629L19.2265 22.6017C19.2736 22.9853 19.0008 23.3346 18.6171 23.3817L18.6559 23.6974L18.6946 24.0132C19.4271 23.9233 19.948 23.2566 19.8581 22.5241L19.5423 22.5629ZM18.6559 23.6974L18.6171 23.3817L3.7123 25.2117L3.75107 25.5275L3.78984 25.8433L18.6946 24.0132L18.6559 23.6974ZM3.75107 25.5275L3.7123 25.2117C3.32862 25.2589 2.97939 24.986 2.93228 24.6023L2.6165 24.6411L2.30072 24.6799C2.39066 25.4124 3.05736 25.9332 3.78984 25.8433L3.75107 25.5275ZM2.6165 24.6411L2.93228 24.6023L0.637582 5.9135L0.321802 5.95227L0.00602262 5.99104L2.30072 24.6799L2.6165 24.6411ZM0.321802 5.95227L0.637582 5.9135C0.624734 5.80886 0.699146 5.71361 0.803786 5.70076L0.765013 5.38498L0.72624 5.06921C0.272799 5.12488 -0.0496529 5.5376 0.00602262 5.99104L0.321802 5.95227ZM0.765013 5.38498L0.803786 5.70076C0.804447 5.70068 0.805108 5.70061 0.80577 5.70053L0.770304 5.38436L0.734838 5.0682C0.73197 5.06852 0.729104 5.06885 0.72624 5.06921L0.765013 5.38498ZM0.770304 5.38436L0.80577 5.70053L2.04233 5.56182L2.00686 5.24565L1.97139 4.92949L0.734838 5.0682L0.770304 5.38436ZM3.00644 5.1335L3.04191 5.44966L4.20941 5.3187L4.17394 5.00253L4.13847 4.68636L2.97098 4.81733L3.00644 5.1335Z" fill="#D1D5DC"/>
<path fill-rule="evenodd" clip-rule="evenodd" d="M16.3175 4.64985L18.4604 20.2987L18.6532 21.8687C18.7153 22.3744 18.3605 22.8342 17.8607 22.8955L4.51312 24.5344C4.01335 24.5958 3.55786 24.2355 3.49576 23.7298L1.42141 6.83557C1.38715 6.55653 1.58558 6.30255 1.86462 6.26829L3.51585 6.06554" fill="#E5E7EB"/>
<path d="M6.01855 0.318359H17.6133C17.7988 0.318374 17.9772 0.392281 18.1084 0.523438L21.5293 3.94238C21.6606 4.07365 21.7344 4.25181 21.7344 4.4375V20.3613C21.7344 20.7478 21.4216 21.0613 21.0352 21.0615H6.01855C5.63199 21.0615 5.31836 20.7479 5.31836 20.3613V1.01855C5.31836 0.631993 5.63199 0.318359 6.01855 0.318359Z" fill="white" stroke="#D1D5DC" stroke-width="0.636302"/>
<path d="M17.7246 0.611572V3.56329C17.7246 3.985 18.0665 4.32686 18.4882 4.32686H20.5074" stroke="#D1D5DC" stroke-width="0.636302" stroke-linecap="round" stroke-linejoin="round"/>
<path d="M7.88281 17.3075H14.5004M7.88281 4.3269H14.5004H7.88281ZM7.88281 7.38115H18.8272H7.88281ZM7.88281 10.6899H18.8272H7.88281ZM7.88281 13.9987H18.8272H7.88281Z" stroke="#E5E7EB" stroke-width="0.636302" stroke-linecap="round" stroke-linejoin="round"/>
</svg>
