<svg width="165" height="25" viewBox="0 0 165 25" fill="none" xmlns="http://www.w3.org/2000/svg">
<path d="M12.7162 0C7.63125 0 3.24747 2.93769 1.21436 7.17756L1.64828 7.05751C2.07214 6.94029 2.49888 6.81035 2.95005 6.67194C4.3797 6.23411 5.85963 5.78216 7.35537 5.73696C7.44589 5.73414 7.53642 5.73273 7.62694 5.73273C9.1313 5.73273 10.7219 6.10135 12.6314 6.89227C13.2133 7.13378 13.7794 7.40636 14.3269 7.67047C15.4907 8.23117 16.5899 8.76222 17.8098 8.99808C18.5684 9.14496 19.3917 9.21699 20.3271 9.21699C21.3458 9.21699 22.3545 9.13649 23.422 9.05034C23.7582 9.0235 24.0945 8.99667 24.4307 8.97124C24.5873 8.95995 24.7468 8.95147 24.9048 8.94017C23.3473 3.77239 18.4822 0 12.7162 0Z" fill="white"/>
<path d="M23.4375 9.68166C23.1774 9.70285 22.9174 9.72403 22.6587 9.74239C21.88 9.8003 21.1041 9.84691 20.3296 9.84691C19.4474 9.84691 18.5681 9.78759 17.6887 9.61669C15.7763 9.24525 14.157 8.20717 12.3854 7.47275C10.8767 6.84849 9.27895 6.36264 7.62946 6.36264C7.54613 6.36264 7.46135 6.36264 7.37658 6.36688C5.51445 6.42337 3.60346 7.17333 1.82179 7.66483C1.51 7.75098 1.19821 7.83713 0.886413 7.92329C0.563125 8.73115 0.318864 9.57715 0.172307 10.457C0.172307 10.4585 0.172307 10.4599 0.172307 10.4613C0.172307 10.4669 0.17087 10.4726 0.169434 10.4782C1.12636 10.7494 2.15513 11.0813 3.09051 11.392C3.25718 11.4471 3.38075 11.4881 3.44685 11.5092C4.45981 11.8256 5.43973 12.2408 6.38804 12.6419C7.76596 13.2252 9.06917 13.7761 10.473 14.0585C10.9054 14.1461 11.3523 14.1899 11.802 14.1899C13.9458 14.1899 15.9832 13.2154 17.9531 12.2719C19.1457 11.7013 20.4977 11.0545 21.9561 10.6774C22.5194 10.5319 23.5754 10.3624 24.7737 10.2113C24.9145 10.1929 25.0597 10.176 25.2048 10.159C25.166 9.95707 25.1229 9.75793 25.074 9.55879C24.8743 9.5715 24.6746 9.58421 24.4778 9.59833C24.13 9.62376 23.7823 9.652 23.4361 9.67884L23.4375 9.68166Z" fill="white"/>
<path d="M23.7508 10.9867C23.2652 11.0587 22.8341 11.1321 22.4936 11.2027C22.3542 11.231 22.2263 11.2592 22.12 11.2875C20.7622 11.6378 19.4921 12.2366 18.2348 12.8382C18.0452 12.9286 17.8555 13.019 17.6644 13.1094C17.3138 13.2747 16.9618 13.4385 16.6055 13.5953C16.4129 13.68 16.2204 13.7633 16.025 13.8424C14.6657 14.4017 13.2648 14.8184 11.8021 14.8184C11.6024 14.8184 11.4013 14.8085 11.2001 14.7929C11.1398 14.7887 11.0794 14.7831 11.0191 14.7774C10.7964 14.7534 10.5722 14.7209 10.3452 14.6757C7.85803 14.1757 5.65537 12.8608 3.25299 12.1095C2.95413 12.0163 1.52448 11.5205 0.0818994 11.1081C0.0301735 11.5657 0 12.029 0 12.4993C0 13.5134 0.126441 14.4978 0.359208 15.4412C1.10349 15.2166 1.94403 15.1008 2.87366 15.1008C4.38665 15.1008 6.13527 15.3974 8.06781 15.9807C9.54918 16.4284 10.9961 17.0329 12.3941 17.6191C13.6485 18.1444 14.9459 18.6868 16.2376 19.0992C16.7448 19.2616 17.2161 19.393 17.6802 19.5017C18.6055 19.7192 19.5826 19.8294 20.5826 19.8294C21.4533 19.8294 22.3197 19.7475 23.1747 19.6048C24.5971 17.5866 25.4319 15.139 25.4319 12.4993C25.4319 11.916 25.3888 11.3426 25.3084 10.7805C25.1316 10.8016 24.9563 10.8228 24.7853 10.844C24.4218 10.8906 24.0727 10.9372 23.748 10.9852L23.7508 10.9867Z" fill="white"/>
<path d="M18.1804 20.246C17.9634 20.2065 17.7479 20.1655 17.5309 20.1147C17.028 19.996 16.5323 19.8562 16.0395 19.698C15.7809 19.6161 15.5237 19.5286 15.2679 19.4382C15.0122 19.3478 14.7564 19.2531 14.5021 19.1557C13.9934 18.9622 13.4862 18.756 12.9805 18.547C12.3066 18.2673 11.6327 17.982 10.9574 17.7052C10.4502 17.4976 9.94158 17.2956 9.43006 17.1064C8.91712 16.9171 8.40129 16.7406 7.88116 16.5824C7.60385 16.4991 7.30786 16.4171 7.00613 16.3366C5.73453 16.0019 4.27902 15.7307 2.87668 15.7307C2.06056 15.7307 1.26455 15.8254 0.533203 16.0499C0.807638 16.9581 1.1769 17.8253 1.64244 18.6359C1.67979 18.7009 1.72146 18.7631 1.76026 18.8266C1.97003 18.8139 2.17838 18.8068 2.38815 18.8068C4.98882 18.8068 7.20298 19.7517 9.54932 20.7531C11.6744 21.6598 13.8713 22.5976 16.459 22.832C17.2148 22.8899 17.9878 22.9196 18.7565 22.9196C19.0971 22.9196 19.4362 22.9125 19.7738 22.9012C19.8026 22.8829 19.8327 22.8645 19.8615 22.8447C20.9089 22.1442 21.8414 21.2912 22.6331 20.3223C21.9549 20.4099 21.2724 20.4593 20.5885 20.4593C19.7896 20.4593 18.9864 20.3901 18.1861 20.246H18.1804Z" fill="white"/>
<path d="M13.6327 22.9464C13.2893 22.8518 12.9545 22.7473 12.6226 22.6371C9.00178 21.4381 6.01748 19.4368 2.38517 19.4368C2.30901 19.4368 2.23143 19.4424 2.15527 19.4438C4.43553 22.7911 8.31066 25 12.7174 25C14.8669 25 16.89 24.4732 18.6645 23.5481C17.9015 23.5453 17.1457 23.517 16.4043 23.4591C15.4273 23.3701 14.5092 23.1865 13.6327 22.9464Z" fill="white"/>
<path d="M38.129 4.15654C34.9866 4.15654 32.2538 5.82594 30.794 8.32015C30.0813 9.53759 29.6675 10.9499 29.6675 12.4654C29.6675 12.471 29.6675 12.4767 29.6675 12.4838C29.6704 14.0049 30.0928 15.4243 30.8155 16.6474C32.2796 19.1246 35.001 20.787 38.1275 20.787C41.2541 20.787 43.9596 19.1246 45.4267 16.6474C46.1508 15.4243 46.5732 14.0063 46.5761 12.4838C46.5761 12.4781 46.5761 12.4725 46.5761 12.4654C46.5761 10.9499 46.1609 9.53759 45.4482 8.32015C43.9869 5.82594 41.2541 4.15654 38.1261 4.15654H38.129ZM40.7569 16.6459C40.0012 17.1276 39.1017 17.4016 38.129 17.4016C37.1562 17.4016 36.2611 17.1276 35.5053 16.6459C34.1748 15.7985 33.294 14.3043 33.2926 12.4823C33.2926 12.4809 33.2926 12.4795 33.2926 12.4767C33.2926 10.6618 34.149 9.17179 35.4579 8.31873C36.2209 7.82159 37.1361 7.54053 38.129 7.54053C39.1218 7.54053 40.0328 7.82159 40.7957 8.31873C42.1061 9.17179 42.9668 10.6618 42.9668 12.4767C42.9668 12.4781 42.9668 12.4795 42.9668 12.4823C42.9654 14.3029 42.0889 15.7985 40.7598 16.6459H40.7569ZM51.8752 12.471C51.4484 12.9738 51.1768 13.6701 51.1768 14.55C51.1768 15.4299 51.4455 16.1234 51.8651 16.629C52.3852 17.2533 53.1381 17.5837 53.9126 17.5837C54.7488 17.5837 55.506 17.3168 56.0118 16.629C56.1813 16.4002 56.3221 16.1234 56.4285 15.7943H60.0148C59.9588 16.081 59.8812 16.3578 59.7907 16.629C58.9803 19.0752 56.8394 20.7855 53.8982 20.7855C50.957 20.7855 48.8147 19.0371 48.0101 16.629C47.7917 15.9765 47.6695 15.2788 47.6695 14.55C47.6695 13.8212 47.7931 13.125 48.0129 12.471C48.8204 10.0715 51.0073 8.3145 53.8982 8.3145C56.7891 8.3145 59.0334 10.0771 59.8309 12.471C59.9013 12.6801 59.9645 12.8933 60.0134 13.1122H56.427C56.3308 12.8665 56.2029 12.6561 56.0578 12.471C55.5506 11.8242 54.7775 11.5389 53.9111 11.5389C53.1367 11.5389 52.3895 11.8609 51.8723 12.471H51.8752ZM101.24 12.4894C101.322 13.0007 101.367 13.5501 101.367 14.1419V20.787H97.8265V14.2224C97.8265 13.478 97.6957 12.9103 97.4601 12.4894C97.0793 11.8087 96.4256 11.5219 95.608 11.5219C94.8508 11.5219 94.1295 11.8383 93.6438 12.4894C93.2674 12.995 93.0332 13.7012 93.0332 14.6192V20.787H89.4943V8.3145H92.8737V10.1124C93.5505 9.05739 94.9643 8.32015 96.608 8.32015C99.3222 8.32015 100.822 9.8582 101.24 12.4894ZM67.2363 8.3145C64.3066 8.3145 62.1011 10.063 61.2921 12.471C61.0723 13.1235 60.9502 13.8212 60.9502 14.55C60.9502 15.2788 61.0737 15.9765 61.2936 16.629C62.1054 19.0371 64.3152 20.7855 67.2363 20.7855C70.4103 20.7855 72.5267 18.6967 73.0742 16.629H69.2752C69.0022 17.2872 68.3829 17.7871 67.1688 17.7871C66.2176 17.7871 65.4417 17.3903 64.9546 16.629C64.7405 16.2957 64.5782 15.8988 64.4905 15.4214H73.2724C73.3184 15.0585 73.3414 14.8311 73.3414 14.4596C73.3414 13.7662 73.2337 13.0981 73.0368 12.4725C72.2897 10.0799 70.1876 8.31591 67.2378 8.31591L67.2363 8.3145ZM64.6285 13.0671C64.7003 12.8439 64.7951 12.6504 64.8986 12.471C65.4288 11.5558 66.3354 11.1759 67.2478 11.1759C68.2751 11.1759 69.166 11.7013 69.5381 12.471C69.6286 12.6575 69.6976 12.8552 69.7206 13.0671H64.6299H64.6285ZM83.9682 10.1957C83.2283 8.99808 81.7857 8.32015 79.9925 8.32015C77.4723 8.32015 75.4751 10.0658 74.7366 12.4725C74.5369 13.1235 74.4233 13.8212 74.4233 14.5486C74.4233 15.276 74.534 15.9737 74.7308 16.6248C75.4406 18.9806 77.3459 20.6881 79.8187 20.7771C79.8848 20.7799 79.9494 20.7884 80.0169 20.7884C80.0917 20.7884 80.1635 20.7799 80.2368 20.7771C81.9021 20.722 83.2484 20.0596 83.9553 18.9227V20.7884H87.3922V8.3145H83.9682V10.1957ZM83.8145 14.5472C83.8145 15.3649 83.5257 16.0867 83.0472 16.6234C82.5199 17.2137 81.7613 17.5767 80.8948 17.5767C80.0284 17.5767 79.2396 17.2533 78.6965 16.6234C78.2654 16.122 77.9968 15.4285 77.9968 14.5472C77.9968 13.6659 78.2712 12.9837 78.7195 12.471C79.254 11.8581 80.0371 11.5177 80.9049 11.5177C81.7727 11.5177 82.4983 11.8835 83.0271 12.471C83.5142 13.012 83.813 13.7393 83.813 14.5472H83.8145ZM121.471 12.471C121.044 12.9738 120.773 13.6701 120.773 14.55C120.773 15.4299 121.041 16.1234 121.461 16.629C121.981 17.2533 122.734 17.5837 123.508 17.5837C124.345 17.5837 125.102 17.3168 125.608 16.629C125.777 16.4002 125.918 16.1234 126.024 15.7943H129.611C129.555 16.081 129.477 16.3578 129.386 16.629C128.576 19.0752 126.435 20.7855 123.494 20.7855C120.553 20.7855 118.411 19.0371 117.606 16.629C117.387 15.9765 117.265 15.2788 117.265 14.55C117.265 13.8212 117.389 13.125 117.609 12.471C118.416 10.0715 120.603 8.3145 123.494 8.3145C126.385 8.3145 128.629 10.0771 129.427 12.471C129.497 12.6801 129.56 12.8933 129.609 13.1122H126.023C125.927 12.8665 125.799 12.6561 125.654 12.471C125.146 11.8242 124.373 11.5389 123.507 11.5389C122.733 11.5389 121.985 11.8609 121.468 12.471H121.471ZM137.074 8.3145C134.125 8.3145 131.902 10.063 131.086 12.471C130.865 13.1235 130.741 13.8212 130.741 14.55C130.741 15.2788 130.865 15.9779 131.085 16.629C131.901 19.0469 134.129 20.7855 137.062 20.7855C139.995 20.7855 142.289 19.0512 143.11 16.629C143.329 15.9779 143.453 15.2802 143.453 14.55C143.453 13.8198 143.328 13.1235 143.107 12.471C142.285 10.0573 140.042 8.3145 137.074 8.3145ZM137.097 17.571C136.213 17.571 135.467 17.2208 134.959 16.629C134.509 16.105 134.246 15.3904 134.246 14.55C134.246 13.7097 134.51 12.9978 134.961 12.471C135.469 11.8793 136.214 11.5276 137.097 11.5276C137.979 11.5276 138.723 11.8793 139.232 12.471C139.683 12.9978 139.947 13.7139 139.947 14.55C139.947 15.3861 139.684 16.1036 139.235 16.629C138.727 17.2222 137.982 17.571 137.097 17.571ZM150.904 8.3145H152.284V11.7084H151.1C150.255 11.7084 149.574 11.9781 149.088 12.488C148.548 13.0558 148.249 13.9215 148.249 15.0627V20.7841H144.699V8.3145H148.088V10.3991C148.627 9.42602 149.512 8.3145 150.904 8.3145ZM165 14.4596C165 13.7662 164.892 13.0981 164.695 12.4725C163.948 10.0799 161.846 8.31591 158.896 8.31591C155.946 8.31591 153.761 10.0644 152.952 12.4725C152.732 13.125 152.61 13.8227 152.61 14.5514C152.61 15.2802 152.734 15.9779 152.953 16.6304C153.765 19.0385 155.975 20.787 158.896 20.787C162.07 20.787 164.187 18.6981 164.734 16.6304H160.935C160.662 17.2886 160.043 17.7885 158.829 17.7885C157.877 17.7885 157.102 17.3917 156.614 16.6304C156.4 16.2971 156.238 15.9002 156.15 15.4229H164.932C164.978 15.0599 165.001 14.8325 165.001 14.461L165 14.4596ZM156.288 13.0671C156.36 12.8439 156.455 12.6504 156.558 12.471C157.089 11.5558 157.995 11.1759 158.908 11.1759C159.935 11.1759 160.826 11.7013 161.198 12.471C161.288 12.6575 161.357 12.8552 161.379 13.0671H156.288ZM115.918 15.896C115.918 16.1488 115.895 16.3875 115.862 16.6219C115.495 19.2263 113.13 20.6754 109.769 20.7771C109.643 20.7813 109.519 20.7884 109.39 20.7884C109.288 20.7884 109.195 20.7799 109.096 20.7771C105.218 20.681 103.409 18.7433 102.953 16.6219C102.873 16.2463 102.828 15.8663 102.828 15.4892H106.472C106.472 15.9186 106.585 16.2999 106.799 16.6219C107.242 17.2872 108.124 17.6897 109.379 17.6897C110.942 17.6897 111.784 17.3309 112.09 16.6219C112.182 16.4073 112.229 16.1629 112.229 15.8847C112.229 14.7901 111.114 14.3353 109.091 13.8693C107.837 13.5642 106.447 13.1631 105.334 12.4668C104.111 11.7027 103.22 10.5827 103.22 8.82718C103.22 8.65205 103.229 8.48115 103.245 8.31309C103.482 5.83441 105.465 4.15795 109.254 4.15795C113.043 4.15795 114.969 5.76379 115.318 8.31309C115.356 8.58002 115.379 8.85543 115.379 9.14213H111.735C111.735 8.85543 111.669 8.56872 111.515 8.31309C111.196 7.7778 110.496 7.37246 109.206 7.37246C107.752 7.37246 107.162 7.79616 106.956 8.31309C106.887 8.4868 106.861 8.67041 106.861 8.85119C106.861 9.86526 107.894 10.3652 110.354 10.8313C111.936 11.1533 113.334 11.6547 114.336 12.4668C115.32 13.2662 115.918 14.365 115.918 15.896Z" fill="white"/>
</svg>
