<svg width="191" height="38" viewBox="0 0 191 38" fill="none" xmlns="http://www.w3.org/2000/svg">
<g opacity="0.7">
<path d="M64.8726 0.0024499C66.2901 -0.0812694 65.5833 2.00269 65.4987 2.87976C65.6917 3.02256 65.8827 3.38403 65.9938 3.39833C67.4226 3.58257 68.4542 4.05109 69.6367 4.95038C69.9337 4.77546 70.1404 4.87741 70.2823 4.75266C70.7953 4.30145 71.2569 3.08014 71.9809 2.93446C72.1618 2.89699 72.3501 2.93609 72.501 3.04248C72.6386 3.1399 72.7294 3.28972 72.7528 3.45654C72.867 4.30769 71.3836 4.84891 70.9361 5.37356C70.7984 5.53504 70.892 5.604 70.878 5.79151C70.8764 5.81042 70.7415 6.01076 70.7575 6.03669C70.968 6.37562 71.2534 6.80959 71.4464 7.14385C71.9497 8.01632 72.1341 8.85601 72.2897 9.82852C72.6589 9.92044 72.7477 10.1577 72.8861 10.158C73.3817 10.1344 73.8565 10.0277 74.3544 9.96118C74.791 9.90286 75.7029 9.90286 75.6783 10.5574C75.6308 11.826 73.6222 11.0158 72.8203 11.0266L72.8015 11.027C72.4164 11.5221 72.2943 11.1175 72.1934 11.855C72.0304 13.0428 71.4304 14.1869 70.7064 15.1294C70.7248 15.1592 70.7407 15.1903 70.7587 15.2203C70.8483 15.3713 70.837 15.4779 70.8456 15.6498C70.8573 15.8917 72.0737 16.6619 72.3216 16.8911C72.5314 17.085 72.745 17.3339 72.7501 17.6352C72.7532 17.8003 72.699 17.9815 72.5785 18.0985C72.4577 18.2161 72.2745 18.2892 72.1056 18.2845C71.409 18.2654 70.678 16.8434 70.2339 16.3615C69.908 16.393 69.8764 16.4199 69.6066 16.2497C69.487 16.3021 69.3525 16.401 69.248 16.4757C68.5057 17.0071 67.7209 17.4036 66.8227 17.5882C66.5314 17.6481 66.1451 17.6954 65.8698 17.7991C65.8277 18.065 65.6811 18.1707 65.4847 18.3427C65.5747 18.929 65.7049 19.5238 65.7365 20.1159C65.7654 20.6525 65.7205 21.0362 65.1646 21.2064C63.8827 21.173 64.572 19.1508 64.6585 18.3355C64.5852 18.2721 64.1595 17.755 64.2504 17.7846C63.8913 17.6674 63.526 17.6631 63.1556 17.5587C62.149 17.2748 61.3931 16.8342 60.544 16.2337C60.2317 16.4256 60.0625 16.3337 59.9833 16.3755C59.4364 16.6653 58.6399 18.6649 57.8259 18.2433C56.3019 17.454 58.9292 16.2352 59.3303 15.6866C59.3436 15.6686 59.2839 15.5336 59.2734 15.5057C59.2718 15.3621 59.3627 15.246 59.4391 15.1197C58.5011 13.89 58.1038 12.9039 57.8843 11.3814C57.5795 11.3077 57.5467 11.2683 57.3545 11.0141C56.6231 11.0492 54.3378 11.8269 54.4832 10.4609C54.5799 9.55071 56.7393 10.0998 57.3276 10.1912C57.5331 9.95257 57.5931 9.88914 57.8906 9.79234C58.0535 8.35724 58.5151 7.1927 59.4219 6.06047C59.3062 5.85564 59.2933 5.46022 59.2602 5.41976C58.8426 4.90723 56.6684 3.94033 57.6029 3.08599C58.413 2.34548 59.3292 4.13779 59.7206 4.60397C60.0601 5.00816 60.1214 4.68689 60.5159 4.96543C61.6422 4.00602 62.7701 3.6168 64.2059 3.39397C64.3689 3.14065 64.4468 3.04841 64.6581 2.84245C64.5907 2.11672 64.3166 1.27628 64.4348 0.565538C64.4823 0.279111 64.641 0.150728 64.8726 0.0024499ZM60.1638 10.1935C60.9903 9.95545 61.7155 9.87471 62.5775 9.98722C62.8983 10.0233 63.3244 10.1101 63.6289 10.2161L63.7977 9.77211C63.0012 9.38936 62.2925 8.75399 61.7553 8.05032C61.6605 7.92611 61.4075 7.45452 61.3362 7.39241C60.5666 8.41237 60.3779 8.93386 60.1638 10.1935ZM60.8734 13.1096C61.0079 13.3017 61.2161 13.6161 61.3611 13.7851C61.8913 12.7793 62.742 11.869 63.781 11.3849L63.6086 10.9685L63.5607 10.9583C62.3209 11.3228 61.4102 11.2794 60.1775 10.9798C60.2968 11.8655 60.4438 12.3277 60.8734 13.1096ZM61.9163 6.80363C62.6258 7.23106 63.0172 7.4967 63.572 8.14006C63.8313 8.43424 64.172 8.91452 64.3151 9.2795C64.4925 9.17221 64.5541 9.13596 64.7474 9.0666C64.4702 8.15686 64.4309 7.54044 64.5073 6.58918C64.526 6.35281 64.7408 5.83502 64.6398 5.69316L64.4987 5.7052C63.5065 5.81003 62.7038 6.21056 61.9163 6.80363ZM69.9762 10.1615C69.8168 9.03729 69.5493 8.33674 68.8499 7.42691C68.2351 8.48355 67.6148 9.17288 66.5084 9.73659C66.593 9.89354 66.6636 10.0182 66.7267 10.1867C67.0106 10.0915 67.303 10.0253 67.6 9.98913C68.4745 9.88247 69.1302 9.95081 69.9762 10.1615ZM65.356 11.3082C65.7385 11.2086 65.9685 10.8183 65.8698 10.4354C65.7716 10.0525 65.3821 9.82134 64.9989 9.91853C64.6137 10.0162 64.3814 10.4079 64.4804 10.7924C64.579 11.177 64.9716 11.4082 65.356 11.3082ZM66.5583 11.442C67.6293 12.0427 68.2371 12.6662 68.8597 13.7263C69.0285 13.4768 69.207 13.2211 69.3567 12.9606C69.6905 12.3348 69.8967 11.7196 69.9653 11.0074C68.8449 11.2502 67.8375 11.3283 66.7213 10.9752C66.6729 11.1235 66.6199 11.3019 66.5583 11.442ZM68.2569 14.3116C67.5267 13.8649 67.0102 13.4743 66.4597 12.792C66.3568 12.6646 66.0164 12.0643 65.9451 12.0111L65.5158 12.1882C65.8476 13.2571 65.8511 14.4009 65.5256 15.4718C66.1677 15.3747 66.5361 15.2868 67.1326 15.0285C67.5642 14.8046 67.869 14.6061 68.2569 14.3116ZM68.2464 6.85158C67.4889 6.17672 66.5326 5.76598 65.5213 5.68107C65.8414 6.85521 65.8702 7.88596 65.4975 9.0576C65.6515 9.10099 65.793 9.1381 65.9416 9.19958C66.2188 8.70682 66.388 8.42235 66.7731 8.00626C67.3182 7.45779 67.5801 7.23842 68.2464 6.85158ZM64.2819 11.9445C63.7626 13.0001 62.9494 13.7998 61.9092 14.3421C62.3627 14.6637 62.6348 14.8563 63.1404 15.0787C63.7007 15.3185 64.1116 15.3936 64.7143 15.4899C64.4071 14.3627 64.3634 13.2812 64.7264 12.1546L64.2819 11.9445Z" fill="white"/>
<path d="M28.8753 13.682C28.9273 13.7566 28.9039 31.514 28.9075 33.4109L24.5211 33.4118L24.5193 32.492L24.5188 23.992C24.5189 22.5141 24.5389 21.0083 24.5102 19.5333C24.4887 18.4342 24.2811 17.4641 23.4541 16.6977C25.3537 15.8687 27.1692 14.8588 28.8753 13.682Z" fill="white"/>
<path d="M45.3323 8.22668C45.3998 8.333 45.3027 25.7044 45.36 27.5467C44.0941 27.5015 42.215 27.5193 40.9401 27.5527L40.9409 26.6832L40.9401 18.0317L40.9433 15.2862C40.9444 13.8868 41.0672 12.2652 39.9004 11.2586C41.8006 10.4175 43.6193 9.40257 45.3323 8.22668Z" fill="white"/>
<path d="M30.9111 13.6813C31.566 13.6677 32.0804 13.6825 32.7291 13.8209C34.4359 14.202 35.922 15.2442 36.8616 16.7191C37.8737 18.2945 38.2152 20.2088 37.8098 22.0371C37.4191 23.7981 36.3485 25.3336 34.8314 26.3096C34.7355 26.3871 34.3462 26.5996 34.2239 26.6614C33.0713 27.2441 32.1586 27.3224 30.9114 27.326C30.943 27.2966 30.974 27.2665 31.0043 27.2357C33.7435 24.4548 33.7225 16.4422 30.9111 13.6813Z" fill="white"/>
<path d="M5.40859 13.6847C5.48282 13.8011 5.45093 26.131 5.45074 27.3922C5.22372 27.3803 4.98918 27.3761 4.76166 27.3801C3.53204 27.4017 2.27552 27.3419 1.04865 27.397L1.04696 26.5274C1.0485 24.2165 1.05525 21.8992 1.04601 19.5883C1.04143 18.4426 0.841719 17.5004 0 16.6923C1.55229 16.0929 4.06085 14.6289 5.40859 13.6847Z" fill="white"/>
<path d="M16.6391 14.2212C17.9007 14.4787 18.9958 15.2545 19.794 16.2474C20.419 17.0275 20.8573 17.9402 21.0755 18.9156C21.2805 19.8413 21.2424 20.92 21.2405 21.873L21.2406 24.6286C21.2422 25.2854 21.2876 26.8211 21.2249 27.3857C19.9016 27.37 17.9208 27.3231 16.6357 27.3957L16.6391 14.2212Z" fill="white"/>
<path d="M48.8955 14.4719C49.86 14.6238 50.8741 15.2699 51.5567 15.9465C52.423 16.8119 53.0308 17.902 53.3115 19.0941C53.5485 20.0922 53.4783 21.7391 53.4779 22.8353L53.4811 27.5455C51.9637 27.5437 50.3996 27.5228 48.8862 27.5524L48.887 18.7903C48.8866 17.3884 48.853 15.8625 48.8955 14.4719Z" fill="white"/>
<path d="M12.5722 20.7148C13.241 20.6662 14.4462 20.6999 15.1277 20.7106C14.2106 21.0758 13.5196 21.6148 13.0872 22.5278C12.6969 23.3677 12.6515 24.3271 12.9606 25.2001C13.3606 26.3089 14.0668 26.8534 15.0879 27.3314C14.5339 27.3007 13.7987 27.3224 13.2314 27.3232C11.0783 27.328 8.62194 26.8681 8.44498 24.2512C8.38452 23.4421 8.65005 22.6426 9.1824 22.0304C10.0525 21.0455 11.3294 20.7908 12.5722 20.7148Z" fill="white"/>
<path d="M3.04937 7.34571C4.35606 7.14385 5.57788 8.04248 5.77445 9.34991C5.97098 10.6573 5.06736 11.8755 3.75911 12.0667C2.45834 12.2569 1.24864 11.3596 1.05321 10.0596C0.857788 8.75968 1.7502 7.5464 3.04937 7.34571Z" fill="white"/>
<path d="M13.6636 14.0871C13.7779 14.073 13.8242 14.0726 13.9394 14.0772C13.9452 14.1641 13.6681 14.5249 13.598 14.6806C12.9782 16.0578 14.3152 16.6201 13.713 18.0673C13.5017 18.5799 13.0925 18.9855 12.5781 19.1922C11.9667 19.44 11.3988 19.3674 10.8131 19.1133C9.53918 18.4071 9.32319 16.779 10.2703 15.699C11.1767 14.6653 12.3177 14.2135 13.6636 14.0871Z" fill="white"/>
<path d="M61.7598 34.9301L62.336 34.9337L62.329 35.7637C62.9625 35.351 63.3925 35.4191 63.6541 36.2467C63.7477 36.5423 63.6401 36.8712 63.4724 37.1291C62.8463 37.6979 62.6814 37.2355 62.3329 37.2258C62.2837 37.4632 62.0159 37.377 61.7761 37.3786C61.768 36.5602 61.7808 35.7505 61.7598 34.9301ZM62.8093 36.9502C63.3235 36.6555 63.244 36.0495 62.6705 35.9698C62.1438 36.2904 62.2229 36.9521 62.8093 36.9502Z" fill="white"/>
<path d="M54.4701 34.9269L55.0303 34.933C54.9878 35.6834 55.0163 36.6235 55.0209 37.3864C54.874 37.3836 54.6424 37.3903 54.5087 37.3497L54.4584 37.2269C54.1399 37.2133 54.2424 37.5049 53.6264 37.3396C52.5828 36.805 53.2693 34.907 54.4744 35.7481C54.4927 35.5175 54.4755 35.1683 54.4701 34.9269ZM54.1391 36.9634C54.6447 36.6468 54.6124 36.0483 53.9976 35.9754C53.4646 36.2658 53.5675 36.9037 54.1391 36.9634Z" fill="white"/>
<path d="M40.4072 35.517C41.0808 35.5479 41.4329 36.1495 41.25 36.7779C41.0403 37.4998 40.5783 37.4253 39.9822 37.262C39.93 37.3898 39.9436 37.5637 39.9448 37.706L39.9382 37.8487C39.8216 37.9352 39.5479 37.9071 39.3892 37.9064C39.3924 37.1232 39.3892 36.3401 39.3799 35.557C39.6501 35.5613 39.8064 35.5077 39.981 35.7243C40.1331 35.6242 40.1974 35.5771 40.3725 35.5268L40.4072 35.517ZM40.4193 36.9598C40.9046 36.6479 40.8847 36.059 40.2773 35.976C39.737 36.248 39.8243 36.9037 40.4193 36.9598Z" fill="white"/>
<path d="M72.5849 31.5647C73.1124 31.4905 73.5997 31.8594 73.6711 32.3871C73.7428 32.9148 73.3713 33.4001 72.8434 33.469C72.319 33.5375 71.8376 33.1693 71.7666 32.6453C71.6957 32.1213 72.0613 31.6383 72.5849 31.5647ZM72.8734 32.9467C73.1066 32.8639 73.2317 32.6111 73.1565 32.3756C73.0808 32.1401 72.8321 32.007 72.5943 32.0748C72.4337 32.1207 72.3109 32.2504 72.2738 32.4133C72.2364 32.5761 72.291 32.7464 72.4157 32.8574C72.5405 32.9684 72.7159 33.0026 72.8734 32.9467Z" fill="white"/>
<path d="M64.8223 35.5108C65.3537 35.4669 65.8188 35.864 65.8594 36.3955C65.8995 36.927 65.4995 37.3897 64.9678 37.4268C64.4411 37.463 63.9834 37.0677 63.9432 36.541C63.9034 36.0144 64.296 35.5542 64.8223 35.5108ZM64.9487 36.9262C65.2005 36.8997 65.3826 36.6732 65.3549 36.4214C65.3272 36.1697 65.1003 35.9884 64.8485 36.0171C64.5986 36.0457 64.4184 36.2711 64.4457 36.5214C64.4734 36.7717 64.698 36.9527 64.9487 36.9262Z" fill="white"/>
<path d="M63.2207 31.5663C63.7408 31.4891 64.2266 31.8444 64.31 32.3636C64.3938 32.8827 64.0445 33.3727 63.5264 33.4628C63.1857 33.5221 62.8391 33.3935 62.6196 33.1261C62.4001 32.8587 62.3412 32.4939 62.4656 32.171C62.59 31.8482 62.8784 31.6172 63.2207 31.5663ZM63.517 32.9478C63.751 32.8632 63.8749 32.608 63.797 32.372C63.719 32.1359 63.4671 32.0048 63.2289 32.0763C63.0691 32.1243 62.9478 32.2554 62.9124 32.4187C62.8769 32.5819 62.933 32.7515 63.0586 32.8615C63.1845 32.9715 63.3599 33.0045 63.517 32.9478Z" fill="white"/>
<path d="M49.8227 31.5662C50.337 31.4907 50.8181 31.8379 50.9081 32.3498C50.9986 32.8617 50.6648 33.3524 50.1557 33.4571C49.8134 33.5276 49.4598 33.4063 49.2325 33.1406C49.0052 32.8748 48.9405 32.5066 49.0629 32.1792C49.1857 31.8519 49.4769 31.6171 49.8227 31.5662ZM50.1066 32.9513C50.3428 32.8731 50.4734 32.6206 50.4009 32.3824C50.3284 32.1444 50.0789 32.0078 49.8391 32.0748C49.6789 32.1196 49.5557 32.2476 49.5167 32.4093C49.4781 32.571 49.53 32.741 49.6524 32.8536C49.7748 32.9661 49.9487 33.0035 50.1066 32.9513Z" fill="white"/>
<path d="M35.7259 35.5154C36.2467 35.4464 36.7263 35.8086 36.8023 36.3283C36.8784 36.848 36.5228 37.3324 36.0041 37.4158C35.6622 37.4704 35.3173 37.337 35.1013 37.0665C34.8854 36.7958 34.8318 36.4299 34.9611 36.1087C35.0905 35.7875 35.3827 35.5608 35.7259 35.5154ZM35.9207 36.9238C36.1703 36.8872 36.3433 36.6557 36.308 36.4059C36.2727 36.156 36.0423 35.9816 35.7923 36.0154C35.5401 36.0495 35.3639 36.2823 35.3995 36.5342C35.4351 36.7862 35.6689 36.9608 35.9207 36.9238Z" fill="white"/>
<path d="M42.4352 35.5103C42.9549 35.4702 43.4118 35.8521 43.4644 36.3707C43.5167 36.8891 43.1459 37.355 42.6289 37.4201C42.2831 37.4637 41.9408 37.3164 41.7346 37.0353C41.5288 36.7543 41.4909 36.3836 41.6364 36.0669C41.7818 35.7502 42.0874 35.5372 42.4352 35.5103ZM42.5837 36.9211C42.8266 36.8797 42.9931 36.6538 42.9607 36.4096C42.9287 36.1653 42.7089 35.9904 42.4636 36.0136C42.2968 36.0293 42.1518 36.1351 42.0859 36.2892C42.0196 36.4434 42.0434 36.6212 42.1471 36.753C42.2508 36.8848 42.4184 36.9491 42.5837 36.9211Z" fill="white"/>
<path d="M56.4035 34.9297L56.9493 34.9301L56.9513 35.7774C57.085 35.6395 57.3162 35.4967 57.5049 35.5012C58.2288 35.5183 58.0647 36.9748 58.0585 37.3861L57.5329 37.3763L57.531 36.7903C57.5318 36.5057 57.5879 35.7399 57.0511 36.1114C56.8842 36.2269 56.9446 37.1826 56.9466 37.3853L56.4105 37.3771C56.3918 36.5876 56.4051 35.7242 56.4035 34.9297Z" fill="white"/>
<path d="M58.9264 35.5631C58.9837 35.5585 59.0414 35.5555 59.0991 35.5541C60.2644 35.5194 60.0453 36.532 60.0379 37.3848C59.6472 37.3953 59.485 37.2308 59.1303 37.3668C58.954 37.4343 58.7798 37.3777 58.6036 37.3185C58.3782 37.1169 58.326 36.9637 58.3735 36.6653C58.4726 36.0465 59.2355 36.4107 59.487 36.2519C59.4772 36.1679 59.4472 36.1469 59.3907 36.0785C59.147 35.9482 58.8979 36.0393 58.625 36.0957L58.4858 35.6846L58.9264 35.5631ZM59.3014 37.0058C59.4071 36.9208 59.4593 36.8916 59.508 36.7614C59.455 36.5756 59.3225 36.588 59.1455 36.5629C59.018 36.6158 58.9728 36.6248 58.901 36.7475C58.8897 36.8951 58.8741 36.8375 58.9653 36.9633C59.0878 37.0409 59.1579 37.0175 59.3014 37.0058Z" fill="white"/>
<path d="M49.6874 35.5611C49.7747 35.5548 49.862 35.5513 49.9494 35.5507C50.9837 35.5532 50.763 36.6472 50.7583 37.3847C50.6028 37.3836 50.4476 37.3789 50.2924 37.3711L50.2075 37.267C49.8149 37.2635 49.8683 37.5527 49.3151 37.2947C49.0905 37.0881 49.0016 36.8731 49.1346 36.5809C49.3806 36.0395 49.8359 36.4077 50.2156 36.2659C50.2231 36.1908 50.1712 36.151 50.1158 36.0746C49.9041 35.9495 49.6075 36.0444 49.3658 36.0922L49.2235 35.6832C49.3626 35.6363 49.5416 35.5971 49.6874 35.5611ZM49.986 37.0292C50.1061 36.9493 50.1696 36.9196 50.2332 36.7903C50.225 36.67 50.2449 36.7149 50.1529 36.6242C50.0453 36.594 49.9771 36.5728 49.8636 36.5607C49.7369 36.6324 49.6769 36.6518 49.6172 36.7838C49.6379 37.0023 49.7798 37.028 49.986 37.0292Z" fill="white"/>
<path d="M57.6406 31.6251C59.0308 31.4525 58.8324 32.3711 58.8191 33.4122C58.5259 33.4202 58.2589 33.3109 58.025 33.3822C57.7248 33.4736 57.6975 33.4636 57.3946 33.3657C56.8877 32.9963 57.1571 32.2533 57.7727 32.3311C57.9119 32.3487 58.1326 32.3392 58.2702 32.3264L58.2905 32.2789C58.2363 32.1741 58.1953 32.153 58.1037 32.0807C57.8417 32.0149 57.6792 32.0783 57.4269 32.1556C57.377 32.032 57.2924 31.8748 57.3341 31.7551C57.4168 31.659 57.5119 31.6546 57.6406 31.6251ZM58.1181 33.0544C58.232 32.9047 58.2565 32.9189 58.2811 32.7551C58.1649 32.605 58.0246 32.6297 57.8433 32.6263C57.7439 32.7099 57.6897 32.7402 57.6624 32.8697C57.7279 33.0926 57.9216 33.0688 58.1181 33.0544Z" fill="white"/>
<path d="M53.7511 31.6232C55.1144 31.504 54.8844 32.3494 54.8743 33.417C54.748 33.4161 54.5238 33.4153 54.3858 33.4058C54.3737 33.4049 54.3542 33.3158 54.3191 33.3216C53.8544 33.3989 54.0049 33.5306 53.4973 33.3822C53.2186 33.1885 53.1449 32.9566 53.2416 32.6241C53.3788 32.1514 54.0649 32.4508 54.3336 32.3109C54.3195 32.191 54.3273 32.2324 54.2365 32.1158C53.994 31.9868 53.7527 32.0773 53.4856 32.1374C53.4131 31.9941 53.3768 31.9007 53.4006 31.7554C53.486 31.6528 53.615 31.6484 53.7511 31.6232ZM54.1671 33.0594C54.2544 32.9721 54.3308 32.9121 54.357 32.7907C54.2778 32.6064 54.1347 32.6329 53.946 32.6212C53.8341 32.6905 53.7811 32.7108 53.7304 32.8356C53.7601 33.0846 53.9663 33.0698 54.1671 33.0594Z" fill="white"/>
<path d="M45.2215 31.6226C45.2854 31.614 45.3494 31.6081 45.4141 31.6049C46.5657 31.5537 46.3318 32.5726 46.3283 33.4153C46.1384 33.4132 45.8679 33.4694 45.8071 33.3186C45.7915 33.2798 45.3665 33.4455 45.3069 33.4466C45.1751 33.449 45.0472 33.4033 44.9221 33.3637C44.6901 33.1587 44.5533 32.8422 44.7521 32.5536C45.009 32.181 45.4199 32.3891 45.7763 32.3323L45.8028 32.282C45.6308 31.9065 45.2511 32.066 44.9459 32.1651C44.901 32.0333 44.8297 31.8827 44.8648 31.7557C44.9443 31.6531 45.0889 31.6468 45.2215 31.6226ZM45.6496 33.0543C45.7346 32.9575 45.8024 32.9033 45.8156 32.7788C45.724 32.6023 45.5435 32.6251 45.3583 32.6287C45.2632 32.7134 45.2164 32.7413 45.1919 32.869C45.2617 33.0942 45.4523 33.0673 45.6496 33.0543Z" fill="white"/>
<path d="M67.9345 31.6253C69.3365 31.4747 69.0975 32.3597 69.0819 33.4159C68.9088 33.418 68.494 33.3324 68.4137 33.3547C68.0628 33.4518 68.0823 33.4794 67.7135 33.3809C67.4476 33.2002 67.3825 32.9916 67.4535 32.6769C67.5833 32.1011 68.2874 32.4673 68.5638 32.3106L68.5529 32.231C68.3065 31.9424 68.0414 32.0634 67.7158 32.137C67.6421 31.9973 67.5997 31.8944 67.6238 31.7506C67.6983 31.6593 67.8172 31.6501 67.9345 31.6253ZM68.3965 33.0595C68.4749 32.976 68.556 32.9084 68.5704 32.795C68.4932 32.6047 68.317 32.6243 68.1279 32.6274C68.0207 32.7115 67.9763 32.7336 67.9466 32.87C68.025 33.0831 68.1918 33.0687 68.3965 33.0595Z" fill="white"/>
<path d="M40.0202 31.5862C40.8299 31.567 40.9566 32.0135 41.0522 32.7067C40.7531 32.7123 40.0296 32.6754 39.8132 32.7173L39.8019 32.7644C39.8537 32.9247 39.8175 32.8766 39.9286 32.9758C40.2896 33.0999 40.5251 32.8171 40.722 32.9082C40.8128 32.9856 40.8338 33.0038 40.9028 33.1006L40.8759 33.185C40.7309 33.3061 40.5902 33.3926 40.4042 33.4398C40.168 33.5007 39.9177 33.4647 39.7083 33.3396C39.4896 33.2071 39.3321 32.9934 39.2701 32.7452C39.1274 32.1689 39.4479 31.7044 40.0202 31.5862ZM40.3169 32.3582L40.4459 32.3489L40.4806 32.302C40.4436 32.123 40.2444 32.016 40.0763 31.9895C39.9602 32.0661 39.8993 32.0967 39.821 32.2126L39.8245 32.2938C39.959 32.3912 40.1438 32.3617 40.3169 32.3582Z" fill="white"/>
<path d="M35.9687 31.5937C36.0935 31.6174 36.264 31.5913 36.3979 31.6115C36.5407 31.6329 36.428 31.6609 36.5098 31.7904C37.8145 30.9679 37.6258 32.67 37.6187 33.415L37.0745 33.4134L37.0737 32.7746C37.0749 32.6275 37.1018 32.2936 37.0187 32.1869C36.8827 32.0116 36.7057 32.0643 36.5629 32.1804C36.4423 32.4016 36.4898 33.1305 36.4953 33.4156L35.9546 33.4132C35.9514 33.0475 35.9216 31.8987 35.9687 31.5937Z" fill="white"/>
<path d="M42.7397 31.5881C42.8836 31.6115 43.1421 31.5849 43.2446 31.6466L43.2391 31.7765C43.3175 31.7993 43.56 31.5823 43.7682 31.5782C44.5908 31.5619 44.392 32.8331 44.3963 33.4165L43.8512 33.4113L43.8485 32.9501C43.8543 32.6776 43.8941 32.382 43.7569 32.1527C43.0933 31.69 43.2653 33.1036 43.2723 33.4149L42.7284 33.4125C42.7253 32.8665 42.7004 32.1158 42.7397 31.5881Z" fill="white"/>
<path d="M51.2897 31.5925C51.4445 31.6125 51.6476 31.5864 51.7837 31.6412L51.7852 31.758C51.9162 31.7727 52.0874 31.5839 52.3038 31.5792C53.1267 31.5611 52.9349 32.8271 52.9361 33.4158L52.3915 33.4117L52.3887 32.8427C52.3891 32.6793 52.4129 32.217 52.2757 32.1322C51.6281 31.7321 51.8063 33.1371 51.8129 33.4143L51.2722 33.4127C51.2667 33.036 51.2367 31.9276 51.2897 31.5925Z" fill="white"/>
<path d="M74.5917 31.6482L74.5722 31.7641C75.9196 31.0894 75.6864 32.588 75.6927 33.4143L75.1523 33.4115L75.1441 32.7745C75.1508 32.5147 75.1344 32.0782 74.8131 32.0015C74.4514 32.1303 74.5656 33.0888 74.5734 33.4154L74.0287 33.4117C74.0248 33.0482 73.9964 31.9095 74.049 31.5931C74.2521 31.6204 74.3496 31.5958 74.5917 31.6482Z" fill="white"/>
<path d="M52.1431 35.5143C53.0316 35.5675 52.7989 36.7264 52.7907 37.3848L52.2671 37.3766C52.2355 37.0273 52.3849 36.2473 52.094 36.0453C51.9607 35.9987 51.901 36.0288 51.7642 36.0671C51.6348 36.3765 51.6761 37.0242 51.6792 37.3852L51.1455 37.3766C51.1354 36.7766 51.1389 36.1634 51.1357 35.562C51.3506 35.5662 51.5045 35.5499 51.6913 35.6703C51.7751 35.6751 52.0297 35.5541 52.1431 35.5143Z" fill="white"/>
<path d="M68.1798 35.5309C68.48 35.5564 68.6293 35.6246 68.8928 35.7474L68.6675 36.1448C68.4741 36.0389 68.2332 35.8657 68.0386 36.0362L68.0394 36.1062C68.3544 36.3915 69.3759 36.4102 68.7603 37.2113C68.6269 37.3852 68.3665 37.3867 68.1657 37.4012C67.8675 37.3653 67.6874 37.2834 67.4258 37.1571C67.4924 37.0308 67.577 36.8932 67.6496 36.7686C67.9217 36.9178 68.0765 37.0285 68.386 36.908C68.3462 36.7292 67.54 36.568 67.5236 36.1521C67.5053 35.6969 67.7934 35.5851 68.1798 35.5309Z" fill="white"/>
<path d="M59.7525 31.5842C60.0843 31.6087 60.22 31.6564 60.5159 31.7813C60.4511 31.9061 60.4246 31.9661 60.3338 32.0749C60.0589 32.2133 59.947 32.005 59.7124 31.9849C59.6433 32.0614 59.6628 32.0249 59.65 32.1348C59.9646 32.4185 60.8593 32.4131 60.4344 33.2116C60.3365 33.3952 59.9646 33.441 59.781 33.4622C59.4765 33.4098 59.3042 33.3271 59.041 33.1874L59.2734 32.8121C59.5022 32.9355 59.7938 33.1338 60.0219 32.9416V32.8683C59.8613 32.7122 59.5603 32.7213 59.4012 32.6056C58.8461 32.2028 59.1899 31.6739 59.7525 31.5842Z" fill="white"/>
<path d="M46.9298 35.559C47.322 35.5038 47.5181 35.5849 47.8671 35.7349C47.8035 35.8416 47.7197 36.026 47.6624 36.1435C47.4893 36.0571 47.1361 35.8483 46.9934 36.0393L47.0203 36.1103C47.1692 36.2356 47.3536 36.2793 47.5318 36.3512C48.1263 36.5905 47.9688 37.2036 47.4078 37.3841C46.9587 37.4196 46.7793 37.3545 46.4043 37.1397L46.6257 36.7581C46.848 36.8952 47.1634 37.082 47.3992 36.8921C47.3532 36.7801 45.5852 36.157 46.9298 35.559Z" fill="white"/>
<path d="M61.3436 31.5856C61.6855 31.6007 61.8212 31.6472 62.1245 31.7769L61.9124 32.1915C61.7163 32.0883 61.4644 31.9229 61.2683 32.0724L61.2761 32.1378C61.4613 32.3208 61.7451 32.3528 61.9744 32.4925C62.2399 32.6543 62.1904 32.994 62.0364 33.2156C61.9147 33.3911 61.6453 33.4324 61.4461 33.4622C61.1104 33.3994 60.9561 33.3569 60.6621 33.1851L60.8851 32.8123C61.1366 32.9442 61.3666 33.0983 61.6438 32.9569L61.6637 32.888C61.4886 32.7102 61.1779 32.7256 61.0064 32.5946C60.4945 32.2033 60.8134 31.6868 61.3436 31.5856Z" fill="white"/>
<path d="M37.6642 34.9066C37.7741 34.8983 38.0848 34.8668 38.1437 34.9545C38.2084 35.051 38.1843 35.2925 38.1001 35.3859C37.8837 35.3567 37.8693 35.3293 37.7558 35.5235C37.8236 35.6724 38.0322 35.5077 38.1866 35.6284C38.1944 36.2255 38.0221 35.9237 37.8002 36.0441C37.7398 36.2567 37.7702 36.9323 37.7741 37.1993C37.7792 37.2668 37.7683 37.2875 37.7488 37.351C37.6147 37.4184 37.3917 37.3865 37.2338 37.3783C37.2221 37.0286 37.2646 36.3678 37.2061 36.0487L37.0654 35.986L37.0322 35.8929C37.0498 35.6489 37.1925 35.4082 37.3008 35.1907C37.4006 34.9909 37.4556 34.968 37.6642 34.9066Z" fill="white"/>
<path d="M65.4089 31.586C65.6931 31.5718 66.0763 31.5953 66.1777 31.8988C66.1703 32.0413 66.0424 32.1455 65.9399 32.2534C65.1999 31.6763 64.7578 32.6656 65.4104 32.9697C65.5524 33.0359 65.7999 32.8838 65.9352 32.811L66.0401 32.868C66.0908 32.9165 66.2034 33.0164 66.219 33.0776C66.2631 33.2531 65.849 33.4071 65.7329 33.4367C65.5005 33.4974 65.2537 33.4619 65.0483 33.3382C64.8179 33.1978 64.6545 32.9697 64.5956 32.7063C64.4623 32.0997 64.8311 31.6925 65.4089 31.586Z" fill="white"/>
<path d="M46.8407 31.1272C46.9529 31.1431 47.2083 31.1428 47.3319 31.1462C47.3327 31.2587 47.3202 31.5205 47.367 31.6043C47.5907 31.7143 47.4917 31.5767 47.6968 31.6255C47.7627 31.7338 47.8036 31.9636 47.733 32.0703L47.3256 32.079C47.3245 32.2886 47.2878 32.743 47.4235 32.9041C47.4738 32.9636 47.5931 32.9331 47.7054 32.9383C47.7861 33.0798 47.7572 33.1069 47.7592 33.2939C47.7436 33.3396 47.7104 33.3749 47.6625 33.389C46.4785 33.7362 46.9249 32.6333 46.7623 32.0976C46.5436 31.952 46.4434 31.6971 46.7483 31.5984C46.85 31.4289 46.7588 31.386 46.8407 31.1272Z" fill="white"/>
<path d="M38.1381 31.1276C38.2293 31.1422 38.5233 31.1432 38.6297 31.146L38.6364 31.5801C38.7264 31.6743 38.928 31.5553 39.0523 31.6495C39.0621 31.8028 39.0761 31.8847 39.0293 32.0316C38.9073 32.1088 38.7915 32.0799 38.627 32.079L38.6399 32.9642C38.7642 32.9455 38.8851 32.9194 39.0091 32.937C39.0824 33.0477 39.0566 33.1358 39.0597 33.2894L39.0243 33.3479C38.8278 33.4569 38.4512 33.5043 38.2792 33.3512C37.9931 33.0969 38.121 32.4707 38.0722 32.1086C37.9939 32.0394 37.9662 32.0089 37.8999 31.9276C37.8789 31.8124 37.8683 31.7869 37.9225 31.6859C38.2613 31.4838 37.9841 31.3909 38.1381 31.1276Z" fill="white"/>
<path d="M69.5546 31.1263C69.7191 31.1304 69.9967 31.1057 70.0976 31.2364C70.0271 31.4265 70.0181 31.4378 70.1378 31.6027C70.2497 31.6195 70.3623 31.6339 70.475 31.646C70.6181 31.7667 70.5889 31.941 70.4731 32.07L70.0875 32.0782C70.0859 32.3255 70.029 32.8008 70.2349 32.9537C70.3319 32.9317 70.3604 32.924 70.459 32.9263C70.5456 33.0289 70.5198 33.0457 70.5366 33.2067L70.5046 33.328C70.4243 33.412 70.215 33.4368 70.0965 33.4533C69.406 33.5495 69.5779 32.5391 69.5315 32.1105C69.2064 31.8066 69.4041 31.7416 69.5487 31.4527C69.5659 31.4189 69.5573 31.1844 69.5546 31.1263Z" fill="white"/>
<path d="M45.2903 35.1042L45.8294 35.1141L45.8255 35.5218C45.9815 35.6627 46.1873 35.4617 46.2341 35.6771C46.2614 35.8037 46.2497 35.9273 46.1756 36.032L45.8088 36.0214C45.8057 36.2978 45.7768 36.6162 45.8864 36.8666C46.0599 36.9677 46.0061 36.829 46.2061 36.885L46.2517 36.9887C46.2435 37.0979 46.2411 37.1603 46.2154 37.2682C46.1242 37.3548 45.8864 37.4105 45.7647 37.4187C45.1792 37.4585 45.3031 36.6933 45.2829 36.3315C45.2657 36.0224 45.2957 36.1154 45.0961 35.9306C45.056 35.801 45.0517 35.7842 45.0739 35.648C45.3367 35.4626 45.2988 35.415 45.2903 35.1042Z" fill="white"/>
<path d="M44.7968 35.4954L44.8798 35.5312C44.9473 35.6571 44.9332 35.9107 44.936 36.064C44.1683 36.2401 44.3563 36.6999 44.3676 37.3811C44.212 37.3823 43.9153 37.408 43.7972 37.3359C43.7715 36.7979 43.7855 36.1124 43.782 35.5665L43.8775 35.5659C44.0857 35.5657 44.2038 35.5354 44.3574 35.7001C44.4662 35.7 44.6759 35.5585 44.7968 35.4954Z" fill="white"/>
<path d="M42.2835 31.561L42.3926 31.5863C42.4924 31.6998 42.5357 32.1235 42.3466 32.1423C41.7548 32.201 41.8882 32.926 41.8944 33.4118C41.7326 33.4112 41.4402 33.4383 41.3307 33.3576C41.3346 32.7747 41.3318 32.1918 41.3232 31.6089C41.4815 31.6079 41.7505 31.5861 41.8768 31.6624L41.8878 31.8112L41.9322 31.8171C42.0726 31.6765 42.1069 31.6558 42.2835 31.561Z" fill="white"/>
<path d="M61.3547 35.4993C61.4136 35.5078 61.4362 35.5192 61.4916 35.5385C61.5684 35.6856 61.5536 35.893 61.5559 36.0638C60.7887 36.209 60.9376 36.7252 60.9341 37.3853L60.4097 37.3775C60.375 36.8824 60.3945 36.0792 60.391 35.5687C60.9551 35.5501 60.7228 35.6567 61.0156 35.721C61.1325 35.6493 61.2409 35.5762 61.3547 35.4993Z" fill="white"/>
<path d="M55.2744 30.9542C55.4046 30.9689 55.6869 30.9643 55.8288 30.9662L55.8292 33.4164C55.6537 33.4099 55.4569 33.4138 55.2799 33.4131L55.2744 30.9542Z" fill="white"/>
<path d="M67.1632 35.4985L67.2657 35.5216C67.3659 35.6596 67.3324 35.8853 67.3254 36.0669C66.578 36.1819 66.7304 36.7773 66.7429 37.3809C66.5831 37.3829 66.3184 37.4066 66.2034 37.3333C66.187 36.7631 66.2006 36.1325 66.201 35.5579C66.3687 35.5619 66.5605 35.5503 66.7071 35.6243L66.7421 35.7466L66.7971 35.7555C66.9441 35.6074 66.9737 35.588 67.1632 35.4985Z" fill="white"/>
<path d="M66.5342 31.6096L67.1365 31.6102C67.1123 32.1976 67.124 32.8211 67.1268 33.4121L66.5474 33.4126C66.5478 32.8208 66.5576 32.198 66.5342 31.6096Z" fill="white"/>
<path d="M34.9609 31.6045C35.1527 31.6159 35.3641 31.6063 35.5576 31.6022C35.5181 32.1516 35.5373 32.855 35.5453 33.4148L34.986 33.4121C34.9851 33.0083 35.0058 31.9566 34.9609 31.6045Z" fill="white"/>
<path d="M48.0908 31.611L48.6561 31.6055C48.6164 32.0625 48.6429 32.9275 48.6448 33.4149L48.1068 33.413C48.1111 32.8123 48.1056 32.2115 48.0908 31.611Z" fill="white"/>
<path d="M70.8556 31.6079C70.9858 31.6084 71.3094 31.592 71.4064 31.6442C71.3842 32.2246 71.3963 32.8314 71.4006 33.4144L70.8677 33.4136C70.8587 32.8118 70.8548 32.2099 70.8556 31.6079Z" fill="white"/>
<path d="M66.5447 30.9647L67.1283 30.9653C67.1299 31.1042 67.126 31.3427 67.1447 31.4724C66.926 31.4581 66.742 31.4661 66.5244 31.4736C66.5381 31.292 66.5447 31.1469 66.5447 30.9647Z" fill="white"/>
<path d="M34.9855 30.9653L35.5484 30.9707C35.5487 31.1159 35.541 31.3523 35.5695 31.4872C35.3827 31.4512 35.1552 31.4635 34.9619 31.4661L34.9855 30.9653Z" fill="white"/>
<path d="M70.8346 30.9635L71.4034 30.9758C71.3964 31.155 71.4077 31.2952 71.4201 31.4724C71.1952 31.4611 71.0513 31.4417 70.8311 31.4997C70.8482 31.4205 70.8361 31.0652 70.8346 30.9635Z" fill="white"/>
<path d="M48.0869 30.9681L48.6487 30.9707C48.6495 31.1126 48.6421 31.3506 48.6701 31.4819C48.4522 31.4507 48.2978 31.4635 48.0811 31.4733C48.0857 31.3018 48.09 31.1402 48.0869 30.9681Z" fill="white"/>
<path d="M34.9612 31.4661C35.1545 31.4636 35.382 31.4513 35.5688 31.4872L35.5576 31.6022C35.3641 31.6064 35.1527 31.616 34.9609 31.6046L34.9612 31.4661Z" fill="white" fill-opacity="0.0235294"/>
<path d="M66.5244 31.4735C66.742 31.466 66.926 31.458 67.1447 31.4723L67.1353 31.6102L66.533 31.6096L66.5244 31.4735Z" fill="white" fill-opacity="0.0235294"/>
<path d="M71.4201 31.4725C71.4283 31.5701 71.4459 31.5755 71.4065 31.6443C71.3094 31.5921 70.9858 31.6085 70.8556 31.6081L70.8311 31.4998C71.0513 31.4418 71.1952 31.4612 71.4201 31.4725Z" fill="white" fill-opacity="0.0313725"/>
<path d="M48.0811 31.4732C48.2978 31.4633 48.4522 31.4506 48.6701 31.4817L48.6569 31.6051L48.0916 31.6106L48.0811 31.4732Z" fill="white" fill-opacity="0.0313725"/>
<g clip-path="url(#clip0_2626_24277)">
<path d="M121.849 19.3064L119.121 24.4848L111.053 7.23865H115.883L121.849 19.3064Z" fill="white"/>
<path d="M131.374 19.3064L128.646 24.4848L120.578 7.23865H125.41L131.374 19.3064Z" fill="white"/>
<path d="M134.009 12.0474C133.883 11.3777 133.657 10.7309 133.339 10.1286C133.02 9.54846 132.628 9.01217 132.172 8.53316C131.607 7.95054 130.925 7.49366 130.172 7.19235H134.009L137.107 7.16943C136.655 7.65369 136.245 8.17569 135.882 8.72972C135.512 9.29259 135.188 9.8205 134.911 10.3134C134.587 10.8994 134.287 11.4774 134.009 12.0474Z" fill="white"/>
<path d="M144.061 6.90754V24.7938H139.882V6.90754H144.061ZM148.981 6.85968C149.697 6.85627 150.406 7.00684 151.058 7.30118C151.698 7.58661 152.275 7.99653 152.754 8.50704C153.241 9.03194 153.626 9.64335 153.888 10.3097C154.17 11.0202 154.312 11.7784 154.306 12.5427C154.314 13.3262 154.172 14.104 153.888 14.8342C153.63 15.5028 153.245 16.1151 152.754 16.6374C152.273 17.1422 151.691 17.5411 151.047 17.8087C150.369 18.0908 149.642 18.233 148.908 18.2268H147.451C147.827 17.9971 148.159 17.7018 148.43 17.3549C148.748 16.9565 149.012 16.5191 149.219 16.0534C149.451 15.5293 149.623 14.9806 149.732 14.4177C149.853 13.8003 149.913 13.1724 149.911 12.5432C149.914 11.906 149.854 11.2701 149.732 10.6448C149.624 10.0854 149.452 9.5404 149.219 9.02086C149.01 8.55999 148.746 8.12686 148.43 7.73148C148.159 7.38474 147.827 7.08948 147.451 6.85968H148.979H148.981Z" fill="white"/>
<path d="M157.606 19.3253C157.924 19.8436 158.283 20.3348 158.681 20.7939C159.05 21.2196 159.449 21.6186 159.875 21.9881C160.267 22.33 160.682 22.6451 161.117 22.9312C161.53 23.2028 161.928 23.4416 162.311 23.6477C163.181 24.1172 164.103 24.4857 165.057 24.7461H157.606V19.3253Z" fill="white"/>
<path d="M166.49 14.3342C167.263 14.6555 167.987 15.0857 168.639 15.6118C169.26 16.1122 169.796 16.7092 170.227 17.3799C170.648 18.0406 170.967 18.7619 171.17 19.5187C171.377 20.2885 171.45 21.0884 171.385 21.883L163.481 18.683V18.6591C162.661 18.3271 161.89 17.8853 161.189 17.3458C160.472 16.8046 159.83 16.1711 159.278 15.4616C158.746 14.777 158.319 14.0162 158.013 13.2047C157.716 12.4332 157.594 11.6052 157.657 10.7808L166.49 14.3342Z" fill="white"/>
<path d="M171.481 11.1581C171.374 11.4378 171.207 11.6906 170.991 11.8986C170.786 12.0995 170.542 12.2577 170.275 12.364C170.008 12.4683 169.725 12.5249 169.439 12.531C169.141 12.5393 168.845 12.4874 168.567 12.3782C168.288 12.2715 168.035 12.1044 167.827 11.8889C167.623 11.6787 167.461 11.4316 167.349 11.1607C167.238 10.8915 167.177 10.604 167.17 10.3128C167.163 10.0126 167.224 9.71465 167.349 9.44151C167.509 9.10223 167.587 8.72985 167.576 8.3548C167.56 8.08015 167.5 7.80992 167.397 7.5548C167.284 7.31561 167.121 7.10377 166.919 6.93405C167.302 6.9195 167.687 6.94355 168.065 7.00585C168.447 7.08342 168.821 7.19121 169.186 7.32819C169.633 7.49864 170.052 7.7363 170.428 8.03297C171.607 8.9703 171.958 10.012 171.481 11.1581Z" fill="white"/>
<path d="M180.255 6.90757V24.7938H176.076V6.90757H180.255ZM185.175 6.8597C185.891 6.85628 186.599 7.00685 187.252 7.30121C187.892 7.58661 188.468 7.99654 188.948 8.50707C189.435 9.03191 189.82 9.64333 190.082 10.3098C190.364 11.0202 190.506 11.7784 190.5 12.5427C190.508 13.3262 190.366 14.104 190.082 14.8343C189.824 15.5029 189.438 16.1152 188.948 16.6375C188.466 17.1423 187.884 17.5412 187.24 17.8087C186.563 18.0909 185.835 18.2331 185.101 18.2268H183.644C184.021 17.997 184.354 17.7014 184.626 17.354C184.943 16.9555 185.207 16.5181 185.413 16.0524C185.647 15.5287 185.82 14.9804 185.929 14.4177C186.051 13.8003 186.111 13.1724 186.109 12.5432C186.111 11.9061 186.051 11.2702 185.929 10.6448C185.822 10.0854 185.65 9.54046 185.416 9.02088C185.207 8.55919 184.942 8.12536 184.626 7.72947C184.354 7.38277 184.022 7.08751 183.646 6.85767H185.174L185.175 6.8597Z" fill="white"/>
<path d="M121.72 29.1702L121.12 31.0172H120.806L120.466 29.8765L120.125 31.0172H119.81L119.21 29.1702H119.589L119.979 30.3638L120.316 29.1702H120.612L120.949 30.3664L121.344 29.1702H121.72Z" fill="white"/>
<path d="M123.969 30.0935C123.97 30.2223 123.944 30.3498 123.892 30.4678C123.842 30.5824 123.77 30.6862 123.681 30.7733C123.591 30.8599 123.485 30.929 123.369 30.977C123.127 31.077 122.854 31.077 122.611 30.977C122.495 30.9292 122.389 30.8601 122.299 30.7733C122.209 30.6862 122.138 30.5824 122.088 30.4678C122.037 30.349 122.011 30.2212 122.011 30.0919C122.011 29.9627 122.037 29.8349 122.088 29.7161C122.138 29.6015 122.209 29.4977 122.299 29.4106C122.485 29.2321 122.733 29.1328 122.991 29.1336C123.182 29.1321 123.368 29.1866 123.529 29.2902C123.689 29.3938 123.815 29.5421 123.892 29.7166C123.944 29.8353 123.97 29.9638 123.969 30.0935ZM123.613 30.0935C123.612 30.0112 123.595 29.9299 123.562 29.8546C123.53 29.7814 123.485 29.7148 123.429 29.6586C123.372 29.6019 123.305 29.5565 123.231 29.5247C123.156 29.4911 123.074 29.4737 122.991 29.4737C122.907 29.4736 122.824 29.4909 122.748 29.5247C122.674 29.5565 122.607 29.602 122.55 29.6586C122.494 29.7149 122.449 29.7814 122.417 29.8546C122.386 29.93 122.369 30.0111 122.369 30.093C122.369 30.1748 122.386 30.2559 122.417 30.3313C122.449 30.4051 122.494 30.4721 122.55 30.5289C122.607 30.5855 122.674 30.6309 122.748 30.6628C122.824 30.6965 122.907 30.7139 122.991 30.7137C123.074 30.7137 123.156 30.6964 123.231 30.6628C123.305 30.6309 123.372 30.5855 123.429 30.5289C123.485 30.4722 123.531 30.4051 123.562 30.3313C123.594 30.2562 123.611 30.1753 123.611 30.0935H123.613Z" fill="white"/>
<path d="M125.867 31.0172H125.473L125.342 30.5971C125.329 30.5532 125.312 30.5107 125.291 30.4703C125.271 30.4325 125.246 30.3981 125.216 30.3684C125.186 30.34 125.15 30.318 125.111 30.3037C125.065 30.2875 125.016 30.2797 124.967 30.2808H124.833V31.0151H124.479V29.1702H125.208C125.283 29.1695 125.357 29.1831 125.427 29.2104C125.492 29.2359 125.551 29.274 125.602 29.3225C125.651 29.3704 125.69 29.4277 125.717 29.491C125.745 29.5576 125.759 29.6291 125.758 29.7013C125.758 29.7546 125.75 29.8076 125.733 29.8582C125.716 29.9085 125.692 29.9561 125.661 29.9992C125.631 30.0423 125.594 30.0807 125.552 30.1133C125.511 30.1461 125.464 30.1714 125.414 30.1881C125.468 30.2073 125.517 30.2395 125.556 30.2818C125.594 30.3249 125.623 30.3746 125.643 30.4285C125.654 30.4546 125.664 30.4808 125.673 30.5069L125.701 30.5889L125.733 30.6811L125.771 30.7906C125.788 30.8415 125.804 30.8849 125.818 30.9209C125.832 30.9543 125.848 30.9865 125.867 31.0172ZM125.401 29.7263C125.401 29.6858 125.393 29.6456 125.376 29.6086C125.361 29.574 125.338 29.5427 125.311 29.5165C125.282 29.4899 125.249 29.4691 125.212 29.4554C125.174 29.4406 125.132 29.4331 125.091 29.4335H124.832V30.0084H125.091C125.132 30.0086 125.173 30.0019 125.212 29.9885C125.248 29.9765 125.282 29.9572 125.311 29.932C125.339 29.9065 125.362 29.8751 125.378 29.84C125.393 29.8048 125.401 29.7667 125.401 29.7283V29.7263Z" fill="white"/>
<path d="M127.569 31.0172H126.32V29.1722H126.685V30.6709H127.569V31.0172Z" fill="white"/>
<path d="M129.649 30.0934C129.65 30.2161 129.628 30.3378 129.584 30.4524C129.543 30.5607 129.482 30.6602 129.404 30.7458C129.325 30.8323 129.228 30.9012 129.12 30.948C129.012 30.9947 128.896 31.0183 128.778 31.0172H128.007V29.1702H128.778C128.899 29.169 129.018 29.1942 129.128 29.244C129.232 29.2913 129.326 29.3588 129.404 29.4426C129.483 29.5279 129.544 29.6275 129.584 29.736C129.628 29.8501 129.65 29.9713 129.649 30.0934ZM129.287 30.0843C129.289 30.0009 129.275 29.9179 129.247 29.8393C129.221 29.7642 129.18 29.6949 129.127 29.6356C129.073 29.577 129.007 29.5307 128.934 29.4997C128.853 29.465 128.765 29.4477 128.676 29.4488H128.367V30.7096H128.679C128.766 30.7113 128.852 30.6952 128.933 30.6623C129.005 30.6326 129.07 30.5878 129.124 30.5309C129.177 30.4733 129.218 30.4058 129.245 30.3323C129.273 30.2527 129.287 30.1685 129.287 30.0843Z" fill="white"/>
<path d="M132.412 29.791C132.412 29.8756 132.395 29.9593 132.361 30.0369C132.329 30.1112 132.283 30.1787 132.225 30.2355C132.167 30.2925 132.098 30.3374 132.022 30.3674C131.944 30.3991 131.86 30.4152 131.776 30.4148H131.471V31.0172H131.114V29.1722H131.776C131.86 29.1718 131.943 29.1879 132.021 29.2196C132.097 29.2494 132.166 29.2937 132.225 29.35C132.282 29.4059 132.328 29.4725 132.36 29.546C132.395 29.6232 132.412 29.7066 132.412 29.791ZM132.055 29.7864C132.055 29.7413 132.046 29.6966 132.029 29.655C132.011 29.6134 131.986 29.5757 131.953 29.544C131.922 29.5129 131.885 29.4878 131.845 29.4702C131.803 29.4516 131.757 29.4423 131.711 29.4427H131.473V30.1398H131.711C131.757 30.1401 131.803 30.1301 131.845 30.1108C131.886 30.092 131.923 30.0658 131.953 30.0334C131.984 30.0008 132.009 29.9628 132.026 29.9213C132.044 29.8786 132.054 29.8328 132.054 29.7864H132.055Z" fill="white"/>
<path d="M134.76 30.0935C134.76 30.2223 134.734 30.3498 134.682 30.4678C134.633 30.5824 134.561 30.6863 134.471 30.7733C134.381 30.8599 134.276 30.9289 134.16 30.977C133.918 31.077 133.645 31.077 133.403 30.977C133.286 30.9292 133.18 30.8601 133.09 30.7733C133 30.6862 132.929 30.5824 132.879 30.4678C132.828 30.349 132.802 30.2212 132.802 30.0919C132.802 29.9627 132.828 29.8349 132.879 29.7161C132.929 29.6014 133 29.4976 133.09 29.4106C133.276 29.2321 133.524 29.1328 133.782 29.1336C133.973 29.1322 134.159 29.1867 134.32 29.2903C134.48 29.3939 134.606 29.5421 134.683 29.7166C134.735 29.8354 134.761 29.9638 134.76 30.0935ZM134.403 30.0935C134.403 30.0112 134.386 29.9299 134.352 29.8546C134.321 29.7815 134.276 29.7149 134.219 29.6586C134.162 29.602 134.095 29.5566 134.022 29.5247C133.945 29.492 133.863 29.4751 133.78 29.4751C133.697 29.4751 133.615 29.492 133.538 29.5247C133.465 29.5565 133.398 29.602 133.341 29.6586C133.284 29.7149 133.239 29.7814 133.208 29.8546C133.176 29.93 133.16 30.0111 133.16 30.093C133.16 30.1748 133.176 30.2559 133.208 30.3313C133.239 30.4051 133.284 30.4721 133.341 30.5289C133.398 30.5854 133.465 30.6309 133.538 30.6628C133.615 30.6954 133.697 30.7122 133.78 30.7122C133.863 30.7122 133.945 30.6954 134.022 30.6628C134.095 30.6309 134.162 30.5854 134.219 30.5289C134.276 30.4721 134.321 30.405 134.352 30.3313C134.385 30.2563 134.403 30.1754 134.403 30.0935Z" fill="white"/>
<path d="M136.658 31.0172H136.264L136.133 30.5971C136.12 30.5532 136.103 30.5107 136.082 30.4703C136.062 30.4325 136.037 30.3981 136.007 30.3684C135.977 30.34 135.941 30.3181 135.902 30.3037C135.856 30.2875 135.807 30.2797 135.758 30.2808H135.624V31.0151H135.271V29.1702H135.999C136.074 29.1695 136.148 29.1831 136.218 29.2104C136.283 29.2358 136.342 29.2739 136.393 29.3225C136.442 29.3704 136.481 29.4277 136.508 29.491C136.536 29.5576 136.55 29.6291 136.549 29.7013C136.549 29.7546 136.541 29.8076 136.524 29.8582C136.507 29.9085 136.483 29.9561 136.452 29.9992C136.422 30.0423 136.385 30.0808 136.343 30.1133C136.302 30.1461 136.255 30.1714 136.204 30.1881C136.259 30.2072 136.308 30.2394 136.347 30.2818C136.385 30.3249 136.415 30.3746 136.434 30.4285C136.445 30.455 136.454 30.4794 136.464 30.5069L136.493 30.5889L136.525 30.6811L136.562 30.7906C136.579 30.8415 136.595 30.8849 136.61 30.9209C136.623 30.9543 136.639 30.9865 136.658 31.0172ZM136.192 29.7263C136.192 29.6858 136.184 29.6456 136.167 29.6086C136.152 29.574 136.129 29.5427 136.102 29.5165C136.073 29.4899 136.04 29.4691 136.003 29.4554C135.965 29.4406 135.924 29.4331 135.882 29.4335H135.624V30.0084H135.883C135.924 30.0086 135.965 30.0019 136.004 29.9885C136.04 29.9765 136.073 29.9572 136.102 29.932C136.131 29.9065 136.154 29.8751 136.169 29.84C136.185 29.8048 136.193 29.7667 136.192 29.7283L136.192 29.7263Z" fill="white"/>
<path d="M138.377 29.491H137.868V31.0187H137.505V29.491H136.996V29.1722H138.379L138.377 29.491Z" fill="white"/>
<path d="M140.073 30.5324C140.073 30.6006 140.058 30.668 140.028 30.7295C139.998 30.7923 139.955 30.8485 139.902 30.8944C139.846 30.9439 139.781 30.9827 139.711 31.009C139.633 31.0383 139.55 31.0528 139.467 31.0518C139.394 31.0524 139.322 31.0478 139.251 31.038C139.189 31.0295 139.129 31.0149 139.07 30.9943C139.014 30.9742 138.96 30.9482 138.908 30.9169C138.853 30.8822 138.799 30.8439 138.748 30.8023L139.003 30.5477C139.067 30.6034 139.14 30.6475 139.22 30.678C139.294 30.704 139.372 30.7169 139.45 30.7162C139.483 30.7166 139.515 30.7116 139.546 30.7014C139.574 30.6924 139.601 30.6788 139.624 30.6612C139.645 30.6449 139.663 30.6244 139.675 30.6011C139.688 30.5779 139.695 30.5518 139.695 30.5252C139.695 30.4982 139.69 30.4714 139.678 30.4468C139.665 30.4202 139.645 30.3972 139.621 30.3796C139.585 30.3534 139.546 30.3313 139.505 30.3139C139.456 30.2915 139.393 30.2666 139.316 30.2391C139.249 30.2148 139.184 30.1866 139.121 30.1545C139.061 30.1246 139.006 30.086 138.957 30.04C138.91 29.9951 138.871 29.9419 138.844 29.8831C138.814 29.8164 138.799 29.7438 138.801 29.6708C138.8 29.5958 138.816 29.5216 138.848 29.4538C138.879 29.3888 138.923 29.331 138.978 29.2843C139.034 29.2362 139.099 29.1991 139.169 29.1748C139.245 29.1481 139.325 29.1348 139.406 29.1356C139.527 29.1326 139.648 29.1514 139.762 29.1911C139.858 29.2275 139.946 29.2826 140.021 29.353L139.772 29.6046C139.727 29.5615 139.676 29.527 139.619 29.5027C139.555 29.4777 139.487 29.4656 139.418 29.4671C139.385 29.4668 139.351 29.4723 139.32 29.4834C139.292 29.4931 139.266 29.5076 139.243 29.5261C139.222 29.5434 139.204 29.5645 139.192 29.5883C139.179 29.6111 139.172 29.6369 139.172 29.6631C139.171 29.6907 139.178 29.718 139.19 29.7426C139.205 29.7699 139.227 29.7936 139.252 29.8118C139.289 29.8382 139.328 29.8606 139.369 29.8785C139.417 29.9009 139.478 29.9252 139.55 29.9513C139.633 29.9793 139.712 30.0149 139.788 30.0578C139.848 30.0914 139.902 30.1342 139.949 30.1846C139.99 30.2298 140.022 30.2828 140.042 30.3404C140.062 30.4022 140.073 30.4671 140.073 30.5324Z" fill="white"/>
<path d="M142.749 30.5324C142.749 30.6007 142.734 30.6681 142.704 30.7295C142.674 30.7924 142.631 30.8485 142.578 30.8944C142.522 30.9439 142.457 30.9827 142.387 31.009C142.308 31.0383 142.225 31.0528 142.142 31.0518C142.07 31.0524 141.997 31.0478 141.926 31.0381C141.865 31.0295 141.804 31.0149 141.746 30.9943C141.689 30.9741 141.635 30.9482 141.584 30.9169C141.528 30.8822 141.475 30.8439 141.424 30.8023L141.678 30.5477C141.743 30.6035 141.816 30.6476 141.895 30.678C141.969 30.704 142.048 30.7169 142.126 30.7162C142.159 30.7166 142.191 30.7116 142.222 30.7015C142.25 30.6924 142.276 30.6788 142.3 30.6612C142.321 30.6448 142.338 30.6244 142.351 30.6011C142.364 30.578 142.371 30.5518 142.371 30.5253C142.371 30.4982 142.366 30.4714 142.355 30.4468C142.341 30.4202 142.321 30.3972 142.297 30.3796C142.261 30.3534 142.222 30.3314 142.182 30.3139C142.132 30.2915 142.069 30.2666 141.992 30.2391C141.925 30.2148 141.86 30.1866 141.797 30.1545C141.737 30.1246 141.682 30.086 141.633 30.04C141.586 29.9951 141.548 29.9419 141.52 29.8831C141.49 29.8164 141.476 29.7438 141.477 29.6708C141.477 29.5958 141.493 29.5216 141.525 29.4538C141.555 29.3888 141.599 29.331 141.654 29.2843C141.711 29.2362 141.775 29.1991 141.845 29.1748C141.922 29.1481 142.002 29.1348 142.082 29.1356C142.203 29.1326 142.324 29.1514 142.439 29.1911C142.535 29.2276 142.623 29.2826 142.697 29.353L142.448 29.6046C142.404 29.5614 142.352 29.5269 142.295 29.5027C142.231 29.4777 142.163 29.4656 142.094 29.4671C142.061 29.4668 142.028 29.4723 141.996 29.4834C141.968 29.4932 141.942 29.5076 141.919 29.5261C141.898 29.5435 141.881 29.5645 141.868 29.5883C141.855 29.6111 141.848 29.6369 141.849 29.6631C141.848 29.6907 141.854 29.718 141.867 29.7426C141.882 29.7699 141.903 29.7936 141.929 29.8118C141.965 29.8382 142.004 29.8606 142.046 29.8785C142.094 29.9009 142.155 29.9252 142.227 29.9513C142.309 29.9793 142.389 30.0149 142.465 30.0578C142.525 30.0914 142.58 30.1342 142.627 30.1846C142.667 30.2299 142.699 30.2829 142.719 30.3404C142.739 30.4023 142.75 30.4671 142.749 30.5324Z" fill="white"/>
<path d="M144.854 29.1702V30.1724C144.855 30.2894 144.836 30.4058 144.798 30.5166C144.763 30.6189 144.709 30.7134 144.638 30.7947C144.567 30.8743 144.48 30.938 144.383 30.9815C144.163 31.0717 143.916 31.0717 143.696 30.9815C143.598 30.9392 143.509 30.8768 143.436 30.7982C143.364 30.7185 143.308 30.625 143.271 30.5232C143.232 30.4139 143.213 30.2986 143.214 30.1826V29.1692H143.57V30.1851C143.57 30.2528 143.58 30.3202 143.6 30.3847C143.619 30.4442 143.648 30.4996 143.688 30.5477C143.727 30.5944 143.777 30.6318 143.832 30.6572C143.894 30.685 143.962 30.6987 144.03 30.6974C144.099 30.6989 144.169 30.6859 144.233 30.6592C144.289 30.6354 144.338 30.599 144.376 30.5528C144.415 30.5054 144.444 30.4509 144.462 30.3924C144.482 30.3263 144.492 30.2576 144.491 30.1887V29.1702H144.854Z" fill="white"/>
<path d="M146.615 30.5324C146.615 30.6006 146.599 30.668 146.57 30.7295C146.539 30.7923 146.497 30.8485 146.444 30.8944C146.387 30.9439 146.322 30.9827 146.252 31.009C146.174 31.0383 146.091 31.0528 146.008 31.0518C145.935 31.0524 145.863 31.0478 145.792 31.038C145.73 31.0295 145.67 31.0149 145.611 30.9943C145.555 30.9742 145.501 30.9482 145.449 30.9169C145.394 30.8822 145.34 30.8439 145.289 30.8023L145.544 30.5477C145.608 30.6034 145.681 30.6476 145.761 30.678C145.835 30.704 145.913 30.7169 145.991 30.7162C146.024 30.7165 146.056 30.7116 146.087 30.7014C146.115 30.6924 146.142 30.6788 146.165 30.6612C146.186 30.6449 146.204 30.6244 146.216 30.6011C146.229 30.578 146.236 30.5518 146.236 30.5252C146.237 30.4982 146.231 30.4715 146.22 30.4468C146.206 30.4202 146.187 30.3971 146.162 30.3796C146.127 30.3534 146.088 30.3313 146.047 30.3139C145.998 30.2915 145.934 30.2666 145.857 30.2391C145.791 30.2148 145.726 30.1866 145.662 30.1545C145.602 30.1246 145.547 30.086 145.498 30.04C145.451 29.9951 145.413 29.9419 145.385 29.8831C145.355 29.8164 145.341 29.7438 145.343 29.6708C145.342 29.5958 145.358 29.5216 145.39 29.4538C145.421 29.3888 145.465 29.331 145.519 29.2843C145.576 29.2362 145.641 29.1991 145.711 29.1748C145.787 29.1481 145.867 29.1348 145.947 29.1356C146.069 29.1326 146.189 29.1514 146.304 29.1911C146.4 29.2275 146.488 29.2826 146.563 29.353L146.313 29.6046C146.269 29.5615 146.217 29.527 146.16 29.5027C146.096 29.4776 146.028 29.4655 145.959 29.4671C145.926 29.4668 145.893 29.4723 145.861 29.4834C145.833 29.4931 145.807 29.5076 145.784 29.5261C145.763 29.5434 145.745 29.5645 145.733 29.5883C145.72 29.6111 145.713 29.6369 145.713 29.6631C145.712 29.6907 145.719 29.718 145.731 29.7426C145.746 29.77 145.768 29.7936 145.793 29.8118C145.83 29.8382 145.869 29.8606 145.91 29.8785C145.958 29.9009 146.019 29.9252 146.091 29.9513C146.174 29.9793 146.253 30.0149 146.329 30.0578C146.389 30.0914 146.443 30.1342 146.49 30.1846C146.531 30.2298 146.563 30.2828 146.583 30.3404C146.604 30.4022 146.615 30.4671 146.615 30.5324Z" fill="white"/>
<path d="M148.369 29.491H147.86V31.0187H147.498V29.491H146.988V29.1722H148.371L148.369 29.491Z" fill="white"/>
<path d="M150.394 31.0172H150.002L149.831 30.648H148.935L148.762 31.0172H148.369L149.242 29.1702H149.521L150.394 31.0172ZM149.69 30.3501L149.385 29.685L149.073 30.3501H149.69Z" fill="white"/>
<path d="M151.168 31.0172H150.812V29.1722H151.168V31.0172Z" fill="white"/>
<path d="M153.279 31.0172H152.929L152.095 29.7217V31.0172H151.744V29.1702H152.146L152.929 30.3755V29.1702H153.279V31.0172Z" fill="white"/>
<path d="M155.721 31.0172H155.329L155.158 30.648H154.262L154.089 31.0172H153.696L154.569 29.1702H154.849L155.721 31.0172ZM155.017 30.3501L154.712 29.685L154.4 30.3501H155.017Z" fill="white"/>
<path d="M157.453 30.4886C157.454 30.5624 157.438 30.6354 157.406 30.702C157.375 30.7659 157.333 30.8232 157.28 30.8706C157.227 30.918 157.165 30.9551 157.099 30.9801C157.03 31.0063 156.957 31.0196 156.883 31.0193H156.137V29.1723H156.803C156.879 29.1715 156.955 29.1836 157.026 29.2079C157.092 29.2297 157.153 29.2643 157.205 29.3098C157.256 29.3557 157.297 29.4124 157.324 29.4758C157.354 29.5455 157.368 29.6206 157.367 29.6963C157.367 29.7658 157.351 29.8344 157.321 29.8969C157.292 29.9594 157.25 30.0152 157.198 30.0609C157.238 30.0806 157.274 30.1064 157.306 30.1373C157.337 30.1675 157.365 30.2017 157.387 30.2391C157.431 30.3143 157.455 30.3999 157.455 30.4871L157.453 30.4886ZM157.012 29.7034C157.013 29.6634 157.004 29.6237 156.987 29.5878C156.97 29.5561 156.947 29.5285 156.918 29.5068C156.889 29.484 156.856 29.4668 156.82 29.4559C156.783 29.445 156.744 29.4395 156.705 29.4396H156.494V29.9489C156.533 29.9489 156.567 29.9489 156.596 29.9489H156.702C156.741 29.949 156.78 29.9444 156.818 29.9351C156.853 29.9267 156.887 29.9119 156.916 29.8913C156.945 29.8712 156.968 29.8447 156.985 29.8139C157.002 29.7798 157.012 29.7419 157.012 29.7034ZM157.081 30.4673C157.082 30.4306 157.074 30.3943 157.059 30.3608C157.046 30.3295 157.025 30.3015 156.999 30.2788C156.974 30.2566 156.944 30.2393 156.912 30.2279C156.877 30.2154 156.841 30.2092 156.804 30.2096C156.753 30.2096 156.702 30.2096 156.652 30.2096H156.499V30.7188H156.767C156.806 30.7188 156.844 30.7142 156.882 30.7051C156.919 30.6963 156.953 30.681 156.984 30.6597C157.014 30.6393 157.039 30.6125 157.057 30.5813C157.075 30.5463 157.083 30.5071 157.081 30.4678L157.081 30.4673Z" fill="white"/>
<path d="M158.296 31.0172H157.939V29.1722H158.296V31.0172Z" fill="white"/>
<path d="M160.122 31.0172H158.873V29.1722H159.238V30.6709H160.122V31.0172Z" fill="white"/>
<path d="M160.921 31.0172H160.564V29.1722H160.921V31.0172Z" fill="white"/>
<path d="M162.764 29.491H162.255V31.0187H161.892V29.491H161.383V29.1722H162.766L162.764 29.491Z" fill="white"/>
<path d="M164.903 29.1722L164.151 30.262V31.0192H163.788V30.2553L163.075 29.1702H163.491L163.971 29.9457L164.472 29.1702L164.903 29.1722Z" fill="white"/>
<path d="M167.586 29.791C167.586 29.8756 167.569 29.9593 167.535 30.0369C167.503 30.1112 167.457 30.1787 167.399 30.2355C167.341 30.2926 167.271 30.3374 167.196 30.3674C167.118 30.3991 167.034 30.4152 166.95 30.4148H166.645V31.0172H166.288V29.1722H166.95C167.034 29.1718 167.117 29.1879 167.195 29.2196C167.271 29.2494 167.34 29.2937 167.399 29.35C167.456 29.4059 167.502 29.4725 167.534 29.546C167.568 29.6232 167.586 29.7066 167.586 29.791ZM167.229 29.7864C167.23 29.7404 167.221 29.6948 167.203 29.6525C167.186 29.612 167.161 29.5752 167.13 29.544C167.099 29.5129 167.062 29.4878 167.021 29.4702C166.979 29.4516 166.934 29.4423 166.887 29.4427H166.65V30.1398H166.887C166.934 30.14 166.979 30.1301 167.021 30.1108C167.062 30.0921 167.099 30.0658 167.13 30.0334C167.161 30.0008 167.185 29.9628 167.203 29.9213C167.22 29.8785 167.228 29.8326 167.228 29.7864H167.229Z" fill="white"/>
<path d="M169.43 31.0172H169.036L168.905 30.5971C168.892 30.5532 168.875 30.5107 168.854 30.4703C168.834 30.4325 168.809 30.3981 168.779 30.3684C168.749 30.34 168.713 30.318 168.674 30.3037C168.628 30.2875 168.579 30.2797 168.53 30.2808H168.396V31.0151H168.043V29.1702H168.771C168.846 29.1695 168.92 29.1831 168.99 29.2104C169.055 29.2358 169.115 29.2739 169.165 29.3225C169.215 29.3704 169.254 29.4277 169.28 29.491C169.309 29.5575 169.323 29.6291 169.322 29.7013C169.322 29.7546 169.314 29.8076 169.297 29.8582C169.28 29.9085 169.256 29.9561 169.225 29.9992C169.195 30.0423 169.158 30.0808 169.116 30.1133C169.075 30.1462 169.028 30.1715 168.977 30.1881C169.032 30.2073 169.08 30.2395 169.119 30.2818C169.157 30.3249 169.187 30.3746 169.207 30.4285C169.217 30.455 169.227 30.4794 169.236 30.5069L169.265 30.5889L169.297 30.6811L169.334 30.7906C169.351 30.8415 169.367 30.8848 169.382 30.9209C169.395 30.9543 169.411 30.9865 169.43 31.0172ZM168.964 29.7263C168.964 29.6858 168.956 29.6457 168.94 29.6086C168.907 29.538 168.848 29.4831 168.776 29.4559C168.737 29.4411 168.696 29.4336 168.655 29.434H168.396V30.0089H168.655C168.696 30.0091 168.737 30.0024 168.776 29.989C168.812 29.977 168.845 29.9578 168.874 29.9325C168.902 29.9077 168.925 29.8774 168.94 29.8434C168.957 29.8069 168.966 29.7671 168.966 29.7268L168.964 29.7263Z" fill="white"/>
<path d="M171.775 30.0935C171.776 30.2223 171.75 30.3498 171.698 30.4678C171.648 30.5824 171.577 30.6862 171.487 30.7733C171.397 30.8599 171.291 30.9289 171.176 30.977C170.933 31.077 170.661 31.077 170.418 30.977C170.302 30.9292 170.196 30.8601 170.105 30.7733C170.016 30.6862 169.944 30.5824 169.895 30.4678C169.844 30.349 169.817 30.2212 169.817 30.0919C169.817 29.9627 169.844 29.8349 169.895 29.7161C169.944 29.6015 170.016 29.4976 170.105 29.4106C170.292 29.2321 170.54 29.1327 170.797 29.1336C170.988 29.1323 171.175 29.1868 171.335 29.2904C171.495 29.3941 171.621 29.5422 171.698 29.7166C171.75 29.8354 171.776 29.9638 171.775 30.0935ZM171.419 30.0935C171.419 30.0112 171.401 29.9298 171.368 29.8546C171.336 29.7814 171.291 29.7149 171.235 29.6586C171.178 29.6019 171.111 29.5565 171.037 29.5247C170.961 29.4919 170.879 29.4751 170.796 29.4751C170.713 29.4751 170.63 29.4919 170.554 29.5247C170.48 29.5565 170.413 29.602 170.357 29.6586C170.3 29.7148 170.255 29.7814 170.224 29.8546C170.192 29.93 170.175 30.0111 170.175 30.093C170.175 30.1748 170.192 30.2559 170.224 30.3313C170.255 30.4051 170.3 30.4722 170.357 30.5289C170.413 30.5854 170.48 30.6309 170.554 30.6628C170.63 30.6954 170.713 30.7122 170.796 30.7122C170.879 30.7122 170.961 30.6954 171.037 30.6628C171.111 30.6309 171.178 30.5855 171.235 30.5289C171.292 30.4722 171.337 30.4051 171.368 30.3313C171.4 30.2561 171.416 30.1752 171.416 30.0935H171.419Z" fill="white"/>
<path d="M173.983 30.6776C173.933 30.74 173.876 30.7963 173.813 30.8451C173.753 30.891 173.688 30.9301 173.62 30.9618C173.555 30.9921 173.486 31.015 173.416 31.03C173.217 31.0722 173.01 31.0544 172.821 30.9791C172.704 30.9319 172.598 30.8628 172.507 30.7754C172.417 30.6882 172.345 30.5845 172.295 30.4698C172.243 30.3512 172.217 30.2233 172.217 30.094C172.217 29.9647 172.243 29.8368 172.295 29.7182C172.345 29.6033 172.417 29.4995 172.507 29.4127C172.599 29.3258 172.705 29.2567 172.822 29.209C172.944 29.1584 173.076 29.1328 173.208 29.1336C173.358 29.1318 173.506 29.1651 173.641 29.2309C173.768 29.2932 173.881 29.3813 173.972 29.4896L173.73 29.7366C173.671 29.6502 173.591 29.5802 173.498 29.5329C173.407 29.4911 173.309 29.4702 173.209 29.4717C173.125 29.4719 173.041 29.4892 172.963 29.5227C172.887 29.5537 172.818 29.5988 172.759 29.6556C172.702 29.7117 172.655 29.7785 172.623 29.8521C172.59 29.928 172.574 30.0097 172.574 30.0923C172.574 30.1748 172.59 30.2565 172.623 30.3324C172.673 30.4459 172.754 30.5424 172.858 30.6099C172.962 30.6774 173.083 30.713 173.207 30.7122C173.288 30.7126 173.368 30.6969 173.442 30.6659C173.514 30.6361 173.581 30.5948 173.64 30.5437V30.366H173.259V30.0604H173.981L173.983 30.6776Z" fill="white"/>
<path d="M175.878 31.0172H175.484L175.353 30.5971C175.34 30.5531 175.323 30.5107 175.302 30.4703C175.283 30.4324 175.257 30.398 175.227 30.3684C175.197 30.34 175.161 30.318 175.122 30.3037C175.076 30.2875 175.027 30.2797 174.978 30.2808H174.845V31.0151H174.491V29.1702H175.219C175.294 29.1695 175.369 29.1831 175.438 29.2104C175.504 29.2358 175.563 29.2739 175.614 29.3225C175.663 29.3704 175.702 29.4277 175.729 29.491C175.757 29.5575 175.771 29.6291 175.77 29.7013C175.77 29.7546 175.761 29.8076 175.744 29.8582C175.728 29.9085 175.704 29.9561 175.673 29.9992C175.643 30.0423 175.606 30.0807 175.564 30.1133C175.523 30.1461 175.476 30.1714 175.426 30.1881C175.48 30.2073 175.529 30.2395 175.568 30.2818C175.606 30.3249 175.635 30.3746 175.655 30.4285C175.665 30.4546 175.675 30.4808 175.684 30.5069L175.713 30.5889L175.745 30.6811L175.783 30.7906C175.799 30.8415 175.815 30.8848 175.83 30.9209C175.843 30.9543 175.86 30.9865 175.878 31.0172ZM175.412 29.7263C175.412 29.6858 175.404 29.6456 175.387 29.6086C175.372 29.5739 175.349 29.5426 175.322 29.5165C175.293 29.4899 175.26 29.4691 175.224 29.4554C175.185 29.4406 175.144 29.4331 175.102 29.4335H174.844V30.0084H175.102C175.144 30.0086 175.185 30.0019 175.224 29.9885C175.26 29.9765 175.293 29.9573 175.322 29.932C175.35 29.9072 175.372 29.8768 175.387 29.8429C175.404 29.8065 175.412 29.7663 175.412 29.7263Z" fill="white"/>
<path d="M178.194 31.0172H177.801L177.63 30.648H176.734L176.561 31.0172H176.168L177.041 29.1702H177.32L178.194 31.0172ZM177.489 30.3501L177.184 29.685L176.872 30.3501H177.489Z" fill="white"/>
<path d="M180.454 31.0173H180.103V29.7844L179.521 30.7657L178.961 29.7752V31.0178H178.61V29.1708H179.014L179.527 30.0874L180.063 29.1708H180.453L180.454 31.0173Z" fill="white"/>
</g>
</g>
<defs>
<clipPath id="clip0_2626_24277">
<rect width="79.4468" height="24.1921" fill="white" transform="translate(111.053 6.85974)"/>
</clipPath>
</defs>
</svg>
