<svg width="26" height="25" viewBox="0 0 26 25" fill="none" xmlns="http://www.w3.org/2000/svg">
<path d="M12.7159 0C7.631 0 3.24723 2.93769 1.21411 7.17756L1.64803 7.05751C2.0719 6.94029 2.49864 6.81035 2.9498 6.67194C4.37945 6.23411 5.85939 5.78216 7.35513 5.73696C7.44565 5.73414 7.53617 5.73273 7.62669 5.73273C9.13105 5.73273 10.7216 6.10135 12.6312 6.89227C13.2131 7.13378 13.7792 7.40636 14.3266 7.67047C15.4905 8.23117 16.5896 8.76222 17.8095 8.99808C18.5682 9.14496 19.3915 9.21699 20.3268 9.21699C21.3456 9.21699 22.3542 9.13649 23.4218 9.05034C23.758 9.0235 24.0942 8.99667 24.4304 8.97124C24.5871 8.95995 24.7465 8.95147 24.9046 8.94017C23.3471 3.77239 18.482 0 12.7159 0Z" fill="#AFD0FF"/>
<path d="M23.4376 9.68182C23.1775 9.703 22.9175 9.72419 22.6588 9.74255C21.8801 9.80045 21.1042 9.84706 20.3297 9.84706C19.4475 9.84706 18.5682 9.78774 17.6888 9.61685C15.7764 9.2454 14.1571 8.20732 12.3855 7.4729C10.8768 6.84864 9.27907 6.36279 7.62959 6.36279C7.54625 6.36279 7.46148 6.36279 7.3767 6.36703C5.51457 6.42352 3.60358 7.17348 1.82191 7.66498C1.51012 7.75113 1.19833 7.83729 0.886535 7.92344C0.563248 8.7313 0.318986 9.5773 0.172429 10.4572C0.172429 10.4586 0.172429 10.46 0.172429 10.4614C0.172429 10.4671 0.170992 10.4727 0.169556 10.4784C1.12649 10.7496 2.15526 11.0815 3.09063 11.3922C3.25731 11.4473 3.38087 11.4882 3.44697 11.5094C4.45993 11.8258 5.43985 12.241 6.38816 12.6421C7.76608 13.2254 9.06929 13.7762 10.4731 14.0587C10.9056 14.1463 11.3524 14.19 11.8021 14.19C13.9459 14.19 15.9833 13.2155 17.9532 12.2721C19.1458 11.7015 20.4979 11.0546 21.9562 10.6775C22.5195 10.532 23.5755 10.3626 24.7739 10.2114C24.9147 10.1931 25.0598 10.1761 25.2049 10.1592C25.1661 9.95722 25.123 9.75808 25.0742 9.55894C24.8744 9.57165 24.6747 9.58436 24.4779 9.59849C24.1302 9.62391 23.7824 9.65216 23.4362 9.67899L23.4376 9.68182Z" fill="#4780CF"/>
<path d="M23.7508 10.9865C23.2652 11.0585 22.8341 11.1319 22.4936 11.2026C22.3542 11.2308 22.2263 11.2591 22.12 11.2873C20.7622 11.6376 19.4921 12.2364 18.2348 12.8381C18.0452 12.9285 17.8555 13.0188 17.6644 13.1092C17.3138 13.2745 16.9618 13.4383 16.6055 13.5951C16.4129 13.6798 16.2204 13.7632 16.025 13.8422C14.6657 14.4015 13.2648 14.8182 11.8021 14.8182C11.6024 14.8182 11.4013 14.8083 11.2001 14.7928C11.1398 14.7885 11.0794 14.7829 11.0191 14.7772C10.7964 14.7532 10.5722 14.7207 10.3452 14.6755C7.85803 14.1756 5.65537 12.8607 3.25299 12.1093C2.95413 12.0161 1.52448 11.5203 0.0818994 11.1079C0.0301735 11.5655 0 12.0288 0 12.4991C0 13.5132 0.126441 14.4976 0.359208 15.441C1.10349 15.2165 1.94403 15.1006 2.87366 15.1006C4.38665 15.1006 6.13527 15.3972 8.06781 15.9805C9.54918 16.4283 10.9961 17.0327 12.3941 17.6189C13.6485 18.1443 14.9459 18.6866 16.2376 19.099C16.7448 19.2614 17.2161 19.3928 17.6802 19.5015C18.6055 19.719 19.5826 19.8292 20.5826 19.8292C21.4533 19.8292 22.3197 19.7473 23.1747 19.6046C24.5971 17.5864 25.4319 15.1388 25.4319 12.4991C25.4319 11.9158 25.3888 11.3424 25.3084 10.7803C25.1316 10.8015 24.9563 10.8226 24.7853 10.8438C24.4218 10.8904 24.0727 10.937 23.748 10.9851L23.7508 10.9865Z" fill="#0C3C7A"/>
<path d="M18.1802 20.2462C17.9633 20.2067 17.7478 20.1657 17.5308 20.1149C17.0279 19.9963 16.5322 19.8564 16.0394 19.6982C15.7807 19.6163 15.5235 19.5288 15.2678 19.4384C15.012 19.348 14.7563 19.2534 14.502 19.1559C13.9933 18.9624 13.4861 18.7562 12.9804 18.5472C12.3065 18.2675 11.6326 17.9822 10.9573 17.7054C10.4501 17.4978 9.94145 17.2958 9.42994 17.1066C8.91699 16.9173 8.40117 16.7408 7.88104 16.5826C7.60373 16.4993 7.30774 16.4174 7.00601 16.3369C5.73441 16.0021 4.2789 15.731 2.87655 15.731C2.06043 15.731 1.26443 15.8256 0.533081 16.0501C0.807516 16.9583 1.17678 17.8255 1.64232 18.6362C1.67967 18.7011 1.72134 18.7633 1.76014 18.8268C1.96991 18.8141 2.17825 18.8071 2.38803 18.8071C4.9887 18.8071 7.20285 19.7519 9.5492 20.7533C11.6743 21.66 13.8712 22.5978 16.4589 22.8323C17.2147 22.8902 17.9877 22.9198 18.7564 22.9198C19.0969 22.9198 19.436 22.9128 19.7737 22.9015C19.8024 22.8831 19.8326 22.8647 19.8613 22.845C20.9088 22.1444 21.8413 21.2914 22.633 20.3225C21.9548 20.4101 21.2723 20.4595 20.5884 20.4595C19.7895 20.4595 18.9863 20.3903 18.186 20.2462H18.1802Z" fill="#8DC26F"/>
<path d="M13.6327 22.9462C13.2893 22.8516 12.9545 22.7471 12.6226 22.6369C9.00178 21.4378 6.01748 19.4365 2.38517 19.4365C2.30901 19.4365 2.23143 19.4422 2.15527 19.4436C4.43553 22.7909 8.31066 24.9998 12.7174 24.9998C14.8669 24.9998 16.89 24.473 18.6645 23.5479C17.9015 23.545 17.1457 23.5168 16.4043 23.4589C15.4273 23.3699 14.5092 23.1863 13.6327 22.9462Z" fill="#33561C"/>
</svg>
